G75*
%MOIN*%
%OFA0B0*%
%FSLAX24Y24*%
%IPPOS*%
%LPD*%
%AMOC8*
5,1,8,0,0,1.08239X$1,22.5*
%
%ADD10C,0.0000*%
%ADD11R,0.0100X0.0100*%
%ADD12R,0.0246X0.0177*%
%ADD13C,0.0177*%
%ADD14C,0.0060*%
%ADD15R,0.0177X0.0246*%
%ADD16R,0.0169X0.0110*%
%ADD17R,0.0165X0.0701*%
%ADD18OC8,0.0502*%
%ADD19R,0.0502X0.0502*%
%ADD20R,0.0236X0.0165*%
%ADD21R,0.0276X0.0157*%
%ADD22R,0.0098X0.0138*%
%ADD23R,0.0177X0.0472*%
%ADD24C,0.0600*%
%ADD25R,0.0118X0.0079*%
%ADD26R,0.0394X0.0394*%
%ADD27R,0.0110X0.0169*%
%ADD28R,0.0356X0.0356*%
%ADD29C,0.0160*%
%ADD30C,0.0120*%
D10*
X000180Y000180D02*
X000180Y025380D01*
X009680Y025380D01*
X009680Y000180D01*
X000180Y000180D01*
D11*
X007180Y022930D03*
X007180Y023030D03*
X007180Y023130D03*
X007180Y023230D03*
X007180Y023330D03*
X007180Y023430D03*
X007180Y023530D03*
X007280Y023530D03*
X007380Y023530D03*
X007480Y023530D03*
X007580Y023530D03*
X007680Y023530D03*
X007780Y023530D03*
X007780Y023430D03*
X007780Y023330D03*
X007780Y023230D03*
X007780Y023130D03*
X007780Y023030D03*
X007780Y022930D03*
X007680Y022930D03*
X007580Y022930D03*
X007480Y022930D03*
X007380Y022930D03*
X007280Y022930D03*
X007380Y023130D03*
X007380Y023230D03*
X007380Y023330D03*
X007480Y023330D03*
X007480Y023230D03*
X007480Y023130D03*
X007580Y023130D03*
X007580Y023230D03*
X007580Y023330D03*
X007580Y023730D03*
X007580Y023830D03*
X007580Y023930D03*
X007580Y024030D03*
X007480Y024030D03*
X007480Y024130D03*
X007480Y024330D03*
X007380Y024330D03*
X007280Y024330D03*
X007180Y024330D03*
X007180Y024430D03*
X007180Y024530D03*
X007180Y024630D03*
X007180Y024730D03*
X007180Y024830D03*
X007180Y024930D03*
X007280Y024930D03*
X007380Y024930D03*
X007480Y024930D03*
X007580Y024930D03*
X007680Y024930D03*
X007780Y024930D03*
X007780Y024830D03*
X007780Y024730D03*
X007780Y024630D03*
X007780Y024530D03*
X007780Y024430D03*
X007780Y024330D03*
X007680Y024330D03*
X007580Y024330D03*
X007580Y024530D03*
X007580Y024630D03*
X007580Y024730D03*
X007480Y024730D03*
X007480Y024630D03*
X007480Y024530D03*
X007380Y024530D03*
X007380Y024630D03*
X007380Y024730D03*
X007180Y024130D03*
X007180Y023930D03*
X007180Y023830D03*
X007180Y023730D03*
X007280Y023730D03*
X007380Y023730D03*
X007380Y023830D03*
X007480Y023830D03*
X007680Y023730D03*
X007780Y023730D03*
X007880Y023730D03*
X007980Y023730D03*
X007980Y023630D03*
X007980Y023530D03*
X008080Y023630D03*
X008080Y023730D03*
X008080Y023830D03*
X008080Y023930D03*
X008080Y024030D03*
X008180Y024030D03*
X008180Y023930D03*
X008180Y023730D03*
X008280Y023730D03*
X008280Y023630D03*
X008380Y023630D03*
X008380Y023530D03*
X008380Y023430D03*
X008380Y023330D03*
X008280Y023230D03*
X008280Y023130D03*
X008280Y023030D03*
X008280Y022930D03*
X008380Y022930D03*
X008380Y023130D03*
X008180Y023030D03*
X008080Y023030D03*
X008080Y023130D03*
X008080Y023230D03*
X008180Y023330D03*
X008180Y023530D03*
X007980Y023130D03*
X008080Y022930D03*
X007980Y023930D03*
X007880Y023930D03*
X007780Y023930D03*
X007680Y024030D03*
X007680Y024130D03*
X007780Y024130D03*
X007880Y024130D03*
X007980Y024230D03*
X007980Y024330D03*
X007980Y024430D03*
X007980Y024530D03*
X008080Y024630D03*
X008180Y024630D03*
X008180Y024730D03*
X008180Y024830D03*
X008080Y024830D03*
X007980Y024830D03*
X007980Y024930D03*
X007980Y024730D03*
X008080Y024430D03*
X008180Y024530D03*
X008280Y024530D03*
X008280Y024430D03*
X008280Y024330D03*
X008280Y024230D03*
X008180Y024330D03*
X008380Y024430D03*
X008380Y024130D03*
X008380Y023930D03*
X008480Y023730D03*
X008580Y023730D03*
X008580Y023830D03*
X008680Y023830D03*
X008780Y023930D03*
X008780Y024030D03*
X008680Y024130D03*
X008680Y024230D03*
X008780Y024230D03*
X008780Y024330D03*
X008780Y024430D03*
X008680Y024530D03*
X008680Y024630D03*
X008580Y024630D03*
X008580Y024530D03*
X008480Y024530D03*
X008480Y024430D03*
X008480Y024330D03*
X008480Y024230D03*
X008580Y024330D03*
X008580Y024130D03*
X008580Y024030D03*
X008580Y023530D03*
X008580Y023430D03*
X008580Y023330D03*
X008580Y023230D03*
X008580Y023130D03*
X008580Y023030D03*
X008580Y022930D03*
X008680Y022930D03*
X008780Y022930D03*
X008880Y022930D03*
X008980Y022930D03*
X009080Y022930D03*
X009180Y022930D03*
X009180Y023030D03*
X009180Y023130D03*
X009180Y023230D03*
X009180Y023330D03*
X009180Y023430D03*
X009180Y023530D03*
X009080Y023530D03*
X008980Y023530D03*
X008880Y023530D03*
X008780Y023530D03*
X008680Y023530D03*
X008780Y023330D03*
X008780Y023230D03*
X008780Y023130D03*
X008880Y023130D03*
X008880Y023230D03*
X008880Y023330D03*
X008980Y023330D03*
X008980Y023230D03*
X008980Y023130D03*
X008980Y023730D03*
X008980Y023930D03*
X009080Y023930D03*
X009080Y024030D03*
X009180Y023930D03*
X009180Y023830D03*
X009180Y024230D03*
X009180Y024330D03*
X009180Y024430D03*
X009180Y024530D03*
X009080Y024530D03*
X009080Y024630D03*
X008980Y024730D03*
X008880Y024830D03*
X008880Y024930D03*
X008780Y024830D03*
X008780Y024730D03*
X008780Y024630D03*
X008880Y024630D03*
X008880Y024530D03*
X008980Y024330D03*
X009080Y024330D03*
X009080Y024230D03*
X008880Y024130D03*
X009180Y024730D03*
X009080Y024830D03*
X009080Y024930D03*
X009180Y024930D03*
X008680Y024830D03*
X008580Y024830D03*
X008580Y024930D03*
X008380Y024930D03*
X008380Y024730D03*
X007280Y023930D03*
D12*
X006238Y013983D03*
X006238Y013589D03*
X006238Y013196D03*
X006338Y011283D03*
X006338Y010889D03*
X006338Y010496D03*
X005108Y010496D03*
X005108Y010889D03*
X005108Y011283D03*
X005008Y013196D03*
X005008Y013589D03*
X005008Y013983D03*
D13*
X005131Y013983D03*
X005131Y013589D03*
X005131Y013196D03*
X005231Y011283D03*
X005231Y010889D03*
X005231Y010496D03*
X006215Y010496D03*
X006215Y010889D03*
X006215Y011283D03*
X006115Y013196D03*
X006115Y013589D03*
X006115Y013983D03*
D14*
X006035Y014155D02*
X005988Y014202D01*
X005259Y014202D01*
X005212Y014155D01*
X005205Y014162D01*
X004848Y014162D01*
X004795Y014109D01*
X004795Y013857D01*
X004848Y013805D01*
X005188Y013805D01*
X005188Y013768D01*
X004848Y013768D01*
X004830Y013750D01*
X004798Y013750D01*
X004798Y013845D01*
X004745Y013898D01*
X004315Y013898D01*
X004300Y013883D01*
X004300Y014327D01*
X004315Y014312D01*
X004745Y014312D01*
X004798Y014365D01*
X004798Y014795D01*
X004745Y014848D01*
X004650Y014848D01*
X004650Y021430D01*
X003850Y022230D01*
X003780Y022300D01*
X003595Y022300D01*
X003607Y022307D01*
X003632Y022331D01*
X003649Y022361D01*
X003658Y022394D01*
X003658Y022480D01*
X003658Y022566D01*
X003649Y022599D01*
X003632Y022629D01*
X003607Y022653D01*
X003578Y022670D01*
X003545Y022679D01*
X003478Y022679D01*
X003412Y022679D01*
X003379Y022670D01*
X003349Y022653D01*
X003335Y022639D01*
X003250Y022639D01*
X003250Y023610D01*
X003669Y024029D01*
X003868Y024029D01*
X004068Y024229D01*
X004068Y024511D01*
X003868Y024711D01*
X003586Y024711D01*
X003386Y024511D01*
X003386Y024229D01*
X003387Y024228D01*
X003010Y023850D01*
X002910Y023750D01*
X002910Y023298D01*
X002565Y023298D01*
X002512Y023245D01*
X002512Y022815D01*
X002565Y022762D01*
X002910Y022762D01*
X002910Y022316D01*
X002897Y022303D01*
X002897Y022303D01*
X002883Y022317D01*
X002853Y022334D01*
X002820Y022343D01*
X002744Y022343D01*
X002744Y022174D01*
X002744Y022174D01*
X002830Y022174D01*
X002830Y022174D01*
X002744Y022174D01*
X002744Y022174D01*
X002744Y022343D01*
X002668Y022343D01*
X002635Y022334D01*
X002605Y022317D01*
X002581Y022293D01*
X002200Y022293D01*
X002200Y022235D02*
X002556Y022235D01*
X002555Y022230D02*
X002555Y022174D01*
X002744Y022174D01*
X002536Y022174D01*
X002530Y022180D01*
X002555Y022176D02*
X002200Y022176D01*
X002200Y022118D02*
X002555Y022118D01*
X002555Y022117D02*
X002560Y022097D01*
X002200Y022097D01*
X002200Y022762D01*
X002295Y022762D01*
X002348Y022815D01*
X002348Y023245D01*
X002295Y023298D01*
X001865Y023298D01*
X001812Y023245D01*
X001812Y022815D01*
X001865Y022762D01*
X001960Y022762D01*
X001960Y021980D01*
X002030Y021910D01*
X002030Y021910D01*
X002083Y021857D01*
X002595Y021857D01*
X002595Y021857D01*
X002595Y021703D01*
X002624Y021674D01*
X002624Y021322D01*
X002598Y021329D01*
X002532Y021329D01*
X002532Y021130D01*
X002532Y020931D01*
X002598Y020931D01*
X002608Y020934D01*
X002608Y020932D01*
X002660Y020880D01*
X002310Y020530D01*
X002310Y018309D01*
X002257Y018257D01*
X002257Y017481D01*
X002310Y017429D01*
X002310Y016530D01*
X001810Y016030D01*
X001810Y015048D01*
X001715Y015048D01*
X001662Y014995D01*
X001662Y014682D01*
X001600Y014620D01*
X001600Y015162D01*
X001695Y015162D01*
X001748Y015215D01*
X001748Y015645D01*
X001695Y015698D01*
X001265Y015698D01*
X001212Y015645D01*
X001212Y015215D01*
X001265Y015162D01*
X001360Y015162D01*
X001360Y013380D01*
X001610Y013130D01*
X001680Y013060D01*
X001874Y013060D01*
X001927Y013007D01*
X001962Y013007D01*
X001962Y012978D01*
X002032Y012908D01*
X002110Y012830D01*
X002110Y012148D01*
X001915Y012148D01*
X001862Y012095D01*
X001862Y011665D01*
X001915Y011612D01*
X002345Y011612D01*
X002398Y011665D01*
X002398Y012092D01*
X002610Y011880D01*
X002398Y011880D01*
X002398Y011822D02*
X002610Y011822D01*
X002610Y011880D02*
X002610Y010830D01*
X002680Y010760D01*
X002880Y010560D01*
X002901Y010560D01*
X002950Y010511D01*
X003300Y010511D01*
X003353Y010564D01*
X003353Y010796D01*
X003300Y010849D01*
X002950Y010849D01*
X002940Y010839D01*
X002850Y010930D01*
X002850Y011980D01*
X002500Y012330D01*
X002500Y013730D01*
X002580Y013810D01*
X002650Y013880D01*
X002650Y014380D01*
X002980Y014710D01*
X003050Y014780D01*
X003050Y015067D01*
X003065Y015059D01*
X003098Y015050D01*
X003186Y015050D01*
X003186Y015519D01*
X003209Y015519D01*
X003209Y015050D01*
X003298Y015050D01*
X003331Y015059D01*
X003360Y015076D01*
X003384Y015100D01*
X003402Y015130D01*
X003410Y015163D01*
X003410Y015519D01*
X003209Y015519D01*
X003209Y015542D01*
X003186Y015542D01*
X003186Y016011D01*
X003098Y016011D01*
X003065Y016002D01*
X003035Y015985D01*
X003021Y015971D01*
X002822Y015971D01*
X002814Y015963D01*
X002806Y015971D01*
X002566Y015971D01*
X002558Y015963D01*
X002550Y015971D01*
X002310Y015971D01*
X002257Y015918D01*
X002257Y015143D01*
X002310Y015090D01*
X002550Y015090D01*
X002558Y015098D01*
X002566Y015090D01*
X002806Y015090D01*
X002810Y015094D01*
X002810Y014880D01*
X002410Y014480D01*
X002410Y013980D01*
X002266Y013836D01*
X002237Y013864D01*
X002202Y013864D01*
X002202Y013912D01*
X002295Y013912D01*
X002348Y013965D01*
X002348Y014395D01*
X002295Y014448D01*
X001865Y014448D01*
X001812Y014395D01*
X001812Y013965D01*
X001865Y013912D01*
X001962Y013912D01*
X001962Y013864D01*
X001927Y013864D01*
X001874Y013812D01*
X001874Y013606D01*
X001800Y013680D01*
X001800Y014480D01*
X001832Y014512D01*
X002145Y014512D01*
X002198Y014565D01*
X002198Y014995D01*
X002145Y015048D01*
X002050Y015048D01*
X002050Y015930D01*
X002550Y016430D01*
X002550Y017429D01*
X002558Y017437D01*
X002566Y017429D01*
X002806Y017429D01*
X002810Y017433D01*
X002810Y017330D01*
X002880Y017260D01*
X002880Y017260D01*
X002930Y017210D01*
X003730Y017210D01*
X004060Y016880D01*
X004060Y013320D01*
X003918Y013462D01*
X003945Y013462D01*
X003998Y013515D01*
X003998Y013945D01*
X003945Y013998D01*
X003850Y013998D01*
X003850Y014480D01*
X003648Y014682D01*
X003648Y014995D01*
X003595Y015048D01*
X003165Y015048D01*
X003112Y014995D01*
X003112Y014565D01*
X003165Y014512D01*
X003478Y014512D01*
X003610Y014380D01*
X003610Y013998D01*
X003515Y013998D01*
X003462Y013945D01*
X003462Y013515D01*
X003515Y013462D01*
X003610Y013462D01*
X003610Y013430D01*
X003680Y013360D01*
X004110Y012930D01*
X004110Y012098D01*
X004015Y012098D01*
X003962Y012045D01*
X003962Y011615D01*
X004015Y011562D01*
X004110Y011562D01*
X004110Y010598D01*
X004015Y010598D01*
X003962Y010545D01*
X003962Y010115D01*
X004015Y010062D01*
X004445Y010062D01*
X004498Y010115D01*
X004498Y010545D01*
X004445Y010598D01*
X004350Y010598D01*
X004350Y011562D01*
X004445Y011562D01*
X004460Y011577D01*
X004460Y010780D01*
X004530Y010710D01*
X004350Y010710D01*
X004350Y010652D02*
X004589Y010652D01*
X004530Y010710D02*
X004865Y010376D01*
X004895Y010376D01*
X004895Y010370D01*
X004948Y010317D01*
X005060Y010317D01*
X005060Y007948D01*
X004965Y007948D01*
X004912Y007895D01*
X004912Y007465D01*
X004965Y007412D01*
X005060Y007412D01*
X005060Y006672D01*
X005054Y006672D01*
X005001Y006619D01*
X005001Y006072D01*
X005054Y006019D01*
X005306Y006019D01*
X005359Y006072D01*
X005359Y006619D01*
X005306Y006672D01*
X005300Y006672D01*
X005300Y007412D01*
X005395Y007412D01*
X005448Y007465D01*
X005448Y007895D01*
X005395Y007948D01*
X005300Y007948D01*
X005300Y010317D01*
X005305Y010317D01*
X005312Y010324D01*
X005359Y010277D01*
X005950Y010277D01*
X006066Y010393D01*
X006141Y010317D01*
X006499Y010317D01*
X006542Y010360D01*
X006630Y010360D01*
X006660Y010390D01*
X006660Y010048D01*
X006565Y010048D01*
X006512Y009995D01*
X006512Y009565D01*
X006565Y009512D01*
X006660Y009512D01*
X006660Y009230D01*
X006210Y008780D01*
X006210Y006480D01*
X006280Y006410D01*
X006710Y005980D01*
X006710Y005380D01*
X006780Y005310D01*
X006980Y005110D01*
X006990Y005110D01*
X006990Y005102D01*
X007049Y004959D01*
X007159Y004849D01*
X007302Y004790D01*
X008058Y004790D01*
X008201Y004849D01*
X008311Y004959D01*
X008370Y005102D01*
X008370Y005258D01*
X008311Y005401D01*
X008201Y005511D01*
X008058Y005570D01*
X007302Y005570D01*
X007159Y005511D01*
X007049Y005401D01*
X007043Y005386D01*
X006950Y005480D01*
X006950Y006060D01*
X007008Y006060D01*
X007049Y005959D01*
X007159Y005849D01*
X007302Y005790D01*
X008058Y005790D01*
X008201Y005849D01*
X008311Y005959D01*
X008352Y006060D01*
X008380Y006060D01*
X008530Y006210D01*
X008600Y006280D01*
X008600Y006680D01*
X008830Y006910D01*
X008900Y006981D01*
X008900Y007033D01*
X008910Y007043D01*
X008910Y006280D01*
X008710Y006080D01*
X008710Y004780D01*
X008317Y004386D01*
X008311Y004401D01*
X008201Y004511D01*
X008058Y004570D01*
X007302Y004570D01*
X007159Y004511D01*
X007049Y004401D01*
X006990Y004258D01*
X006990Y004102D01*
X007049Y003959D01*
X007159Y003849D01*
X007302Y003790D01*
X008058Y003790D01*
X008201Y003849D01*
X008311Y003959D01*
X008368Y004099D01*
X008880Y004610D01*
X008950Y004680D01*
X008950Y005980D01*
X009080Y006110D01*
X009150Y006180D01*
X009150Y007430D01*
X009050Y007530D01*
X009050Y015162D01*
X009195Y015162D01*
X009248Y015215D01*
X009248Y015645D01*
X009195Y015698D01*
X008765Y015698D01*
X008712Y015645D01*
X008712Y015215D01*
X008765Y015162D01*
X008810Y015162D01*
X008810Y015070D01*
X008780Y015100D01*
X008700Y015180D01*
X008700Y015680D01*
X008900Y015880D01*
X008900Y019380D01*
X008570Y019710D01*
X008570Y019758D01*
X008511Y019901D01*
X008401Y020011D01*
X008258Y020070D01*
X007502Y020070D01*
X007359Y020011D01*
X007249Y019901D01*
X007190Y019758D01*
X007190Y019602D01*
X004650Y019602D01*
X004650Y019544D02*
X007214Y019544D01*
X007190Y019602D02*
X007249Y019459D01*
X007359Y019349D01*
X007502Y019290D01*
X008258Y019290D01*
X008401Y019349D01*
X008496Y019444D01*
X008660Y019280D01*
X008660Y015980D01*
X008460Y015780D01*
X008460Y015080D01*
X008530Y015010D01*
X008610Y014930D01*
X008610Y013320D01*
X008580Y013350D01*
X008357Y013572D01*
X008370Y013602D01*
X008370Y013758D01*
X008311Y013901D01*
X008201Y014011D01*
X008058Y014070D01*
X007302Y014070D01*
X007159Y014011D01*
X007050Y013902D01*
X007050Y016830D01*
X007229Y017009D01*
X007249Y016959D01*
X007359Y016849D01*
X007502Y016790D01*
X008258Y016790D01*
X008401Y016849D01*
X008511Y016959D01*
X008570Y017102D01*
X008570Y017258D01*
X008511Y017401D01*
X008401Y017511D01*
X008258Y017570D01*
X007502Y017570D01*
X007359Y017511D01*
X007249Y017401D01*
X007208Y017300D01*
X007180Y017300D01*
X007110Y017230D01*
X006880Y017000D01*
X006810Y016930D01*
X006810Y011970D01*
X006798Y011982D01*
X006798Y012295D01*
X006745Y012348D01*
X006315Y012348D01*
X006262Y012295D01*
X006262Y011865D01*
X006315Y011812D01*
X006628Y011812D01*
X006660Y011780D01*
X006660Y010730D01*
X006551Y010621D01*
X006551Y010622D01*
X006499Y010674D01*
X006492Y010674D01*
X006512Y010680D01*
X006541Y010697D01*
X006566Y010721D01*
X006583Y010751D01*
X006591Y010784D01*
X006591Y010875D01*
X006394Y010875D01*
X006394Y010904D01*
X006591Y010904D01*
X006591Y010995D01*
X006583Y011028D01*
X006566Y011058D01*
X006541Y011082D01*
X006512Y011099D01*
X006492Y011105D01*
X006499Y011105D01*
X006551Y011157D01*
X006551Y011409D01*
X006499Y011462D01*
X006141Y011462D01*
X006135Y011455D01*
X006088Y011502D01*
X005359Y011502D01*
X005312Y011455D01*
X005305Y011462D01*
X004950Y011462D01*
X004950Y011562D01*
X005245Y011562D01*
X005298Y011615D01*
X005298Y012045D01*
X005245Y012098D01*
X004815Y012098D01*
X004762Y012045D01*
X004762Y011732D01*
X004710Y011680D01*
X004710Y010980D01*
X004810Y010880D01*
X004880Y010810D01*
X004895Y010810D01*
X004895Y010764D01*
X004948Y010711D01*
X005288Y010711D01*
X005288Y010674D01*
X004948Y010674D01*
X004927Y010653D01*
X004700Y010880D01*
X004700Y012130D01*
X004550Y012280D01*
X004550Y013030D01*
X004580Y013060D01*
X004805Y013060D01*
X004848Y013017D01*
X005205Y013017D01*
X005212Y013024D01*
X005259Y012977D01*
X005850Y012977D01*
X005966Y013093D01*
X006041Y013017D01*
X006110Y013017D01*
X006110Y012998D01*
X006015Y012998D01*
X005962Y012945D01*
X005962Y012515D01*
X006015Y012462D01*
X006445Y012462D01*
X006498Y012515D01*
X006498Y012945D01*
X006445Y012998D01*
X006350Y012998D01*
X006350Y013017D01*
X006399Y013017D01*
X006451Y013070D01*
X006451Y013322D01*
X006399Y013374D01*
X006392Y013374D01*
X006412Y013380D01*
X006441Y013397D01*
X006466Y013421D01*
X006483Y013451D01*
X006491Y013484D01*
X006491Y013575D01*
X006294Y013575D01*
X006294Y013604D01*
X006491Y013604D01*
X006491Y013695D01*
X006483Y013728D01*
X006466Y013758D01*
X006441Y013782D01*
X006412Y013799D01*
X006392Y013805D01*
X006399Y013805D01*
X006451Y013857D01*
X006451Y014109D01*
X006399Y014162D01*
X006041Y014162D01*
X006028Y014162D01*
X006035Y014155D02*
X006041Y014162D01*
X005938Y014082D02*
X005938Y013235D01*
X005800Y013097D01*
X005308Y013097D01*
X005308Y014082D01*
X005938Y014082D01*
X005938Y014045D02*
X005308Y014045D01*
X005308Y013986D02*
X005938Y013986D01*
X005938Y013928D02*
X005308Y013928D01*
X005308Y013869D02*
X005938Y013869D01*
X005938Y013811D02*
X005308Y013811D01*
X005308Y013752D02*
X005938Y013752D01*
X005938Y013694D02*
X005308Y013694D01*
X005308Y013635D02*
X005938Y013635D01*
X005938Y013577D02*
X005308Y013577D01*
X005308Y013518D02*
X005938Y013518D01*
X005938Y013460D02*
X005308Y013460D01*
X005308Y013401D02*
X005938Y013401D01*
X005938Y013343D02*
X005308Y013343D01*
X005308Y013284D02*
X005938Y013284D01*
X005929Y013226D02*
X005308Y013226D01*
X005308Y013167D02*
X005870Y013167D01*
X005812Y013109D02*
X005308Y013109D01*
X005244Y012992D02*
X004550Y012992D01*
X004550Y012933D02*
X005962Y012933D01*
X005962Y012875D02*
X004550Y012875D01*
X004550Y012816D02*
X005962Y012816D01*
X005962Y012758D02*
X004550Y012758D01*
X004550Y012699D02*
X005962Y012699D01*
X005962Y012641D02*
X004550Y012641D01*
X004550Y012582D02*
X005962Y012582D01*
X005962Y012524D02*
X004550Y012524D01*
X004550Y012465D02*
X006011Y012465D01*
X006008Y012992D02*
X005864Y012992D01*
X005923Y013050D02*
X006009Y013050D01*
X006230Y013187D02*
X006230Y012730D01*
X006315Y012348D02*
X004550Y012348D01*
X004550Y012290D02*
X006262Y012290D01*
X006262Y012231D02*
X004599Y012231D01*
X004657Y012173D02*
X006262Y012173D01*
X006262Y012114D02*
X004700Y012114D01*
X004700Y012056D02*
X004772Y012056D01*
X004762Y011997D02*
X004700Y011997D01*
X004700Y011939D02*
X004762Y011939D01*
X004762Y011880D02*
X004700Y011880D01*
X004700Y011822D02*
X004762Y011822D01*
X004762Y011763D02*
X004700Y011763D01*
X004700Y011705D02*
X004735Y011705D01*
X004710Y011646D02*
X004700Y011646D01*
X004700Y011588D02*
X004710Y011588D01*
X004700Y011529D02*
X004710Y011529D01*
X004700Y011471D02*
X004710Y011471D01*
X004700Y011412D02*
X004710Y011412D01*
X004700Y011354D02*
X004710Y011354D01*
X004700Y011295D02*
X004710Y011295D01*
X004700Y011237D02*
X004710Y011237D01*
X004700Y011178D02*
X004710Y011178D01*
X004700Y011120D02*
X004710Y011120D01*
X004700Y011061D02*
X004710Y011061D01*
X004700Y011003D02*
X004710Y011003D01*
X004700Y010944D02*
X004746Y010944D01*
X004700Y010886D02*
X004805Y010886D01*
X004753Y010827D02*
X004863Y010827D01*
X004895Y010769D02*
X004811Y010769D01*
X004870Y010710D02*
X005288Y010710D01*
X005408Y010710D02*
X006038Y010710D01*
X006038Y010652D02*
X005408Y010652D01*
X005408Y010593D02*
X006038Y010593D01*
X006038Y010535D02*
X006038Y011382D01*
X005408Y011382D01*
X005408Y010397D01*
X005900Y010397D01*
X006038Y010535D01*
X005408Y010535D01*
X005408Y010476D02*
X005979Y010476D01*
X005921Y010418D02*
X005408Y010418D01*
X005335Y010301D02*
X005300Y010301D01*
X005300Y010242D02*
X006660Y010242D01*
X006660Y010184D02*
X005300Y010184D01*
X005300Y010125D02*
X006660Y010125D01*
X006660Y010067D02*
X005300Y010067D01*
X005300Y010008D02*
X006525Y010008D01*
X006512Y009950D02*
X005300Y009950D01*
X005300Y009891D02*
X006512Y009891D01*
X006512Y009833D02*
X005300Y009833D01*
X005300Y009774D02*
X006512Y009774D01*
X006512Y009716D02*
X005300Y009716D01*
X005300Y009657D02*
X006512Y009657D01*
X006512Y009599D02*
X005300Y009599D01*
X005300Y009540D02*
X006536Y009540D01*
X006660Y009482D02*
X005300Y009482D01*
X005300Y009423D02*
X006660Y009423D01*
X006660Y009365D02*
X005300Y009365D01*
X005300Y009306D02*
X006660Y009306D01*
X006660Y009248D02*
X005300Y009248D01*
X005300Y009189D02*
X006619Y009189D01*
X006561Y009131D02*
X005300Y009131D01*
X005300Y009072D02*
X006502Y009072D01*
X006444Y009014D02*
X005300Y009014D01*
X005300Y008955D02*
X006385Y008955D01*
X006327Y008897D02*
X005300Y008897D01*
X005300Y008838D02*
X006268Y008838D01*
X006210Y008780D02*
X005300Y008780D01*
X005300Y008721D02*
X006210Y008721D01*
X006210Y008663D02*
X005300Y008663D01*
X005300Y008604D02*
X006210Y008604D01*
X006210Y008546D02*
X005300Y008546D01*
X005300Y008487D02*
X006210Y008487D01*
X006210Y008429D02*
X005300Y008429D01*
X005300Y008370D02*
X006210Y008370D01*
X006210Y008312D02*
X005300Y008312D01*
X005300Y008253D02*
X006210Y008253D01*
X006210Y008195D02*
X005300Y008195D01*
X005300Y008136D02*
X006210Y008136D01*
X006210Y008078D02*
X005300Y008078D01*
X005300Y008019D02*
X006210Y008019D01*
X006210Y007961D02*
X005300Y007961D01*
X005180Y007680D02*
X005180Y010424D01*
X005108Y010496D01*
X004914Y010496D01*
X004580Y010830D01*
X004580Y012080D01*
X004430Y012230D01*
X004430Y013080D01*
X004530Y013180D01*
X004992Y013180D01*
X005008Y013196D01*
X004815Y013050D02*
X004570Y013050D01*
X004430Y013080D02*
X004180Y013330D01*
X004180Y016930D01*
X003780Y017330D01*
X002980Y017330D01*
X002930Y017380D01*
X002930Y017857D01*
X002942Y017869D01*
X002930Y017881D01*
X002942Y017869D02*
X002980Y017831D01*
X003198Y017869D02*
X003198Y019748D01*
X003230Y019780D01*
X003318Y019512D02*
X003445Y019512D01*
X003498Y019565D01*
X003498Y019995D01*
X003445Y020048D01*
X003015Y020048D01*
X002962Y019995D01*
X002962Y019565D01*
X003015Y019512D01*
X003078Y019512D01*
X003078Y018309D01*
X003070Y018301D01*
X003062Y018309D01*
X002822Y018309D01*
X002814Y018301D01*
X002806Y018309D01*
X002566Y018309D01*
X002558Y018301D01*
X002550Y018309D01*
X002550Y020430D01*
X002830Y020710D01*
X003493Y020710D01*
X003493Y020502D01*
X003546Y020449D01*
X004014Y020449D01*
X004067Y020502D01*
X004067Y020970D01*
X004014Y021023D01*
X003546Y021023D01*
X003514Y020991D01*
X003504Y020989D01*
X003476Y020950D01*
X002930Y020950D01*
X002880Y021000D01*
X002862Y021018D01*
X002868Y021024D01*
X002868Y021236D01*
X002864Y021240D01*
X002864Y021624D01*
X002871Y021619D01*
X002904Y021611D01*
X002980Y021611D01*
X003056Y021611D01*
X003089Y021619D01*
X003119Y021637D01*
X003143Y021661D01*
X003160Y021690D01*
X003169Y021724D01*
X003169Y021780D01*
X003169Y021836D01*
X003164Y021857D01*
X003483Y021857D01*
X003538Y021802D01*
X003493Y021758D01*
X003493Y021290D01*
X003546Y021237D01*
X004014Y021237D01*
X004067Y021290D01*
X004067Y021673D01*
X004410Y021330D01*
X004410Y014848D01*
X004315Y014848D01*
X004300Y014833D01*
X004300Y016980D01*
X003950Y017330D01*
X004080Y017460D01*
X004082Y017462D01*
X004245Y017462D01*
X004298Y017515D01*
X004298Y017945D01*
X004245Y017998D01*
X003815Y017998D01*
X003762Y017945D01*
X003762Y017515D01*
X003778Y017498D01*
X003730Y017450D01*
X003339Y017450D01*
X003370Y017481D01*
X003370Y018257D01*
X003318Y018309D01*
X003318Y019512D01*
X003318Y019485D02*
X004410Y019485D01*
X004410Y019427D02*
X003318Y019427D01*
X003318Y019368D02*
X004410Y019368D01*
X004410Y019310D02*
X003318Y019310D01*
X003318Y019251D02*
X004410Y019251D01*
X004410Y019193D02*
X003318Y019193D01*
X003318Y019134D02*
X004410Y019134D01*
X004410Y019076D02*
X003318Y019076D01*
X003318Y019017D02*
X004410Y019017D01*
X004410Y018959D02*
X003318Y018959D01*
X003318Y018900D02*
X004410Y018900D01*
X004410Y018842D02*
X003318Y018842D01*
X003318Y018783D02*
X004410Y018783D01*
X004410Y018725D02*
X003318Y018725D01*
X003318Y018666D02*
X004410Y018666D01*
X004410Y018608D02*
X003318Y018608D01*
X003318Y018549D02*
X004410Y018549D01*
X004410Y018491D02*
X003318Y018491D01*
X003318Y018432D02*
X004410Y018432D01*
X004410Y018374D02*
X003318Y018374D01*
X003318Y018315D02*
X004410Y018315D01*
X004410Y018257D02*
X003370Y018257D01*
X003370Y018198D02*
X004410Y018198D01*
X004410Y018140D02*
X003370Y018140D01*
X003370Y018081D02*
X004410Y018081D01*
X004410Y018023D02*
X003370Y018023D01*
X003370Y017964D02*
X003781Y017964D01*
X003762Y017906D02*
X003370Y017906D01*
X003370Y017847D02*
X003762Y017847D01*
X003762Y017789D02*
X003370Y017789D01*
X003370Y017730D02*
X003762Y017730D01*
X003762Y017672D02*
X003370Y017672D01*
X003370Y017613D02*
X003762Y017613D01*
X003762Y017555D02*
X003370Y017555D01*
X003370Y017496D02*
X003776Y017496D01*
X003780Y017330D02*
X004030Y017580D01*
X004030Y017730D01*
X004080Y017460D02*
X004080Y017460D01*
X004057Y017438D02*
X004410Y017438D01*
X004410Y017496D02*
X004280Y017496D01*
X004298Y017555D02*
X004410Y017555D01*
X004410Y017613D02*
X004298Y017613D01*
X004298Y017672D02*
X004410Y017672D01*
X004410Y017730D02*
X004298Y017730D01*
X004298Y017789D02*
X004410Y017789D01*
X004410Y017847D02*
X004298Y017847D01*
X004298Y017906D02*
X004410Y017906D01*
X004410Y017964D02*
X004279Y017964D01*
X004410Y017379D02*
X003999Y017379D01*
X003959Y017321D02*
X004410Y017321D01*
X004410Y017262D02*
X004018Y017262D01*
X004076Y017204D02*
X004410Y017204D01*
X004410Y017145D02*
X004135Y017145D01*
X004193Y017087D02*
X004410Y017087D01*
X004410Y017028D02*
X004252Y017028D01*
X004300Y016970D02*
X004410Y016970D01*
X004410Y016911D02*
X004300Y016911D01*
X004300Y016853D02*
X004410Y016853D01*
X004410Y016794D02*
X004300Y016794D01*
X004300Y016736D02*
X004410Y016736D01*
X004410Y016677D02*
X004300Y016677D01*
X004300Y016619D02*
X004410Y016619D01*
X004410Y016560D02*
X004300Y016560D01*
X004300Y016502D02*
X004410Y016502D01*
X004410Y016443D02*
X004300Y016443D01*
X004300Y016385D02*
X004410Y016385D01*
X004410Y016326D02*
X004300Y016326D01*
X004300Y016268D02*
X004410Y016268D01*
X004410Y016209D02*
X004300Y016209D01*
X004300Y016151D02*
X004410Y016151D01*
X004410Y016092D02*
X004300Y016092D01*
X004300Y016034D02*
X004410Y016034D01*
X004410Y015975D02*
X004300Y015975D01*
X004300Y015917D02*
X004410Y015917D01*
X004410Y015858D02*
X004300Y015858D01*
X004300Y015800D02*
X004410Y015800D01*
X004410Y015741D02*
X004300Y015741D01*
X004300Y015683D02*
X004410Y015683D01*
X004410Y015624D02*
X004300Y015624D01*
X004300Y015566D02*
X004410Y015566D01*
X004410Y015507D02*
X004300Y015507D01*
X004300Y015449D02*
X004410Y015449D01*
X004410Y015390D02*
X004300Y015390D01*
X004300Y015332D02*
X004410Y015332D01*
X004410Y015273D02*
X004300Y015273D01*
X004300Y015215D02*
X004410Y015215D01*
X004410Y015156D02*
X004300Y015156D01*
X004300Y015098D02*
X004410Y015098D01*
X004410Y015039D02*
X004300Y015039D01*
X004300Y014981D02*
X004410Y014981D01*
X004410Y014922D02*
X004300Y014922D01*
X004300Y014864D02*
X004410Y014864D01*
X004530Y014580D02*
X004530Y021380D01*
X003730Y022180D01*
X002986Y022180D01*
X002980Y022174D01*
X002980Y022180D01*
X002980Y022174D02*
X002974Y022174D01*
X002910Y022352D02*
X002200Y022352D01*
X002200Y022410D02*
X002910Y022410D01*
X002910Y022469D02*
X002200Y022469D01*
X002200Y022527D02*
X002910Y022527D01*
X002910Y022586D02*
X002200Y022586D01*
X002200Y022644D02*
X002910Y022644D01*
X002910Y022703D02*
X002200Y022703D01*
X002200Y022761D02*
X002910Y022761D01*
X002780Y023030D02*
X003080Y023030D01*
X003250Y023054D02*
X007040Y023054D01*
X007040Y023112D02*
X003250Y023112D01*
X003250Y023171D02*
X007040Y023171D01*
X007040Y023229D02*
X003250Y023229D01*
X003250Y023288D02*
X007040Y023288D01*
X007040Y023346D02*
X003250Y023346D01*
X003250Y023405D02*
X007040Y023405D01*
X007040Y023463D02*
X003250Y023463D01*
X003250Y023522D02*
X007040Y023522D01*
X007040Y023580D02*
X003250Y023580D01*
X003279Y023639D02*
X007044Y023639D01*
X007040Y023643D02*
X007053Y023630D01*
X007040Y023617D01*
X007040Y022943D01*
X007040Y022843D01*
X007093Y022790D01*
X007867Y022790D01*
X007920Y022843D01*
X007920Y022990D01*
X007940Y022990D01*
X007940Y022843D01*
X007993Y022790D01*
X008167Y022790D01*
X008180Y022803D01*
X008193Y022790D01*
X008467Y022790D01*
X008480Y022803D01*
X008493Y022790D01*
X009267Y022790D01*
X009320Y022843D01*
X009320Y023617D01*
X009267Y023670D01*
X009120Y023670D01*
X009120Y023690D01*
X009267Y023690D01*
X009320Y023743D01*
X009320Y024017D01*
X009267Y024070D01*
X009220Y024070D01*
X009220Y024090D01*
X009267Y024090D01*
X009320Y024143D01*
X009320Y024617D01*
X009307Y024630D01*
X009320Y024643D01*
X009320Y024817D01*
X009307Y024830D01*
X009320Y024843D01*
X009320Y025017D01*
X009267Y025070D01*
X008993Y025070D01*
X008980Y025057D01*
X008967Y025070D01*
X008793Y025070D01*
X008740Y025017D01*
X008740Y024970D01*
X008720Y024970D01*
X008720Y025017D01*
X008667Y025070D01*
X008493Y025070D01*
X008480Y025057D01*
X008467Y025070D01*
X008293Y025070D01*
X008240Y025017D01*
X008240Y024970D01*
X008120Y024970D01*
X008120Y025017D01*
X008067Y025070D01*
X007893Y025070D01*
X007880Y025057D01*
X007867Y025070D01*
X007093Y025070D01*
X007040Y025017D01*
X007040Y024243D01*
X007053Y024230D01*
X007040Y024217D01*
X007040Y024043D01*
X007053Y024030D01*
X007040Y024017D01*
X007040Y023643D01*
X007040Y023697D02*
X003338Y023697D01*
X003396Y023756D02*
X007040Y023756D01*
X007040Y023814D02*
X003455Y023814D01*
X003513Y023873D02*
X007040Y023873D01*
X007040Y023931D02*
X003572Y023931D01*
X003630Y023990D02*
X007040Y023990D01*
X007040Y024048D02*
X003888Y024048D01*
X003946Y024107D02*
X007040Y024107D01*
X007040Y024165D02*
X004005Y024165D01*
X004063Y024224D02*
X007046Y024224D01*
X007040Y024282D02*
X004068Y024282D01*
X004068Y024341D02*
X007040Y024341D01*
X007040Y024399D02*
X004068Y024399D01*
X004068Y024458D02*
X007040Y024458D01*
X007040Y024516D02*
X004063Y024516D01*
X004005Y024575D02*
X007040Y024575D01*
X007040Y024633D02*
X003946Y024633D01*
X003888Y024692D02*
X007040Y024692D01*
X007040Y024750D02*
X000410Y024750D01*
X000410Y024692D02*
X003567Y024692D01*
X003508Y024633D02*
X000410Y024633D01*
X000410Y024575D02*
X003450Y024575D01*
X003391Y024516D02*
X000410Y024516D01*
X000410Y024458D02*
X003386Y024458D01*
X003386Y024399D02*
X000410Y024399D01*
X000410Y024341D02*
X003386Y024341D01*
X003386Y024282D02*
X000410Y024282D01*
X000410Y024224D02*
X003383Y024224D01*
X003325Y024165D02*
X000410Y024165D01*
X000410Y024107D02*
X003266Y024107D01*
X003208Y024048D02*
X000410Y024048D01*
X000410Y023990D02*
X003149Y023990D01*
X003091Y023931D02*
X000410Y023931D01*
X000410Y023873D02*
X003032Y023873D01*
X002974Y023814D02*
X000410Y023814D01*
X000410Y023756D02*
X002915Y023756D01*
X002910Y023697D02*
X000410Y023697D01*
X000410Y023639D02*
X002910Y023639D01*
X002910Y023580D02*
X000410Y023580D01*
X000410Y023522D02*
X002910Y023522D01*
X002910Y023463D02*
X000410Y023463D01*
X000410Y023405D02*
X002910Y023405D01*
X002910Y023346D02*
X000410Y023346D01*
X000410Y023288D02*
X001854Y023288D01*
X001812Y023229D02*
X000410Y023229D01*
X000410Y023171D02*
X001812Y023171D01*
X001812Y023112D02*
X000410Y023112D01*
X000410Y023054D02*
X001812Y023054D01*
X001812Y022995D02*
X000410Y022995D01*
X000410Y022937D02*
X001812Y022937D01*
X001812Y022878D02*
X000410Y022878D01*
X000410Y022820D02*
X001812Y022820D01*
X001960Y022761D02*
X000410Y022761D01*
X000410Y022703D02*
X001960Y022703D01*
X001960Y022644D02*
X000410Y022644D01*
X000410Y022586D02*
X001960Y022586D01*
X001960Y022527D02*
X000410Y022527D01*
X000410Y022469D02*
X001960Y022469D01*
X001960Y022410D02*
X000410Y022410D01*
X000410Y022352D02*
X001960Y022352D01*
X001960Y022293D02*
X000410Y022293D01*
X000410Y022235D02*
X001960Y022235D01*
X001960Y022176D02*
X000410Y022176D01*
X000410Y022118D02*
X001960Y022118D01*
X001960Y022059D02*
X000410Y022059D01*
X000410Y022001D02*
X001960Y022001D01*
X001998Y021942D02*
X000410Y021942D01*
X000410Y021884D02*
X002057Y021884D01*
X002133Y021977D02*
X002080Y022030D01*
X002080Y023030D01*
X002348Y023054D02*
X002512Y023054D01*
X002512Y023112D02*
X002348Y023112D01*
X002348Y023171D02*
X002512Y023171D01*
X002512Y023229D02*
X002348Y023229D01*
X002306Y023288D02*
X002554Y023288D01*
X002512Y022995D02*
X002348Y022995D01*
X002348Y022937D02*
X002512Y022937D01*
X002512Y022878D02*
X002348Y022878D01*
X002348Y022820D02*
X002512Y022820D01*
X002581Y022293D02*
X002564Y022263D01*
X002555Y022230D01*
X002555Y022174D02*
X002555Y022117D01*
X002555Y022174D02*
X002744Y022174D01*
X002744Y022174D01*
X002744Y022106D01*
X002744Y022106D01*
X002744Y022174D01*
X002744Y022174D01*
X002744Y022176D02*
X002744Y022176D01*
X002744Y022118D02*
X002744Y022118D01*
X002744Y022235D02*
X002744Y022235D01*
X002744Y022293D02*
X002744Y022293D01*
X002744Y021977D02*
X002133Y021977D01*
X002378Y021279D02*
X002361Y021249D01*
X002352Y021216D01*
X002352Y021130D01*
X002352Y021044D01*
X002361Y021011D01*
X002378Y020981D01*
X002403Y020957D01*
X002432Y020940D01*
X002465Y020931D01*
X002532Y020931D01*
X002532Y021130D01*
X002532Y021130D01*
X002532Y021130D01*
X002532Y021329D01*
X002465Y021329D01*
X002432Y021320D01*
X002403Y021303D01*
X002378Y021279D01*
X002398Y021299D02*
X000410Y021299D01*
X000410Y021357D02*
X002624Y021357D01*
X002624Y021416D02*
X000410Y021416D01*
X000410Y021474D02*
X002624Y021474D01*
X002624Y021533D02*
X000410Y021533D01*
X000410Y021591D02*
X002624Y021591D01*
X002624Y021650D02*
X000410Y021650D01*
X000410Y021708D02*
X002595Y021708D01*
X002595Y021767D02*
X000410Y021767D01*
X000410Y021825D02*
X002595Y021825D01*
X002744Y021780D02*
X002744Y021145D01*
X002728Y021130D01*
X002728Y020982D01*
X002830Y020880D01*
X002430Y020480D01*
X002430Y017869D01*
X002430Y016480D01*
X001930Y015980D01*
X001930Y014780D01*
X001680Y014530D01*
X001680Y013630D01*
X001880Y013430D01*
X001886Y013436D01*
X002082Y013436D01*
X002082Y013692D02*
X002082Y014128D01*
X002080Y014180D01*
X002202Y013869D02*
X002299Y013869D01*
X002311Y013928D02*
X002358Y013928D01*
X002348Y013986D02*
X002410Y013986D01*
X002410Y014045D02*
X002348Y014045D01*
X002348Y014103D02*
X002410Y014103D01*
X002410Y014162D02*
X002348Y014162D01*
X002348Y014220D02*
X002410Y014220D01*
X002410Y014279D02*
X002348Y014279D01*
X002348Y014337D02*
X002410Y014337D01*
X002410Y014396D02*
X002348Y014396D01*
X002410Y014454D02*
X001800Y014454D01*
X001800Y014396D02*
X001812Y014396D01*
X001812Y014337D02*
X001800Y014337D01*
X001800Y014279D02*
X001812Y014279D01*
X001812Y014220D02*
X001800Y014220D01*
X001800Y014162D02*
X001812Y014162D01*
X001812Y014103D02*
X001800Y014103D01*
X001800Y014045D02*
X001812Y014045D01*
X001812Y013986D02*
X001800Y013986D01*
X001800Y013928D02*
X001849Y013928D01*
X001800Y013869D02*
X001962Y013869D01*
X001874Y013811D02*
X001800Y013811D01*
X001800Y013752D02*
X001874Y013752D01*
X001874Y013694D02*
X001800Y013694D01*
X001845Y013635D02*
X001874Y013635D01*
X001480Y013430D02*
X001730Y013180D01*
X002082Y013180D01*
X002082Y013028D01*
X002230Y012880D01*
X002230Y011980D01*
X002130Y011880D01*
X002110Y012173D02*
X001300Y012173D01*
X001300Y012231D02*
X002110Y012231D01*
X002110Y012290D02*
X001300Y012290D01*
X001300Y012348D02*
X002110Y012348D01*
X002110Y012407D02*
X001300Y012407D01*
X001300Y012465D02*
X002110Y012465D01*
X002110Y012524D02*
X001300Y012524D01*
X001300Y012582D02*
X002110Y012582D01*
X002110Y012641D02*
X001300Y012641D01*
X001300Y012699D02*
X002110Y012699D01*
X002110Y012758D02*
X001300Y012758D01*
X001300Y012816D02*
X002110Y012816D01*
X002066Y012875D02*
X001300Y012875D01*
X001300Y012933D02*
X002007Y012933D01*
X001962Y012992D02*
X001300Y012992D01*
X001300Y013050D02*
X001884Y013050D01*
X001632Y013109D02*
X001300Y013109D01*
X001300Y013167D02*
X001573Y013167D01*
X001515Y013226D02*
X001300Y013226D01*
X001300Y013284D02*
X001456Y013284D01*
X001398Y013343D02*
X001300Y013343D01*
X001300Y013401D02*
X001360Y013401D01*
X001360Y013460D02*
X001300Y013460D01*
X001300Y013518D02*
X001360Y013518D01*
X001360Y013577D02*
X001253Y013577D01*
X001300Y013530D02*
X001200Y013630D01*
X001200Y013912D01*
X001295Y013912D01*
X001348Y013965D01*
X001348Y014395D01*
X001295Y014448D01*
X001200Y014448D01*
X001200Y019512D01*
X001295Y019512D01*
X001348Y019565D01*
X001348Y019995D01*
X001295Y020048D01*
X000865Y020048D01*
X000812Y019995D01*
X000812Y019565D01*
X000865Y019512D01*
X000960Y019512D01*
X000960Y014448D01*
X000865Y014448D01*
X000812Y014395D01*
X000812Y013965D01*
X000865Y013912D01*
X000960Y013912D01*
X000960Y013530D01*
X001030Y013460D01*
X001060Y013430D01*
X001060Y008830D01*
X000860Y008630D01*
X000860Y007930D01*
X000930Y007860D01*
X001060Y007730D01*
X001060Y007198D01*
X000965Y007198D01*
X000912Y007145D01*
X000912Y006715D01*
X000965Y006662D01*
X001395Y006662D01*
X001448Y006715D01*
X001448Y007145D01*
X001395Y007198D01*
X001300Y007198D01*
X001300Y007830D01*
X001118Y008012D01*
X001545Y008012D01*
X001560Y008027D01*
X001560Y006672D01*
X001554Y006672D01*
X001501Y006619D01*
X001501Y006072D01*
X001554Y006019D01*
X001560Y006019D01*
X001560Y005780D01*
X001612Y005728D01*
X001612Y005465D01*
X001665Y005412D01*
X002095Y005412D01*
X002148Y005465D01*
X002148Y005895D01*
X002095Y005948D01*
X001800Y005948D01*
X001800Y006019D01*
X001806Y006019D01*
X001859Y006072D01*
X001859Y006619D01*
X001806Y006672D01*
X001800Y006672D01*
X001800Y009284D01*
X001852Y009284D01*
X001877Y009310D01*
X002055Y009310D01*
X002055Y009137D01*
X002108Y009084D01*
X002110Y009084D01*
X002110Y008548D01*
X002015Y008548D01*
X001962Y008495D01*
X001962Y008065D01*
X002015Y008012D01*
X002445Y008012D01*
X002498Y008065D01*
X002498Y008495D01*
X002445Y008548D01*
X002350Y008548D01*
X002350Y009084D01*
X002352Y009084D01*
X002405Y009137D01*
X002405Y009322D01*
X002397Y009330D01*
X002405Y009338D01*
X002405Y009523D01*
X002352Y009576D01*
X002350Y009576D01*
X002350Y009912D01*
X002645Y009912D01*
X002698Y009965D01*
X002698Y010395D01*
X002645Y010448D01*
X002215Y010448D01*
X002162Y010395D01*
X002162Y010082D01*
X002110Y010030D01*
X002110Y009576D01*
X002108Y009576D01*
X002083Y009550D01*
X001905Y009550D01*
X001905Y009723D01*
X001900Y009727D01*
X001900Y009762D01*
X001995Y009762D01*
X002048Y009815D01*
X002048Y010245D01*
X001995Y010298D01*
X001900Y010298D01*
X001900Y010380D01*
X002031Y010511D01*
X002355Y010511D01*
X002408Y010564D01*
X002408Y010796D01*
X002355Y010849D01*
X002348Y010849D01*
X002368Y010854D01*
X002398Y010871D01*
X002422Y010895D01*
X002439Y010925D01*
X002448Y010958D01*
X002448Y011045D01*
X002189Y011045D01*
X002189Y010849D01*
X002171Y010849D01*
X002171Y011045D01*
X002189Y011045D01*
X002189Y011063D01*
X002448Y011063D01*
X002448Y011150D01*
X002439Y011183D01*
X002422Y011213D01*
X002398Y011237D01*
X002368Y011254D01*
X002348Y011259D01*
X002355Y011259D01*
X002408Y011312D01*
X002408Y011544D01*
X002355Y011597D01*
X002005Y011597D01*
X001958Y011550D01*
X001630Y011550D01*
X001300Y011220D01*
X001300Y013530D01*
X001360Y013635D02*
X001200Y013635D01*
X001200Y013694D02*
X001360Y013694D01*
X001360Y013752D02*
X001200Y013752D01*
X001200Y013811D02*
X001360Y013811D01*
X001360Y013869D02*
X001200Y013869D01*
X001311Y013928D02*
X001360Y013928D01*
X001360Y013986D02*
X001348Y013986D01*
X001348Y014045D02*
X001360Y014045D01*
X001360Y014103D02*
X001348Y014103D01*
X001348Y014162D02*
X001360Y014162D01*
X001360Y014220D02*
X001348Y014220D01*
X001348Y014279D02*
X001360Y014279D01*
X001360Y014337D02*
X001348Y014337D01*
X001348Y014396D02*
X001360Y014396D01*
X001360Y014454D02*
X001200Y014454D01*
X001200Y014513D02*
X001360Y014513D01*
X001360Y014571D02*
X001200Y014571D01*
X001200Y014630D02*
X001360Y014630D01*
X001360Y014688D02*
X001200Y014688D01*
X001200Y014747D02*
X001360Y014747D01*
X001360Y014805D02*
X001200Y014805D01*
X001200Y014864D02*
X001360Y014864D01*
X001360Y014922D02*
X001200Y014922D01*
X001200Y014981D02*
X001360Y014981D01*
X001360Y015039D02*
X001200Y015039D01*
X001200Y015098D02*
X001360Y015098D01*
X001360Y015156D02*
X001200Y015156D01*
X001200Y015215D02*
X001212Y015215D01*
X001212Y015273D02*
X001200Y015273D01*
X001200Y015332D02*
X001212Y015332D01*
X001212Y015390D02*
X001200Y015390D01*
X001200Y015449D02*
X001212Y015449D01*
X001212Y015507D02*
X001200Y015507D01*
X001200Y015566D02*
X001212Y015566D01*
X001212Y015624D02*
X001200Y015624D01*
X001200Y015683D02*
X001249Y015683D01*
X001200Y015741D02*
X001810Y015741D01*
X001810Y015683D02*
X001711Y015683D01*
X001748Y015624D02*
X001810Y015624D01*
X001810Y015566D02*
X001748Y015566D01*
X001748Y015507D02*
X001810Y015507D01*
X001810Y015449D02*
X001748Y015449D01*
X001748Y015390D02*
X001810Y015390D01*
X001810Y015332D02*
X001748Y015332D01*
X001748Y015273D02*
X001810Y015273D01*
X001810Y015215D02*
X001748Y015215D01*
X001810Y015156D02*
X001600Y015156D01*
X001600Y015098D02*
X001810Y015098D01*
X001706Y015039D02*
X001600Y015039D01*
X001600Y014981D02*
X001662Y014981D01*
X001662Y014922D02*
X001600Y014922D01*
X001600Y014864D02*
X001662Y014864D01*
X001662Y014805D02*
X001600Y014805D01*
X001600Y014747D02*
X001662Y014747D01*
X001662Y014688D02*
X001600Y014688D01*
X001600Y014630D02*
X001610Y014630D01*
X001480Y015430D02*
X001480Y013430D01*
X001180Y013480D02*
X001080Y013580D01*
X001080Y014180D01*
X001080Y019780D01*
X000960Y019485D02*
X000410Y019485D01*
X000410Y019427D02*
X000960Y019427D01*
X000960Y019368D02*
X000410Y019368D01*
X000410Y019310D02*
X000960Y019310D01*
X000960Y019251D02*
X000410Y019251D01*
X000410Y019193D02*
X000960Y019193D01*
X000960Y019134D02*
X000410Y019134D01*
X000410Y019076D02*
X000960Y019076D01*
X000960Y019017D02*
X000410Y019017D01*
X000410Y018959D02*
X000960Y018959D01*
X000960Y018900D02*
X000410Y018900D01*
X000410Y018842D02*
X000960Y018842D01*
X000960Y018783D02*
X000410Y018783D01*
X000410Y018725D02*
X000960Y018725D01*
X000960Y018666D02*
X000410Y018666D01*
X000410Y018608D02*
X000960Y018608D01*
X000960Y018549D02*
X000410Y018549D01*
X000410Y018491D02*
X000960Y018491D01*
X000960Y018432D02*
X000410Y018432D01*
X000410Y018374D02*
X000960Y018374D01*
X000960Y018315D02*
X000410Y018315D01*
X000410Y018257D02*
X000960Y018257D01*
X000960Y018198D02*
X000410Y018198D01*
X000410Y018140D02*
X000960Y018140D01*
X000960Y018081D02*
X000410Y018081D01*
X000410Y018023D02*
X000960Y018023D01*
X000960Y017964D02*
X000410Y017964D01*
X000410Y017906D02*
X000960Y017906D01*
X000960Y017847D02*
X000410Y017847D01*
X000410Y017789D02*
X000960Y017789D01*
X000960Y017730D02*
X000410Y017730D01*
X000410Y017672D02*
X000960Y017672D01*
X000960Y017613D02*
X000410Y017613D01*
X000410Y017555D02*
X000960Y017555D01*
X000960Y017496D02*
X000410Y017496D01*
X000410Y017438D02*
X000960Y017438D01*
X000960Y017379D02*
X000410Y017379D01*
X000410Y017321D02*
X000960Y017321D01*
X000960Y017262D02*
X000410Y017262D01*
X000410Y017204D02*
X000960Y017204D01*
X000960Y017145D02*
X000410Y017145D01*
X000410Y017087D02*
X000960Y017087D01*
X000960Y017028D02*
X000410Y017028D01*
X000410Y016970D02*
X000960Y016970D01*
X000960Y016911D02*
X000410Y016911D01*
X000410Y016853D02*
X000960Y016853D01*
X000960Y016794D02*
X000410Y016794D01*
X000410Y016736D02*
X000960Y016736D01*
X000960Y016677D02*
X000410Y016677D01*
X000410Y016619D02*
X000960Y016619D01*
X000960Y016560D02*
X000410Y016560D01*
X000410Y016502D02*
X000960Y016502D01*
X000960Y016443D02*
X000410Y016443D01*
X000410Y016385D02*
X000960Y016385D01*
X000960Y016326D02*
X000410Y016326D01*
X000410Y016268D02*
X000960Y016268D01*
X000960Y016209D02*
X000410Y016209D01*
X000410Y016151D02*
X000960Y016151D01*
X000960Y016092D02*
X000410Y016092D01*
X000410Y016034D02*
X000960Y016034D01*
X000960Y015975D02*
X000410Y015975D01*
X000410Y015917D02*
X000960Y015917D01*
X000960Y015858D02*
X000410Y015858D01*
X000410Y015800D02*
X000960Y015800D01*
X000960Y015741D02*
X000410Y015741D01*
X000410Y015683D02*
X000960Y015683D01*
X000960Y015624D02*
X000410Y015624D01*
X000410Y015566D02*
X000960Y015566D01*
X000960Y015507D02*
X000410Y015507D01*
X000410Y015449D02*
X000960Y015449D01*
X000960Y015390D02*
X000410Y015390D01*
X000410Y015332D02*
X000960Y015332D01*
X000960Y015273D02*
X000410Y015273D01*
X000410Y015215D02*
X000960Y015215D01*
X000960Y015156D02*
X000410Y015156D01*
X000410Y015098D02*
X000960Y015098D01*
X000960Y015039D02*
X000410Y015039D01*
X000410Y014981D02*
X000960Y014981D01*
X000960Y014922D02*
X000410Y014922D01*
X000410Y014864D02*
X000960Y014864D01*
X000960Y014805D02*
X000410Y014805D01*
X000410Y014747D02*
X000960Y014747D01*
X000960Y014688D02*
X000410Y014688D01*
X000410Y014630D02*
X000960Y014630D01*
X000960Y014571D02*
X000410Y014571D01*
X000410Y014513D02*
X000960Y014513D01*
X000960Y014454D02*
X000410Y014454D01*
X000410Y014396D02*
X000812Y014396D01*
X000812Y014337D02*
X000410Y014337D01*
X000410Y014279D02*
X000812Y014279D01*
X000812Y014220D02*
X000410Y014220D01*
X000410Y014162D02*
X000812Y014162D01*
X000812Y014103D02*
X000410Y014103D01*
X000410Y014045D02*
X000812Y014045D01*
X000812Y013986D02*
X000410Y013986D01*
X000410Y013928D02*
X000849Y013928D01*
X000960Y013869D02*
X000410Y013869D01*
X000410Y013811D02*
X000960Y013811D01*
X000960Y013752D02*
X000410Y013752D01*
X000410Y013694D02*
X000960Y013694D01*
X000960Y013635D02*
X000410Y013635D01*
X000410Y013577D02*
X000960Y013577D01*
X000972Y013518D02*
X000410Y013518D01*
X000410Y013460D02*
X001031Y013460D01*
X001060Y013401D02*
X000410Y013401D01*
X000410Y013343D02*
X001060Y013343D01*
X001060Y013284D02*
X000410Y013284D01*
X000410Y013226D02*
X001060Y013226D01*
X001060Y013167D02*
X000410Y013167D01*
X000410Y013109D02*
X001060Y013109D01*
X001060Y013050D02*
X000410Y013050D01*
X000410Y012992D02*
X001060Y012992D01*
X001060Y012933D02*
X000410Y012933D01*
X000410Y012875D02*
X001060Y012875D01*
X001060Y012816D02*
X000410Y012816D01*
X000410Y012758D02*
X001060Y012758D01*
X001060Y012699D02*
X000410Y012699D01*
X000410Y012641D02*
X001060Y012641D01*
X001060Y012582D02*
X000410Y012582D01*
X000410Y012524D02*
X001060Y012524D01*
X001060Y012465D02*
X000410Y012465D01*
X000410Y012407D02*
X001060Y012407D01*
X001060Y012348D02*
X000410Y012348D01*
X000410Y012290D02*
X001060Y012290D01*
X001060Y012231D02*
X000410Y012231D01*
X000410Y012173D02*
X001060Y012173D01*
X001060Y012114D02*
X000410Y012114D01*
X000410Y012056D02*
X001060Y012056D01*
X001060Y011997D02*
X000410Y011997D01*
X000410Y011939D02*
X001060Y011939D01*
X001060Y011880D02*
X000410Y011880D01*
X000410Y011822D02*
X001060Y011822D01*
X001060Y011763D02*
X000410Y011763D01*
X000410Y011705D02*
X001060Y011705D01*
X001060Y011646D02*
X000410Y011646D01*
X000410Y011588D02*
X001060Y011588D01*
X001060Y011529D02*
X000410Y011529D01*
X000410Y011471D02*
X001060Y011471D01*
X001060Y011412D02*
X000410Y011412D01*
X000410Y011354D02*
X001060Y011354D01*
X001060Y011295D02*
X000410Y011295D01*
X000410Y011237D02*
X001060Y011237D01*
X001060Y011178D02*
X000410Y011178D01*
X000410Y011120D02*
X001060Y011120D01*
X001060Y011061D02*
X000410Y011061D01*
X000410Y011003D02*
X001060Y011003D01*
X001060Y010944D02*
X000410Y010944D01*
X000410Y010886D02*
X001060Y010886D01*
X001060Y010827D02*
X000410Y010827D01*
X000410Y010769D02*
X001060Y010769D01*
X001060Y010710D02*
X000410Y010710D01*
X000410Y010652D02*
X001060Y010652D01*
X001060Y010593D02*
X000410Y010593D01*
X000410Y010535D02*
X001060Y010535D01*
X001060Y010476D02*
X000410Y010476D01*
X000410Y010418D02*
X001060Y010418D01*
X001060Y010359D02*
X000410Y010359D01*
X000410Y010301D02*
X001060Y010301D01*
X001060Y010242D02*
X000410Y010242D01*
X000410Y010184D02*
X001060Y010184D01*
X001060Y010125D02*
X000410Y010125D01*
X000410Y010067D02*
X001060Y010067D01*
X001060Y010008D02*
X000410Y010008D01*
X000410Y009950D02*
X001060Y009950D01*
X001060Y009891D02*
X000410Y009891D01*
X000410Y009833D02*
X001060Y009833D01*
X001060Y009774D02*
X000410Y009774D01*
X000410Y009716D02*
X001060Y009716D01*
X001060Y009657D02*
X000410Y009657D01*
X000410Y009599D02*
X001060Y009599D01*
X001060Y009540D02*
X000410Y009540D01*
X000410Y009482D02*
X001060Y009482D01*
X001060Y009423D02*
X000410Y009423D01*
X000410Y009365D02*
X001060Y009365D01*
X001060Y009306D02*
X000410Y009306D01*
X000410Y009248D02*
X001060Y009248D01*
X001060Y009189D02*
X000410Y009189D01*
X000410Y009131D02*
X001060Y009131D01*
X001060Y009072D02*
X000410Y009072D01*
X000410Y009014D02*
X001060Y009014D01*
X001060Y008955D02*
X000410Y008955D01*
X000410Y008897D02*
X001060Y008897D01*
X001060Y008838D02*
X000410Y008838D01*
X000410Y008780D02*
X001010Y008780D01*
X000951Y008721D02*
X000410Y008721D01*
X000410Y008663D02*
X000893Y008663D01*
X000860Y008604D02*
X000410Y008604D01*
X000410Y008546D02*
X000860Y008546D01*
X000860Y008487D02*
X000410Y008487D01*
X000410Y008429D02*
X000860Y008429D01*
X000860Y008370D02*
X000410Y008370D01*
X000410Y008312D02*
X000860Y008312D01*
X000860Y008253D02*
X000410Y008253D01*
X000410Y008195D02*
X000860Y008195D01*
X000860Y008136D02*
X000410Y008136D01*
X000410Y008078D02*
X000860Y008078D01*
X000860Y008019D02*
X000410Y008019D01*
X000410Y007961D02*
X000860Y007961D01*
X000888Y007902D02*
X000410Y007902D01*
X000410Y007844D02*
X000947Y007844D01*
X001005Y007785D02*
X000410Y007785D01*
X000410Y007727D02*
X001060Y007727D01*
X001060Y007668D02*
X000410Y007668D01*
X000410Y007610D02*
X001060Y007610D01*
X001060Y007551D02*
X000410Y007551D01*
X000410Y007493D02*
X001060Y007493D01*
X001060Y007434D02*
X000410Y007434D01*
X000410Y007376D02*
X001060Y007376D01*
X001060Y007317D02*
X000410Y007317D01*
X000410Y007259D02*
X001060Y007259D01*
X001060Y007200D02*
X000410Y007200D01*
X000410Y007142D02*
X000912Y007142D01*
X000912Y007083D02*
X000410Y007083D01*
X000410Y007025D02*
X000912Y007025D01*
X000912Y006966D02*
X000410Y006966D01*
X000410Y006908D02*
X000912Y006908D01*
X000912Y006849D02*
X000410Y006849D01*
X000410Y006791D02*
X000912Y006791D01*
X000912Y006732D02*
X000410Y006732D01*
X000410Y006674D02*
X000953Y006674D01*
X001180Y006930D02*
X001180Y007780D01*
X000980Y007980D01*
X000980Y008580D01*
X001180Y008780D01*
X001180Y013480D01*
X001300Y012114D02*
X001881Y012114D01*
X001862Y012056D02*
X001300Y012056D01*
X001300Y011997D02*
X001862Y011997D01*
X001862Y011939D02*
X001300Y011939D01*
X001300Y011880D02*
X001862Y011880D01*
X001862Y011822D02*
X001300Y011822D01*
X001300Y011763D02*
X001862Y011763D01*
X001862Y011705D02*
X001300Y011705D01*
X001300Y011646D02*
X001880Y011646D01*
X001996Y011588D02*
X001300Y011588D01*
X001300Y011529D02*
X001609Y011529D01*
X001551Y011471D02*
X001300Y011471D01*
X001300Y011412D02*
X001492Y011412D01*
X001434Y011354D02*
X001300Y011354D01*
X001300Y011295D02*
X001375Y011295D01*
X001317Y011237D02*
X001300Y011237D01*
X001330Y011080D02*
X001330Y008280D01*
X001450Y008548D02*
X001450Y011030D01*
X001730Y011310D01*
X001954Y011310D01*
X002005Y011259D01*
X002012Y011259D01*
X001992Y011254D01*
X001962Y011237D01*
X001938Y011213D01*
X001921Y011183D01*
X001912Y011150D01*
X001912Y011063D01*
X002171Y011063D01*
X002171Y011045D01*
X001912Y011045D01*
X001912Y010958D01*
X001921Y010925D01*
X001938Y010895D01*
X001962Y010871D01*
X001992Y010854D01*
X002012Y010849D01*
X002005Y010849D01*
X001952Y010796D01*
X001952Y010772D01*
X001730Y010550D01*
X001660Y010480D01*
X001660Y010298D01*
X001565Y010298D01*
X001512Y010245D01*
X001512Y009815D01*
X001565Y009762D01*
X001594Y009762D01*
X001555Y009723D01*
X001555Y009538D01*
X001563Y009530D01*
X001555Y009522D01*
X001555Y009337D01*
X001560Y009333D01*
X001560Y008533D01*
X001545Y008548D01*
X001450Y008548D01*
X001450Y008604D02*
X001560Y008604D01*
X001560Y008546D02*
X001548Y008546D01*
X001560Y008663D02*
X001450Y008663D01*
X001450Y008721D02*
X001560Y008721D01*
X001560Y008780D02*
X001450Y008780D01*
X001450Y008838D02*
X001560Y008838D01*
X001560Y008897D02*
X001450Y008897D01*
X001450Y008955D02*
X001560Y008955D01*
X001560Y009014D02*
X001450Y009014D01*
X001450Y009072D02*
X001560Y009072D01*
X001560Y009131D02*
X001450Y009131D01*
X001450Y009189D02*
X001560Y009189D01*
X001560Y009248D02*
X001450Y009248D01*
X001450Y009306D02*
X001560Y009306D01*
X001555Y009365D02*
X001450Y009365D01*
X001450Y009423D02*
X001555Y009423D01*
X001555Y009482D02*
X001450Y009482D01*
X001450Y009540D02*
X001555Y009540D01*
X001555Y009599D02*
X001450Y009599D01*
X001450Y009657D02*
X001555Y009657D01*
X001555Y009716D02*
X001450Y009716D01*
X001450Y009774D02*
X001552Y009774D01*
X001512Y009833D02*
X001450Y009833D01*
X001450Y009891D02*
X001512Y009891D01*
X001512Y009950D02*
X001450Y009950D01*
X001450Y010008D02*
X001512Y010008D01*
X001512Y010067D02*
X001450Y010067D01*
X001450Y010125D02*
X001512Y010125D01*
X001512Y010184D02*
X001450Y010184D01*
X001450Y010242D02*
X001512Y010242D01*
X001450Y010301D02*
X001660Y010301D01*
X001660Y010359D02*
X001450Y010359D01*
X001450Y010418D02*
X001660Y010418D01*
X001660Y010476D02*
X001450Y010476D01*
X001450Y010535D02*
X001715Y010535D01*
X001730Y010550D02*
X001730Y010550D01*
X001773Y010593D02*
X001450Y010593D01*
X001450Y010652D02*
X001832Y010652D01*
X001890Y010710D02*
X001450Y010710D01*
X001450Y010769D02*
X001949Y010769D01*
X001983Y010827D02*
X001450Y010827D01*
X001450Y010886D02*
X001948Y010886D01*
X001916Y010944D02*
X001450Y010944D01*
X001450Y011003D02*
X001912Y011003D01*
X001912Y011120D02*
X001539Y011120D01*
X001598Y011178D02*
X001920Y011178D01*
X001962Y011237D02*
X001656Y011237D01*
X001715Y011295D02*
X001969Y011295D01*
X002178Y011430D02*
X001680Y011430D01*
X001330Y011080D01*
X001481Y011061D02*
X002171Y011061D01*
X002171Y011063D02*
X002171Y011259D01*
X002189Y011259D01*
X002189Y011063D01*
X002171Y011063D01*
X002189Y011061D02*
X002610Y011061D01*
X002610Y011003D02*
X002448Y011003D01*
X002444Y010944D02*
X002610Y010944D01*
X002610Y010886D02*
X002412Y010886D01*
X002377Y010827D02*
X002613Y010827D01*
X002672Y010769D02*
X002408Y010769D01*
X002408Y010710D02*
X002730Y010710D01*
X002789Y010652D02*
X002408Y010652D01*
X002408Y010593D02*
X002847Y010593D01*
X002927Y010535D02*
X002378Y010535D01*
X002184Y010418D02*
X001937Y010418D01*
X001900Y010359D02*
X002162Y010359D01*
X002162Y010301D02*
X001900Y010301D01*
X002048Y010242D02*
X002162Y010242D01*
X002162Y010184D02*
X002048Y010184D01*
X002048Y010125D02*
X002162Y010125D01*
X002147Y010067D02*
X002048Y010067D01*
X002048Y010008D02*
X002110Y010008D01*
X002110Y009950D02*
X002048Y009950D01*
X002048Y009891D02*
X002110Y009891D01*
X002110Y009833D02*
X002048Y009833D01*
X002008Y009774D02*
X002110Y009774D01*
X002110Y009716D02*
X001905Y009716D01*
X001905Y009657D02*
X002110Y009657D01*
X002110Y009599D02*
X001905Y009599D01*
X001780Y009680D02*
X001730Y009630D01*
X001780Y009680D02*
X001780Y010030D01*
X001780Y010430D01*
X002030Y010680D01*
X002180Y010680D01*
X002171Y010886D02*
X002189Y010886D01*
X002189Y010944D02*
X002171Y010944D01*
X002171Y011003D02*
X002189Y011003D01*
X002189Y011120D02*
X002171Y011120D01*
X002171Y011178D02*
X002189Y011178D01*
X002189Y011237D02*
X002171Y011237D01*
X002180Y011428D02*
X002178Y011430D01*
X002364Y011588D02*
X002610Y011588D01*
X002610Y011646D02*
X002380Y011646D01*
X002398Y011705D02*
X002610Y011705D01*
X002610Y011763D02*
X002398Y011763D01*
X002398Y011939D02*
X002552Y011939D01*
X002493Y011997D02*
X002398Y011997D01*
X002398Y012056D02*
X002435Y012056D01*
X002380Y012280D02*
X002380Y013780D01*
X002530Y013930D01*
X002530Y014430D01*
X002930Y014830D01*
X002930Y015519D01*
X002942Y015530D01*
X002930Y015519D02*
X002880Y015469D01*
X002810Y015039D02*
X002154Y015039D01*
X002198Y014981D02*
X002810Y014981D01*
X002810Y014922D02*
X002198Y014922D01*
X002198Y014864D02*
X002794Y014864D01*
X002735Y014805D02*
X002198Y014805D01*
X002198Y014747D02*
X002677Y014747D01*
X002618Y014688D02*
X002198Y014688D01*
X002198Y014630D02*
X002560Y014630D01*
X002501Y014571D02*
X002198Y014571D01*
X002146Y014513D02*
X002443Y014513D01*
X002650Y014337D02*
X002812Y014337D01*
X002812Y014395D02*
X002812Y014082D01*
X002760Y014030D01*
X002760Y013864D01*
X002675Y013864D01*
X002622Y013812D01*
X002622Y013612D01*
X002608Y013598D01*
X002591Y013569D01*
X002582Y013536D01*
X002582Y013447D01*
X002819Y013447D01*
X002819Y013425D01*
X002582Y013425D01*
X002582Y013336D01*
X002591Y013303D01*
X002608Y013273D01*
X002622Y013259D01*
X002622Y013060D01*
X002675Y013007D01*
X002710Y013007D01*
X002710Y012580D01*
X002712Y012578D01*
X002712Y012265D01*
X002765Y012212D01*
X003195Y012212D01*
X003248Y012265D01*
X003248Y012695D01*
X003195Y012748D01*
X002950Y012748D01*
X002950Y013007D01*
X002985Y013007D01*
X003038Y013060D01*
X003038Y013259D01*
X003052Y013273D01*
X003069Y013303D01*
X003078Y013336D01*
X003078Y013425D01*
X002841Y013425D01*
X002841Y013447D01*
X003078Y013447D01*
X003078Y013536D01*
X003069Y013569D01*
X003052Y013598D01*
X003038Y013612D01*
X003038Y013812D01*
X003000Y013850D01*
X003000Y013912D01*
X003295Y013912D01*
X003348Y013965D01*
X003348Y014395D01*
X003295Y014448D01*
X002865Y014448D01*
X002812Y014395D01*
X002812Y014396D02*
X002665Y014396D01*
X002724Y014454D02*
X003536Y014454D01*
X003595Y014396D02*
X003348Y014396D01*
X003348Y014337D02*
X003610Y014337D01*
X003610Y014279D02*
X003348Y014279D01*
X003348Y014220D02*
X003610Y014220D01*
X003610Y014162D02*
X003348Y014162D01*
X003348Y014103D02*
X003610Y014103D01*
X003610Y014045D02*
X003348Y014045D01*
X003348Y013986D02*
X003503Y013986D01*
X003462Y013928D02*
X003311Y013928D01*
X003462Y013869D02*
X003000Y013869D01*
X003038Y013811D02*
X003462Y013811D01*
X003462Y013752D02*
X003038Y013752D01*
X003038Y013694D02*
X003462Y013694D01*
X003462Y013635D02*
X003038Y013635D01*
X003065Y013577D02*
X003462Y013577D01*
X003462Y013518D02*
X003078Y013518D01*
X003078Y013460D02*
X003610Y013460D01*
X003639Y013401D02*
X003078Y013401D01*
X003078Y013343D02*
X003698Y013343D01*
X003756Y013284D02*
X003058Y013284D01*
X003038Y013226D02*
X003815Y013226D01*
X003873Y013167D02*
X003038Y013167D01*
X003038Y013109D02*
X003932Y013109D01*
X003990Y013050D02*
X003028Y013050D01*
X002950Y012992D02*
X004049Y012992D01*
X004107Y012933D02*
X002950Y012933D01*
X002950Y012875D02*
X004110Y012875D01*
X004110Y012816D02*
X003927Y012816D01*
X003948Y012795D02*
X003895Y012848D01*
X003465Y012848D01*
X003412Y012795D01*
X003412Y012365D01*
X003465Y012312D01*
X003560Y012312D01*
X003560Y011730D01*
X003448Y011618D01*
X003448Y012045D01*
X003395Y012098D01*
X002965Y012098D01*
X002912Y012045D01*
X002912Y011615D01*
X002940Y011587D01*
X002897Y011544D01*
X002897Y011312D01*
X002950Y011259D01*
X003300Y011259D01*
X003310Y011269D01*
X003310Y011213D01*
X003300Y011223D01*
X002950Y011223D01*
X002897Y011170D01*
X002897Y010938D01*
X002950Y010885D01*
X003300Y010885D01*
X003349Y010934D01*
X003404Y010934D01*
X003480Y011010D01*
X003541Y011071D01*
X003585Y011071D01*
X003599Y011057D01*
X003629Y011040D01*
X003662Y011031D01*
X003728Y011031D01*
X003728Y011230D01*
X003728Y011429D01*
X003662Y011429D01*
X003629Y011420D01*
X003599Y011403D01*
X003585Y011389D01*
X003559Y011389D01*
X003730Y011560D01*
X003800Y011630D01*
X003800Y012312D01*
X003895Y012312D01*
X003948Y012365D01*
X003948Y012795D01*
X003948Y012758D02*
X004110Y012758D01*
X004110Y012699D02*
X003948Y012699D01*
X003948Y012641D02*
X004110Y012641D01*
X004110Y012582D02*
X003948Y012582D01*
X003948Y012524D02*
X004110Y012524D01*
X004110Y012465D02*
X003948Y012465D01*
X003948Y012407D02*
X004110Y012407D01*
X004110Y012348D02*
X003932Y012348D01*
X003800Y012290D02*
X004110Y012290D01*
X004110Y012231D02*
X003800Y012231D01*
X003800Y012173D02*
X004110Y012173D01*
X004110Y012114D02*
X003800Y012114D01*
X003800Y012056D02*
X003972Y012056D01*
X003962Y011997D02*
X003800Y011997D01*
X003800Y011939D02*
X003962Y011939D01*
X003962Y011880D02*
X003800Y011880D01*
X003800Y011822D02*
X003962Y011822D01*
X003962Y011763D02*
X003800Y011763D01*
X003800Y011705D02*
X003962Y011705D01*
X003962Y011646D02*
X003800Y011646D01*
X003757Y011588D02*
X003989Y011588D01*
X004110Y011529D02*
X003699Y011529D01*
X003640Y011471D02*
X004110Y011471D01*
X004110Y011412D02*
X003842Y011412D01*
X003828Y011420D02*
X003795Y011429D01*
X003728Y011429D01*
X003728Y011230D01*
X003728Y011230D01*
X003728Y011230D01*
X003728Y011031D01*
X003795Y011031D01*
X003828Y011040D01*
X003857Y011057D01*
X003882Y011081D01*
X003899Y011111D01*
X003908Y011144D01*
X003908Y011230D01*
X003908Y011316D01*
X003899Y011349D01*
X003882Y011379D01*
X003857Y011403D01*
X003828Y011420D01*
X003896Y011354D02*
X004110Y011354D01*
X004110Y011295D02*
X003908Y011295D01*
X003908Y011237D02*
X004110Y011237D01*
X004110Y011178D02*
X003908Y011178D01*
X003908Y011230D02*
X003728Y011230D01*
X003908Y011230D01*
X003901Y011120D02*
X004110Y011120D01*
X004110Y011061D02*
X003861Y011061D01*
X003728Y011061D02*
X003728Y011061D01*
X003728Y011120D02*
X003728Y011120D01*
X003728Y011178D02*
X003728Y011178D01*
X003728Y011230D02*
X003728Y011230D01*
X003728Y011237D02*
X003728Y011237D01*
X003728Y011295D02*
X003728Y011295D01*
X003728Y011354D02*
X003728Y011354D01*
X003728Y011412D02*
X003728Y011412D01*
X003615Y011412D02*
X003582Y011412D01*
X003430Y011430D02*
X003680Y011680D01*
X003680Y012580D01*
X003560Y012290D02*
X003248Y012290D01*
X003248Y012348D02*
X003428Y012348D01*
X003412Y012407D02*
X003248Y012407D01*
X003248Y012465D02*
X003412Y012465D01*
X003412Y012524D02*
X003248Y012524D01*
X003248Y012582D02*
X003412Y012582D01*
X003412Y012641D02*
X003248Y012641D01*
X003244Y012699D02*
X003412Y012699D01*
X003412Y012758D02*
X002950Y012758D01*
X002950Y012816D02*
X003433Y012816D01*
X003560Y012231D02*
X003215Y012231D01*
X003180Y011830D02*
X003180Y011483D01*
X003125Y011428D01*
X003099Y011080D02*
X003125Y011054D01*
X003354Y011054D01*
X003430Y011130D01*
X003430Y011230D01*
X003532Y011230D01*
X003430Y011230D02*
X003430Y011430D01*
X003448Y011646D02*
X003476Y011646D01*
X003448Y011705D02*
X003535Y011705D01*
X003560Y011763D02*
X003448Y011763D01*
X003448Y011822D02*
X003560Y011822D01*
X003560Y011880D02*
X003448Y011880D01*
X003448Y011939D02*
X003560Y011939D01*
X003560Y011997D02*
X003448Y011997D01*
X003438Y012056D02*
X003560Y012056D01*
X003560Y012114D02*
X002716Y012114D01*
X002774Y012056D02*
X002922Y012056D01*
X002912Y011997D02*
X002833Y011997D01*
X002850Y011939D02*
X002912Y011939D01*
X002912Y011880D02*
X002850Y011880D01*
X002850Y011822D02*
X002912Y011822D01*
X002912Y011763D02*
X002850Y011763D01*
X002850Y011705D02*
X002912Y011705D01*
X002912Y011646D02*
X002850Y011646D01*
X002850Y011588D02*
X002939Y011588D01*
X002897Y011529D02*
X002850Y011529D01*
X002850Y011471D02*
X002897Y011471D01*
X002897Y011412D02*
X002850Y011412D01*
X002850Y011354D02*
X002897Y011354D01*
X002914Y011295D02*
X002850Y011295D01*
X002850Y011237D02*
X003310Y011237D01*
X003414Y010944D02*
X004110Y010944D01*
X004110Y010886D02*
X003300Y010886D01*
X003322Y010827D02*
X004110Y010827D01*
X004110Y010769D02*
X003353Y010769D01*
X003353Y010710D02*
X004110Y010710D01*
X004110Y010652D02*
X003353Y010652D01*
X003353Y010593D02*
X004010Y010593D01*
X003962Y010535D02*
X003323Y010535D01*
X003125Y010680D02*
X002930Y010680D01*
X002730Y010880D01*
X002730Y011930D01*
X002380Y012280D01*
X002500Y012348D02*
X002712Y012348D01*
X002712Y012290D02*
X002540Y012290D01*
X002599Y012231D02*
X002745Y012231D01*
X002657Y012173D02*
X003560Y012173D01*
X003531Y011061D02*
X003595Y011061D01*
X003472Y011003D02*
X004110Y011003D01*
X004350Y011003D02*
X004460Y011003D01*
X004460Y011061D02*
X004350Y011061D01*
X004350Y011120D02*
X004460Y011120D01*
X004460Y011178D02*
X004350Y011178D01*
X004350Y011237D02*
X004460Y011237D01*
X004460Y011295D02*
X004350Y011295D01*
X004350Y011354D02*
X004460Y011354D01*
X004460Y011412D02*
X004350Y011412D01*
X004350Y011471D02*
X004460Y011471D01*
X004460Y011529D02*
X004350Y011529D01*
X004230Y011830D02*
X004230Y012980D01*
X003730Y013480D01*
X003730Y013730D01*
X003730Y014430D01*
X003380Y014780D01*
X003648Y014805D02*
X004060Y014805D01*
X004060Y014747D02*
X003648Y014747D01*
X003648Y014688D02*
X004060Y014688D01*
X004060Y014630D02*
X003700Y014630D01*
X003759Y014571D02*
X004060Y014571D01*
X004060Y014513D02*
X003817Y014513D01*
X003850Y014454D02*
X004060Y014454D01*
X004060Y014396D02*
X003850Y014396D01*
X003850Y014337D02*
X004060Y014337D01*
X004060Y014279D02*
X003850Y014279D01*
X003850Y014220D02*
X004060Y014220D01*
X004060Y014162D02*
X003850Y014162D01*
X003850Y014103D02*
X004060Y014103D01*
X004060Y014045D02*
X003850Y014045D01*
X003957Y013986D02*
X004060Y013986D01*
X004060Y013928D02*
X003998Y013928D01*
X003998Y013869D02*
X004060Y013869D01*
X004060Y013811D02*
X003998Y013811D01*
X003998Y013752D02*
X004060Y013752D01*
X004060Y013694D02*
X003998Y013694D01*
X003998Y013635D02*
X004060Y013635D01*
X004060Y013577D02*
X003998Y013577D01*
X003998Y013518D02*
X004060Y013518D01*
X004060Y013460D02*
X003920Y013460D01*
X003979Y013401D02*
X004060Y013401D01*
X004060Y013343D02*
X004037Y013343D01*
X004300Y013928D02*
X004795Y013928D01*
X004795Y013986D02*
X004300Y013986D01*
X004300Y014045D02*
X004795Y014045D01*
X004795Y014103D02*
X004300Y014103D01*
X004300Y014162D02*
X004848Y014162D01*
X004771Y014337D02*
X006810Y014337D01*
X006810Y014279D02*
X004300Y014279D01*
X004300Y014220D02*
X006810Y014220D01*
X006810Y014162D02*
X006399Y014162D01*
X006451Y014103D02*
X006810Y014103D01*
X006810Y014045D02*
X006451Y014045D01*
X006451Y013986D02*
X006810Y013986D01*
X006810Y013928D02*
X006451Y013928D01*
X006451Y013869D02*
X006810Y013869D01*
X006810Y013811D02*
X006405Y013811D01*
X006469Y013752D02*
X006810Y013752D01*
X006810Y013694D02*
X006491Y013694D01*
X006491Y013635D02*
X006810Y013635D01*
X006810Y013577D02*
X006294Y013577D01*
X006491Y013518D02*
X006810Y013518D01*
X006810Y013460D02*
X006485Y013460D01*
X006446Y013401D02*
X006810Y013401D01*
X006810Y013343D02*
X006431Y013343D01*
X006451Y013284D02*
X006810Y013284D01*
X006810Y013226D02*
X006451Y013226D01*
X006451Y013167D02*
X006810Y013167D01*
X006810Y013109D02*
X006451Y013109D01*
X006432Y013050D02*
X006810Y013050D01*
X006810Y012992D02*
X006452Y012992D01*
X006498Y012933D02*
X006810Y012933D01*
X006810Y012875D02*
X006498Y012875D01*
X006498Y012816D02*
X006810Y012816D01*
X006810Y012758D02*
X006498Y012758D01*
X006498Y012699D02*
X006810Y012699D01*
X006810Y012641D02*
X006498Y012641D01*
X006498Y012582D02*
X006810Y012582D01*
X006810Y012524D02*
X006498Y012524D01*
X006449Y012465D02*
X006810Y012465D01*
X006810Y012407D02*
X004550Y012407D01*
X005030Y011830D02*
X004830Y011630D01*
X004830Y011030D01*
X004930Y010930D01*
X005068Y010930D01*
X005108Y010889D01*
X004906Y010359D02*
X004498Y010359D01*
X004498Y010301D02*
X005060Y010301D01*
X005060Y010242D02*
X004498Y010242D01*
X004498Y010184D02*
X005060Y010184D01*
X005060Y010125D02*
X004498Y010125D01*
X004450Y010067D02*
X005060Y010067D01*
X005060Y010008D02*
X002698Y010008D01*
X002698Y010067D02*
X004010Y010067D01*
X003962Y010125D02*
X002698Y010125D01*
X002698Y010184D02*
X003962Y010184D01*
X003962Y010242D02*
X002698Y010242D01*
X002698Y010301D02*
X003962Y010301D01*
X003962Y010359D02*
X002698Y010359D01*
X002676Y010418D02*
X003962Y010418D01*
X003962Y010476D02*
X001996Y010476D01*
X002430Y010180D02*
X002230Y009980D01*
X002230Y009430D01*
X002230Y009430D01*
X001730Y009430D01*
X001730Y009430D01*
X001680Y009380D01*
X001680Y006345D01*
X001680Y005830D01*
X001830Y005680D01*
X001880Y005680D01*
X001800Y005972D02*
X004060Y005972D01*
X004060Y005948D02*
X003865Y005948D01*
X003812Y005895D01*
X003812Y005465D01*
X003865Y005412D01*
X004295Y005412D01*
X004348Y005465D01*
X004348Y005895D01*
X004300Y005943D01*
X004300Y006019D01*
X004306Y006019D01*
X004359Y006072D01*
X004359Y006619D01*
X004306Y006672D01*
X004054Y006672D01*
X004001Y006619D01*
X004001Y006072D01*
X004054Y006019D01*
X004060Y006019D01*
X004060Y005948D01*
X004043Y006030D02*
X003317Y006030D01*
X003306Y006019D02*
X003359Y006072D01*
X003359Y006619D01*
X003316Y006662D01*
X003395Y006662D01*
X003448Y006715D01*
X003448Y007145D01*
X003395Y007198D01*
X002965Y007198D01*
X002912Y007145D01*
X002912Y006715D01*
X002965Y006662D01*
X003044Y006662D01*
X003001Y006619D01*
X003001Y006072D01*
X003054Y006019D01*
X003306Y006019D01*
X003359Y006089D02*
X004001Y006089D01*
X004001Y006147D02*
X003359Y006147D01*
X003359Y006206D02*
X004001Y006206D01*
X004001Y006264D02*
X003359Y006264D01*
X003359Y006323D02*
X004001Y006323D01*
X004001Y006381D02*
X003359Y006381D01*
X003359Y006440D02*
X004001Y006440D01*
X004001Y006498D02*
X003359Y006498D01*
X003359Y006557D02*
X004001Y006557D01*
X004001Y006615D02*
X003359Y006615D01*
X003407Y006674D02*
X004500Y006674D01*
X004512Y006686D02*
X004487Y006661D01*
X004470Y006632D01*
X004461Y006599D01*
X004461Y006360D01*
X004666Y006360D01*
X004666Y006712D01*
X004574Y006712D01*
X004541Y006703D01*
X004512Y006686D01*
X004466Y006615D02*
X004359Y006615D01*
X004359Y006557D02*
X004461Y006557D01*
X004461Y006498D02*
X004359Y006498D01*
X004359Y006440D02*
X004461Y006440D01*
X004461Y006381D02*
X004359Y006381D01*
X004359Y006323D02*
X004461Y006323D01*
X004461Y006331D02*
X004461Y006092D01*
X004470Y006059D01*
X004487Y006029D01*
X004512Y006005D01*
X004541Y005988D01*
X004574Y005979D01*
X004666Y005979D01*
X004666Y006331D01*
X004694Y006331D01*
X004694Y005979D01*
X004786Y005979D01*
X004819Y005988D01*
X004848Y006005D01*
X004873Y006029D01*
X004890Y006059D01*
X004899Y006092D01*
X004899Y006331D01*
X004694Y006331D01*
X004694Y006360D01*
X004666Y006360D01*
X004666Y006331D01*
X004461Y006331D01*
X004461Y006264D02*
X004359Y006264D01*
X004359Y006206D02*
X004461Y006206D01*
X004461Y006147D02*
X004359Y006147D01*
X004359Y006089D02*
X004462Y006089D01*
X004487Y006030D02*
X004317Y006030D01*
X004300Y005972D02*
X006710Y005972D01*
X006710Y005913D02*
X004330Y005913D01*
X004348Y005855D02*
X006710Y005855D01*
X006710Y005796D02*
X004348Y005796D01*
X004348Y005738D02*
X006710Y005738D01*
X006710Y005679D02*
X004348Y005679D01*
X004348Y005621D02*
X006710Y005621D01*
X006710Y005562D02*
X004348Y005562D01*
X004348Y005504D02*
X006710Y005504D01*
X006710Y005445D02*
X004329Y005445D01*
X004080Y005680D02*
X004180Y005780D01*
X004180Y006345D01*
X003830Y005913D02*
X002130Y005913D01*
X002148Y005855D02*
X003812Y005855D01*
X003812Y005796D02*
X002148Y005796D01*
X002148Y005738D02*
X003812Y005738D01*
X003812Y005679D02*
X002148Y005679D01*
X002148Y005621D02*
X003812Y005621D01*
X003812Y005562D02*
X002148Y005562D01*
X002148Y005504D02*
X003812Y005504D01*
X003831Y005445D02*
X002129Y005445D01*
X002166Y005979D02*
X002166Y006331D01*
X002194Y006331D01*
X002194Y005979D01*
X002286Y005979D01*
X002319Y005988D01*
X002348Y006005D01*
X002373Y006029D01*
X002390Y006059D01*
X002399Y006092D01*
X002399Y006331D01*
X002194Y006331D01*
X002194Y006360D01*
X002166Y006360D01*
X002166Y006712D01*
X002074Y006712D01*
X002041Y006703D01*
X002012Y006686D01*
X001987Y006661D01*
X001970Y006632D01*
X001961Y006599D01*
X001961Y006360D01*
X002166Y006360D01*
X002166Y006331D01*
X001961Y006331D01*
X001961Y006092D01*
X001970Y006059D01*
X001987Y006029D01*
X002012Y006005D01*
X002041Y005988D01*
X002074Y005979D01*
X002166Y005979D01*
X002166Y006030D02*
X002194Y006030D01*
X002194Y006089D02*
X002166Y006089D01*
X002166Y006147D02*
X002194Y006147D01*
X002194Y006206D02*
X002166Y006206D01*
X002166Y006264D02*
X002194Y006264D01*
X002194Y006323D02*
X002166Y006323D01*
X002194Y006360D02*
X002399Y006360D01*
X002399Y006599D01*
X002390Y006632D01*
X002373Y006661D01*
X002348Y006686D01*
X002319Y006703D01*
X002286Y006712D01*
X002194Y006712D01*
X002194Y006360D01*
X002194Y006381D02*
X002166Y006381D01*
X002166Y006440D02*
X002194Y006440D01*
X002194Y006498D02*
X002166Y006498D01*
X002166Y006557D02*
X002194Y006557D01*
X002194Y006615D02*
X002166Y006615D01*
X002166Y006674D02*
X002194Y006674D01*
X002360Y006674D02*
X002510Y006674D01*
X002510Y006627D02*
X002501Y006619D01*
X002501Y006072D01*
X002554Y006019D01*
X002806Y006019D01*
X002859Y006072D01*
X002859Y006619D01*
X002806Y006672D01*
X002750Y006672D01*
X002750Y007412D01*
X002845Y007412D01*
X002898Y007465D01*
X002898Y007895D01*
X002845Y007948D01*
X002415Y007948D01*
X002362Y007895D01*
X002362Y007465D01*
X002415Y007412D01*
X002510Y007412D01*
X002510Y006627D01*
X002501Y006615D02*
X002394Y006615D01*
X002399Y006557D02*
X002501Y006557D01*
X002501Y006498D02*
X002399Y006498D01*
X002399Y006440D02*
X002501Y006440D01*
X002501Y006381D02*
X002399Y006381D01*
X002399Y006323D02*
X002501Y006323D01*
X002501Y006264D02*
X002399Y006264D01*
X002399Y006206D02*
X002501Y006206D01*
X002501Y006147D02*
X002399Y006147D01*
X002398Y006089D02*
X002501Y006089D01*
X002543Y006030D02*
X002373Y006030D01*
X002680Y006345D02*
X002630Y006395D01*
X002630Y007680D01*
X002498Y008078D02*
X005060Y008078D01*
X005060Y008136D02*
X002498Y008136D01*
X002498Y008195D02*
X005060Y008195D01*
X005060Y008253D02*
X002498Y008253D01*
X002498Y008312D02*
X005060Y008312D01*
X005060Y008370D02*
X002498Y008370D01*
X002498Y008429D02*
X005060Y008429D01*
X005060Y008487D02*
X002498Y008487D01*
X002448Y008546D02*
X005060Y008546D01*
X005060Y008604D02*
X002350Y008604D01*
X002350Y008663D02*
X005060Y008663D01*
X005060Y008721D02*
X002350Y008721D01*
X002350Y008780D02*
X005060Y008780D01*
X005060Y008838D02*
X002350Y008838D01*
X002350Y008897D02*
X005060Y008897D01*
X005060Y008955D02*
X002350Y008955D01*
X002350Y009014D02*
X005060Y009014D01*
X005060Y009072D02*
X002350Y009072D01*
X002398Y009131D02*
X005060Y009131D01*
X005060Y009189D02*
X002405Y009189D01*
X002405Y009248D02*
X005060Y009248D01*
X005060Y009306D02*
X002405Y009306D01*
X002405Y009365D02*
X005060Y009365D01*
X005060Y009423D02*
X002405Y009423D01*
X002405Y009482D02*
X005060Y009482D01*
X005060Y009540D02*
X002387Y009540D01*
X002350Y009599D02*
X005060Y009599D01*
X005060Y009657D02*
X002350Y009657D01*
X002350Y009716D02*
X005060Y009716D01*
X005060Y009774D02*
X002350Y009774D01*
X002350Y009833D02*
X005060Y009833D01*
X005060Y009891D02*
X002350Y009891D01*
X002230Y009230D02*
X002230Y008280D01*
X002110Y008604D02*
X001800Y008604D01*
X001800Y008546D02*
X002012Y008546D01*
X001962Y008487D02*
X001800Y008487D01*
X001800Y008429D02*
X001962Y008429D01*
X001962Y008370D02*
X001800Y008370D01*
X001800Y008312D02*
X001962Y008312D01*
X001962Y008253D02*
X001800Y008253D01*
X001800Y008195D02*
X001962Y008195D01*
X001962Y008136D02*
X001800Y008136D01*
X001800Y008078D02*
X001962Y008078D01*
X002007Y008019D02*
X001800Y008019D01*
X001800Y007961D02*
X005060Y007961D01*
X005060Y008019D02*
X002453Y008019D01*
X002369Y007902D02*
X001800Y007902D01*
X001800Y007844D02*
X002362Y007844D01*
X002362Y007785D02*
X001800Y007785D01*
X001800Y007727D02*
X002362Y007727D01*
X002362Y007668D02*
X001800Y007668D01*
X001800Y007610D02*
X002362Y007610D01*
X002362Y007551D02*
X001800Y007551D01*
X001800Y007493D02*
X002362Y007493D01*
X002392Y007434D02*
X001800Y007434D01*
X001800Y007376D02*
X002510Y007376D01*
X002510Y007317D02*
X001800Y007317D01*
X001800Y007259D02*
X002510Y007259D01*
X002510Y007200D02*
X001800Y007200D01*
X001800Y007142D02*
X002510Y007142D01*
X002510Y007083D02*
X001800Y007083D01*
X001800Y007025D02*
X002510Y007025D01*
X002510Y006966D02*
X001800Y006966D01*
X001800Y006908D02*
X002510Y006908D01*
X002510Y006849D02*
X001800Y006849D01*
X001800Y006791D02*
X002510Y006791D01*
X002510Y006732D02*
X001800Y006732D01*
X001800Y006674D02*
X002000Y006674D01*
X001966Y006615D02*
X001859Y006615D01*
X001859Y006557D02*
X001961Y006557D01*
X001961Y006498D02*
X001859Y006498D01*
X001859Y006440D02*
X001961Y006440D01*
X001961Y006381D02*
X001859Y006381D01*
X001859Y006323D02*
X001961Y006323D01*
X001961Y006264D02*
X001859Y006264D01*
X001859Y006206D02*
X001961Y006206D01*
X001961Y006147D02*
X001859Y006147D01*
X001859Y006089D02*
X001962Y006089D01*
X001987Y006030D02*
X001817Y006030D01*
X001730Y006295D02*
X001680Y006345D01*
X001501Y006323D02*
X000410Y006323D01*
X000410Y006381D02*
X001501Y006381D01*
X001501Y006440D02*
X000410Y006440D01*
X000410Y006498D02*
X001501Y006498D01*
X001501Y006557D02*
X000410Y006557D01*
X000410Y006615D02*
X001501Y006615D01*
X001560Y006674D02*
X001407Y006674D01*
X001448Y006732D02*
X001560Y006732D01*
X001560Y006791D02*
X001448Y006791D01*
X001448Y006849D02*
X001560Y006849D01*
X001560Y006908D02*
X001448Y006908D01*
X001448Y006966D02*
X001560Y006966D01*
X001560Y007025D02*
X001448Y007025D01*
X001448Y007083D02*
X001560Y007083D01*
X001560Y007142D02*
X001448Y007142D01*
X001560Y007200D02*
X001300Y007200D01*
X001300Y007259D02*
X001560Y007259D01*
X001560Y007317D02*
X001300Y007317D01*
X001300Y007376D02*
X001560Y007376D01*
X001560Y007434D02*
X001300Y007434D01*
X001300Y007493D02*
X001560Y007493D01*
X001560Y007551D02*
X001300Y007551D01*
X001300Y007610D02*
X001560Y007610D01*
X001560Y007668D02*
X001300Y007668D01*
X001300Y007727D02*
X001560Y007727D01*
X001560Y007785D02*
X001300Y007785D01*
X001286Y007844D02*
X001560Y007844D01*
X001560Y007902D02*
X001228Y007902D01*
X001169Y007961D02*
X001560Y007961D01*
X001553Y008019D02*
X001560Y008019D01*
X001800Y008663D02*
X002110Y008663D01*
X002110Y008721D02*
X001800Y008721D01*
X001800Y008780D02*
X002110Y008780D01*
X002110Y008838D02*
X001800Y008838D01*
X001800Y008897D02*
X002110Y008897D01*
X002110Y008955D02*
X001800Y008955D01*
X001800Y009014D02*
X002110Y009014D01*
X002110Y009072D02*
X001800Y009072D01*
X001800Y009131D02*
X002062Y009131D01*
X002055Y009189D02*
X001800Y009189D01*
X001800Y009248D02*
X002055Y009248D01*
X002055Y009306D02*
X001873Y009306D01*
X002448Y011120D02*
X002610Y011120D01*
X002610Y011178D02*
X002440Y011178D01*
X002398Y011237D02*
X002610Y011237D01*
X002610Y011295D02*
X002391Y011295D01*
X002408Y011354D02*
X002610Y011354D01*
X002610Y011412D02*
X002408Y011412D01*
X002408Y011471D02*
X002610Y011471D01*
X002610Y011529D02*
X002408Y011529D01*
X002500Y012407D02*
X002712Y012407D01*
X002712Y012465D02*
X002500Y012465D01*
X002500Y012524D02*
X002712Y012524D01*
X002710Y012582D02*
X002500Y012582D01*
X002500Y012641D02*
X002710Y012641D01*
X002710Y012699D02*
X002500Y012699D01*
X002500Y012758D02*
X002710Y012758D01*
X002710Y012816D02*
X002500Y012816D01*
X002500Y012875D02*
X002710Y012875D01*
X002710Y012933D02*
X002500Y012933D01*
X002500Y012992D02*
X002710Y012992D01*
X002632Y013050D02*
X002500Y013050D01*
X002500Y013109D02*
X002622Y013109D01*
X002622Y013167D02*
X002500Y013167D01*
X002500Y013226D02*
X002622Y013226D01*
X002602Y013284D02*
X002500Y013284D01*
X002500Y013343D02*
X002582Y013343D01*
X002582Y013401D02*
X002500Y013401D01*
X002500Y013460D02*
X002582Y013460D01*
X002582Y013518D02*
X002500Y013518D01*
X002500Y013577D02*
X002595Y013577D01*
X002622Y013635D02*
X002500Y013635D01*
X002500Y013694D02*
X002622Y013694D01*
X002622Y013752D02*
X002522Y013752D01*
X002580Y013810D02*
X002580Y013810D01*
X002580Y013811D02*
X002622Y013811D01*
X002639Y013869D02*
X002760Y013869D01*
X002760Y013928D02*
X002650Y013928D01*
X002650Y013986D02*
X002760Y013986D01*
X002775Y014045D02*
X002650Y014045D01*
X002650Y014103D02*
X002812Y014103D01*
X002812Y014162D02*
X002650Y014162D01*
X002650Y014220D02*
X002812Y014220D01*
X002812Y014279D02*
X002650Y014279D01*
X002782Y014513D02*
X003164Y014513D01*
X003112Y014571D02*
X002841Y014571D01*
X002899Y014630D02*
X003112Y014630D01*
X003112Y014688D02*
X002958Y014688D01*
X002980Y014710D02*
X002980Y014710D01*
X003016Y014747D02*
X003112Y014747D01*
X003112Y014805D02*
X003050Y014805D01*
X003050Y014864D02*
X003112Y014864D01*
X003112Y014922D02*
X003050Y014922D01*
X003050Y014981D02*
X003112Y014981D01*
X003156Y015039D02*
X003050Y015039D01*
X003186Y015098D02*
X003209Y015098D01*
X003209Y015156D02*
X003186Y015156D01*
X003186Y015215D02*
X003209Y015215D01*
X003209Y015273D02*
X003186Y015273D01*
X003186Y015332D02*
X003209Y015332D01*
X003209Y015390D02*
X003186Y015390D01*
X003186Y015449D02*
X003209Y015449D01*
X003209Y015507D02*
X003186Y015507D01*
X003198Y015530D02*
X003530Y015530D01*
X003580Y015580D01*
X003410Y015566D02*
X004060Y015566D01*
X004060Y015624D02*
X003410Y015624D01*
X003410Y015683D02*
X004060Y015683D01*
X004060Y015741D02*
X003410Y015741D01*
X003410Y015800D02*
X004060Y015800D01*
X004060Y015858D02*
X003410Y015858D01*
X003410Y015898D02*
X003402Y015931D01*
X003384Y015961D01*
X003360Y015985D01*
X003331Y016002D01*
X003298Y016011D01*
X003209Y016011D01*
X003209Y015542D01*
X003410Y015542D01*
X003410Y015898D01*
X003405Y015917D02*
X004060Y015917D01*
X004060Y015975D02*
X003370Y015975D01*
X003209Y015975D02*
X003186Y015975D01*
X003186Y015917D02*
X003209Y015917D01*
X003209Y015858D02*
X003186Y015858D01*
X003186Y015800D02*
X003209Y015800D01*
X003209Y015741D02*
X003186Y015741D01*
X003186Y015683D02*
X003209Y015683D01*
X003209Y015624D02*
X003186Y015624D01*
X003186Y015566D02*
X003209Y015566D01*
X003198Y015530D02*
X003198Y015530D01*
X003410Y015507D02*
X004060Y015507D01*
X004060Y015449D02*
X003410Y015449D01*
X003410Y015390D02*
X004060Y015390D01*
X004060Y015332D02*
X003410Y015332D01*
X003410Y015273D02*
X004060Y015273D01*
X004060Y015215D02*
X003410Y015215D01*
X003409Y015156D02*
X004060Y015156D01*
X004060Y015098D02*
X003382Y015098D01*
X003604Y015039D02*
X004060Y015039D01*
X004060Y014981D02*
X003648Y014981D01*
X003648Y014922D02*
X004060Y014922D01*
X004060Y014864D02*
X003648Y014864D01*
X003080Y014180D02*
X002880Y013980D01*
X002880Y013742D01*
X002830Y013692D01*
X002868Y013730D01*
X002830Y013180D02*
X002830Y012630D01*
X002980Y012480D01*
X002880Y013130D02*
X002830Y013180D01*
X002558Y015098D02*
X002558Y015098D01*
X002302Y015098D02*
X002050Y015098D01*
X002050Y015156D02*
X002257Y015156D01*
X002257Y015215D02*
X002050Y015215D01*
X002050Y015273D02*
X002257Y015273D01*
X002257Y015332D02*
X002050Y015332D01*
X002050Y015390D02*
X002257Y015390D01*
X002257Y015449D02*
X002050Y015449D01*
X002050Y015507D02*
X002257Y015507D01*
X002257Y015566D02*
X002050Y015566D01*
X002050Y015624D02*
X002257Y015624D01*
X002257Y015683D02*
X002050Y015683D01*
X002050Y015741D02*
X002257Y015741D01*
X002257Y015800D02*
X002050Y015800D01*
X002050Y015858D02*
X002257Y015858D01*
X002257Y015917D02*
X002050Y015917D01*
X002095Y015975D02*
X003025Y015975D01*
X002504Y016385D02*
X004060Y016385D01*
X004060Y016443D02*
X002550Y016443D01*
X002550Y016502D02*
X004060Y016502D01*
X004060Y016560D02*
X002550Y016560D01*
X002550Y016619D02*
X004060Y016619D01*
X004060Y016677D02*
X002550Y016677D01*
X002550Y016736D02*
X004060Y016736D01*
X004060Y016794D02*
X002550Y016794D01*
X002550Y016853D02*
X004060Y016853D01*
X004029Y016911D02*
X002550Y016911D01*
X002550Y016970D02*
X003971Y016970D01*
X003912Y017028D02*
X002550Y017028D01*
X002550Y017087D02*
X003854Y017087D01*
X003795Y017145D02*
X002550Y017145D01*
X002550Y017204D02*
X003737Y017204D01*
X004060Y016326D02*
X002446Y016326D01*
X002387Y016268D02*
X004060Y016268D01*
X004060Y016209D02*
X002329Y016209D01*
X002270Y016151D02*
X004060Y016151D01*
X004060Y016092D02*
X002212Y016092D01*
X002153Y016034D02*
X004060Y016034D01*
X004650Y016034D02*
X006810Y016034D01*
X006810Y016092D02*
X004650Y016092D01*
X004650Y016151D02*
X006810Y016151D01*
X006810Y016209D02*
X004650Y016209D01*
X004650Y016268D02*
X006810Y016268D01*
X006810Y016326D02*
X004650Y016326D01*
X004650Y016385D02*
X006810Y016385D01*
X006810Y016443D02*
X004650Y016443D01*
X004650Y016502D02*
X006810Y016502D01*
X006810Y016560D02*
X004650Y016560D01*
X004650Y016619D02*
X006810Y016619D01*
X006810Y016677D02*
X004650Y016677D01*
X004650Y016736D02*
X006810Y016736D01*
X006810Y016794D02*
X004650Y016794D01*
X004650Y016853D02*
X006810Y016853D01*
X006810Y016911D02*
X004650Y016911D01*
X004650Y016970D02*
X006850Y016970D01*
X006880Y017000D02*
X006880Y017000D01*
X006908Y017028D02*
X004650Y017028D01*
X004650Y017087D02*
X006967Y017087D01*
X007025Y017145D02*
X004650Y017145D01*
X004650Y017204D02*
X007084Y017204D01*
X007142Y017262D02*
X004650Y017262D01*
X004650Y017321D02*
X007216Y017321D01*
X007240Y017379D02*
X004650Y017379D01*
X004650Y017438D02*
X007286Y017438D01*
X007345Y017496D02*
X004650Y017496D01*
X004650Y017555D02*
X007465Y017555D01*
X007502Y017790D02*
X007359Y017849D01*
X007249Y017959D01*
X007190Y018102D01*
X007190Y018258D01*
X007249Y018401D01*
X007359Y018511D01*
X007502Y018570D01*
X008258Y018570D01*
X008401Y018511D01*
X008511Y018401D01*
X008570Y018258D01*
X008570Y018102D01*
X008511Y017959D01*
X008401Y017849D01*
X008258Y017790D01*
X007502Y017790D01*
X007365Y017847D02*
X004650Y017847D01*
X004650Y017789D02*
X008660Y017789D01*
X008660Y017847D02*
X008395Y017847D01*
X008457Y017906D02*
X008660Y017906D01*
X008660Y017964D02*
X008513Y017964D01*
X008537Y018023D02*
X008660Y018023D01*
X008660Y018081D02*
X008561Y018081D01*
X008570Y018140D02*
X008660Y018140D01*
X008660Y018198D02*
X008570Y018198D01*
X008570Y018257D02*
X008660Y018257D01*
X008660Y018315D02*
X008546Y018315D01*
X008522Y018374D02*
X008660Y018374D01*
X008660Y018432D02*
X008479Y018432D01*
X008421Y018491D02*
X008660Y018491D01*
X008660Y018549D02*
X008308Y018549D01*
X008660Y018608D02*
X004650Y018608D01*
X004650Y018666D02*
X008660Y018666D01*
X008660Y018725D02*
X004650Y018725D01*
X004650Y018783D02*
X008660Y018783D01*
X008660Y018842D02*
X004650Y018842D01*
X004650Y018900D02*
X008660Y018900D01*
X008660Y018959D02*
X004650Y018959D01*
X004650Y019017D02*
X008660Y019017D01*
X008660Y019076D02*
X004650Y019076D01*
X004650Y019134D02*
X008660Y019134D01*
X008660Y019193D02*
X004650Y019193D01*
X004650Y019251D02*
X008660Y019251D01*
X008631Y019310D02*
X008305Y019310D01*
X008420Y019368D02*
X008572Y019368D01*
X008514Y019427D02*
X008478Y019427D01*
X008430Y019680D02*
X007880Y019680D01*
X007502Y020290D02*
X008258Y020290D01*
X008401Y020349D01*
X008511Y020459D01*
X008570Y020602D01*
X008570Y020758D01*
X008511Y020901D01*
X008401Y021011D01*
X008258Y021070D01*
X007502Y021070D01*
X007359Y021011D01*
X007249Y020901D01*
X007190Y020758D01*
X007190Y020602D01*
X007249Y020459D01*
X007359Y020349D01*
X007502Y020290D01*
X007468Y020304D02*
X004650Y020304D01*
X004650Y020246D02*
X009450Y020246D01*
X009450Y020304D02*
X008292Y020304D01*
X008414Y020363D02*
X009450Y020363D01*
X009450Y020421D02*
X008473Y020421D01*
X008519Y020480D02*
X009450Y020480D01*
X009450Y020538D02*
X008543Y020538D01*
X008568Y020597D02*
X009450Y020597D01*
X009450Y020655D02*
X008570Y020655D01*
X008570Y020714D02*
X009450Y020714D01*
X009450Y020772D02*
X008564Y020772D01*
X008540Y020831D02*
X009450Y020831D01*
X009450Y020889D02*
X008516Y020889D01*
X008464Y020948D02*
X009450Y020948D01*
X009450Y021006D02*
X008405Y021006D01*
X008271Y021065D02*
X009450Y021065D01*
X009450Y021123D02*
X004650Y021123D01*
X004650Y021065D02*
X007489Y021065D01*
X007355Y021006D02*
X004650Y021006D01*
X004650Y020948D02*
X007296Y020948D01*
X007244Y020889D02*
X004650Y020889D01*
X004650Y020831D02*
X007220Y020831D01*
X007196Y020772D02*
X004650Y020772D01*
X004650Y020714D02*
X007190Y020714D01*
X007190Y020655D02*
X004650Y020655D01*
X004650Y020597D02*
X007192Y020597D01*
X007217Y020538D02*
X004650Y020538D01*
X004650Y020480D02*
X007241Y020480D01*
X007287Y020421D02*
X004650Y020421D01*
X004650Y020363D02*
X007346Y020363D01*
X007361Y020012D02*
X004650Y020012D01*
X004650Y020070D02*
X009450Y020070D01*
X009450Y020012D02*
X008399Y020012D01*
X008458Y019953D02*
X009450Y019953D01*
X009450Y019895D02*
X008513Y019895D01*
X008537Y019836D02*
X009450Y019836D01*
X009450Y019778D02*
X008562Y019778D01*
X008570Y019719D02*
X009450Y019719D01*
X009450Y019661D02*
X008619Y019661D01*
X008678Y019602D02*
X009450Y019602D01*
X009450Y019544D02*
X008736Y019544D01*
X008795Y019485D02*
X009450Y019485D01*
X009450Y019427D02*
X008853Y019427D01*
X008900Y019368D02*
X009450Y019368D01*
X009450Y019310D02*
X008900Y019310D01*
X008900Y019251D02*
X009450Y019251D01*
X009450Y019193D02*
X008900Y019193D01*
X008900Y019134D02*
X009450Y019134D01*
X009450Y019076D02*
X008900Y019076D01*
X008900Y019017D02*
X009450Y019017D01*
X009450Y018959D02*
X008900Y018959D01*
X008900Y018900D02*
X009450Y018900D01*
X009450Y018842D02*
X008900Y018842D01*
X008900Y018783D02*
X009450Y018783D01*
X009450Y018725D02*
X008900Y018725D01*
X008900Y018666D02*
X009450Y018666D01*
X009450Y018608D02*
X008900Y018608D01*
X008900Y018549D02*
X009450Y018549D01*
X009450Y018491D02*
X008900Y018491D01*
X008900Y018432D02*
X009450Y018432D01*
X009450Y018374D02*
X008900Y018374D01*
X008900Y018315D02*
X009450Y018315D01*
X009450Y018257D02*
X008900Y018257D01*
X008900Y018198D02*
X009450Y018198D01*
X009450Y018140D02*
X008900Y018140D01*
X008900Y018081D02*
X009450Y018081D01*
X009450Y018023D02*
X008900Y018023D01*
X008900Y017964D02*
X009450Y017964D01*
X009450Y017906D02*
X008900Y017906D01*
X008900Y017847D02*
X009450Y017847D01*
X009450Y017789D02*
X008900Y017789D01*
X008900Y017730D02*
X009450Y017730D01*
X009450Y017672D02*
X008900Y017672D01*
X008900Y017613D02*
X009450Y017613D01*
X009450Y017555D02*
X008900Y017555D01*
X008900Y017496D02*
X009450Y017496D01*
X009450Y017438D02*
X008900Y017438D01*
X008900Y017379D02*
X009450Y017379D01*
X009450Y017321D02*
X008900Y017321D01*
X008900Y017262D02*
X009450Y017262D01*
X009450Y017204D02*
X008900Y017204D01*
X008900Y017145D02*
X009450Y017145D01*
X009450Y017087D02*
X008900Y017087D01*
X008900Y017028D02*
X009450Y017028D01*
X009450Y016970D02*
X008900Y016970D01*
X008900Y016911D02*
X009450Y016911D01*
X009450Y016853D02*
X008900Y016853D01*
X008900Y016794D02*
X009450Y016794D01*
X009450Y016736D02*
X008900Y016736D01*
X008900Y016677D02*
X009450Y016677D01*
X009450Y016619D02*
X008900Y016619D01*
X008900Y016560D02*
X009450Y016560D01*
X009450Y016502D02*
X008900Y016502D01*
X008900Y016443D02*
X009450Y016443D01*
X009450Y016385D02*
X008900Y016385D01*
X008900Y016326D02*
X009450Y016326D01*
X009450Y016268D02*
X008900Y016268D01*
X008900Y016209D02*
X009450Y016209D01*
X009450Y016151D02*
X008900Y016151D01*
X008900Y016092D02*
X009450Y016092D01*
X009450Y016034D02*
X008900Y016034D01*
X008900Y015975D02*
X009450Y015975D01*
X009450Y015917D02*
X008900Y015917D01*
X008878Y015858D02*
X009450Y015858D01*
X009450Y015800D02*
X008819Y015800D01*
X008761Y015741D02*
X009450Y015741D01*
X009450Y015683D02*
X009211Y015683D01*
X009248Y015624D02*
X009450Y015624D01*
X009450Y015566D02*
X009248Y015566D01*
X009248Y015507D02*
X009450Y015507D01*
X009450Y015449D02*
X009248Y015449D01*
X009248Y015390D02*
X009450Y015390D01*
X009450Y015332D02*
X009248Y015332D01*
X009248Y015273D02*
X009450Y015273D01*
X009450Y015215D02*
X009248Y015215D01*
X009050Y015156D02*
X009450Y015156D01*
X009450Y015098D02*
X009050Y015098D01*
X009050Y015039D02*
X009450Y015039D01*
X009450Y014981D02*
X009050Y014981D01*
X009050Y014922D02*
X009450Y014922D01*
X009450Y014864D02*
X009050Y014864D01*
X009050Y014805D02*
X009450Y014805D01*
X009450Y014747D02*
X009050Y014747D01*
X009050Y014688D02*
X009450Y014688D01*
X009450Y014630D02*
X009050Y014630D01*
X009050Y014571D02*
X009450Y014571D01*
X009450Y014513D02*
X009050Y014513D01*
X009050Y014454D02*
X009450Y014454D01*
X009450Y014396D02*
X009050Y014396D01*
X009050Y014337D02*
X009450Y014337D01*
X009450Y014279D02*
X009050Y014279D01*
X009050Y014220D02*
X009450Y014220D01*
X009450Y014162D02*
X009050Y014162D01*
X009050Y014103D02*
X009450Y014103D01*
X009450Y014045D02*
X009050Y014045D01*
X009050Y013986D02*
X009450Y013986D01*
X009450Y013928D02*
X009050Y013928D01*
X009050Y013869D02*
X009450Y013869D01*
X009450Y013811D02*
X009050Y013811D01*
X009050Y013752D02*
X009450Y013752D01*
X009450Y013694D02*
X009050Y013694D01*
X009050Y013635D02*
X009450Y013635D01*
X009450Y013577D02*
X009050Y013577D01*
X009050Y013518D02*
X009450Y013518D01*
X009450Y013460D02*
X009050Y013460D01*
X009050Y013401D02*
X009450Y013401D01*
X009450Y013343D02*
X009050Y013343D01*
X009050Y013284D02*
X009450Y013284D01*
X009450Y013226D02*
X009050Y013226D01*
X009050Y013167D02*
X009450Y013167D01*
X009450Y013109D02*
X009050Y013109D01*
X009050Y013050D02*
X009450Y013050D01*
X009450Y012992D02*
X009050Y012992D01*
X009050Y012933D02*
X009450Y012933D01*
X009450Y012875D02*
X009050Y012875D01*
X009050Y012816D02*
X009450Y012816D01*
X009450Y012758D02*
X009050Y012758D01*
X009050Y012699D02*
X009450Y012699D01*
X009450Y012641D02*
X009050Y012641D01*
X009050Y012582D02*
X009450Y012582D01*
X009450Y012524D02*
X009050Y012524D01*
X009050Y012465D02*
X009450Y012465D01*
X009450Y012407D02*
X009050Y012407D01*
X009050Y012348D02*
X009450Y012348D01*
X009450Y012290D02*
X009050Y012290D01*
X009050Y012231D02*
X009450Y012231D01*
X009450Y012173D02*
X009050Y012173D01*
X009050Y012114D02*
X009450Y012114D01*
X009450Y012056D02*
X009050Y012056D01*
X009050Y011997D02*
X009450Y011997D01*
X009450Y011939D02*
X009050Y011939D01*
X009050Y011880D02*
X009450Y011880D01*
X009450Y011822D02*
X009050Y011822D01*
X009050Y011763D02*
X009450Y011763D01*
X009450Y011705D02*
X009050Y011705D01*
X009050Y011646D02*
X009450Y011646D01*
X009450Y011588D02*
X009050Y011588D01*
X009050Y011529D02*
X009450Y011529D01*
X009450Y011471D02*
X009050Y011471D01*
X009050Y011412D02*
X009450Y011412D01*
X009450Y011354D02*
X009050Y011354D01*
X009050Y011295D02*
X009450Y011295D01*
X009450Y011237D02*
X009050Y011237D01*
X009050Y011178D02*
X009450Y011178D01*
X009450Y011120D02*
X009050Y011120D01*
X009050Y011061D02*
X009450Y011061D01*
X009450Y011003D02*
X009050Y011003D01*
X009050Y010944D02*
X009450Y010944D01*
X009450Y010886D02*
X009050Y010886D01*
X009050Y010827D02*
X009450Y010827D01*
X009450Y010769D02*
X009050Y010769D01*
X009050Y010710D02*
X009450Y010710D01*
X009450Y010652D02*
X009050Y010652D01*
X009050Y010593D02*
X009450Y010593D01*
X009450Y010535D02*
X009050Y010535D01*
X009050Y010476D02*
X009450Y010476D01*
X009450Y010418D02*
X009050Y010418D01*
X009050Y010359D02*
X009450Y010359D01*
X009450Y010301D02*
X009050Y010301D01*
X009050Y010242D02*
X009450Y010242D01*
X009450Y010184D02*
X009050Y010184D01*
X009050Y010125D02*
X009450Y010125D01*
X009450Y010067D02*
X009050Y010067D01*
X009050Y010008D02*
X009450Y010008D01*
X009450Y009950D02*
X009050Y009950D01*
X009050Y009891D02*
X009450Y009891D01*
X009450Y009833D02*
X009050Y009833D01*
X009050Y009774D02*
X009450Y009774D01*
X009450Y009716D02*
X009050Y009716D01*
X009050Y009657D02*
X009450Y009657D01*
X009450Y009599D02*
X009050Y009599D01*
X009050Y009540D02*
X009450Y009540D01*
X009450Y009482D02*
X009050Y009482D01*
X009050Y009423D02*
X009450Y009423D01*
X009450Y009365D02*
X009050Y009365D01*
X009050Y009306D02*
X009450Y009306D01*
X009450Y009248D02*
X009050Y009248D01*
X009050Y009189D02*
X009450Y009189D01*
X009450Y009131D02*
X009050Y009131D01*
X009050Y009072D02*
X009450Y009072D01*
X009450Y009014D02*
X009050Y009014D01*
X009050Y008955D02*
X009450Y008955D01*
X009450Y008897D02*
X009050Y008897D01*
X009050Y008838D02*
X009450Y008838D01*
X009450Y008780D02*
X009050Y008780D01*
X009050Y008721D02*
X009450Y008721D01*
X009450Y008663D02*
X009050Y008663D01*
X009050Y008604D02*
X009450Y008604D01*
X009450Y008546D02*
X009050Y008546D01*
X009050Y008487D02*
X009450Y008487D01*
X009450Y008429D02*
X009050Y008429D01*
X009050Y008370D02*
X009450Y008370D01*
X009450Y008312D02*
X009050Y008312D01*
X009050Y008253D02*
X009450Y008253D01*
X009450Y008195D02*
X009050Y008195D01*
X009050Y008136D02*
X009450Y008136D01*
X009450Y008078D02*
X009050Y008078D01*
X009050Y008019D02*
X009450Y008019D01*
X009450Y007961D02*
X009050Y007961D01*
X009050Y007902D02*
X009450Y007902D01*
X009450Y007844D02*
X009050Y007844D01*
X009050Y007785D02*
X009450Y007785D01*
X009450Y007727D02*
X009050Y007727D01*
X009050Y007668D02*
X009450Y007668D01*
X009450Y007610D02*
X009050Y007610D01*
X009050Y007551D02*
X009450Y007551D01*
X009450Y007493D02*
X009087Y007493D01*
X009146Y007434D02*
X009450Y007434D01*
X009450Y007376D02*
X009150Y007376D01*
X009150Y007317D02*
X009450Y007317D01*
X009450Y007259D02*
X009150Y007259D01*
X009150Y007200D02*
X009450Y007200D01*
X009450Y007142D02*
X009150Y007142D01*
X009150Y007083D02*
X009450Y007083D01*
X009450Y007025D02*
X009150Y007025D01*
X009150Y006966D02*
X009450Y006966D01*
X009450Y006908D02*
X009150Y006908D01*
X009150Y006849D02*
X009450Y006849D01*
X009450Y006791D02*
X009150Y006791D01*
X009150Y006732D02*
X009450Y006732D01*
X009450Y006674D02*
X009150Y006674D01*
X009150Y006615D02*
X009450Y006615D01*
X009450Y006557D02*
X009150Y006557D01*
X009150Y006498D02*
X009450Y006498D01*
X009450Y006440D02*
X009150Y006440D01*
X009150Y006381D02*
X009450Y006381D01*
X009450Y006323D02*
X009150Y006323D01*
X009150Y006264D02*
X009450Y006264D01*
X009450Y006206D02*
X009150Y006206D01*
X009117Y006147D02*
X009450Y006147D01*
X009450Y006089D02*
X009058Y006089D01*
X009000Y006030D02*
X009450Y006030D01*
X009450Y005972D02*
X008950Y005972D01*
X008950Y005913D02*
X009450Y005913D01*
X009450Y005855D02*
X008950Y005855D01*
X008950Y005796D02*
X009450Y005796D01*
X009450Y005738D02*
X008950Y005738D01*
X008950Y005679D02*
X009450Y005679D01*
X009450Y005621D02*
X008950Y005621D01*
X008950Y005562D02*
X009450Y005562D01*
X009450Y005504D02*
X008950Y005504D01*
X008950Y005445D02*
X009450Y005445D01*
X009450Y005387D02*
X008950Y005387D01*
X008950Y005328D02*
X009450Y005328D01*
X009450Y005270D02*
X008950Y005270D01*
X008950Y005211D02*
X009450Y005211D01*
X009450Y005153D02*
X008950Y005153D01*
X008950Y005094D02*
X009450Y005094D01*
X009450Y005036D02*
X008950Y005036D01*
X008950Y004977D02*
X009450Y004977D01*
X009450Y004919D02*
X008950Y004919D01*
X008950Y004860D02*
X009450Y004860D01*
X009450Y004802D02*
X008950Y004802D01*
X008950Y004743D02*
X009450Y004743D01*
X009450Y004685D02*
X008950Y004685D01*
X008896Y004626D02*
X009450Y004626D01*
X009450Y004568D02*
X008837Y004568D01*
X008779Y004509D02*
X009450Y004509D01*
X009450Y004451D02*
X008720Y004451D01*
X008662Y004392D02*
X009450Y004392D01*
X009450Y004334D02*
X008603Y004334D01*
X008545Y004275D02*
X009450Y004275D01*
X009450Y004217D02*
X008486Y004217D01*
X008428Y004158D02*
X009450Y004158D01*
X009450Y004100D02*
X008369Y004100D01*
X008345Y004041D02*
X009450Y004041D01*
X009450Y003983D02*
X008320Y003983D01*
X008276Y003924D02*
X009450Y003924D01*
X009450Y003866D02*
X008217Y003866D01*
X008099Y003807D02*
X009450Y003807D01*
X009450Y003749D02*
X000410Y003749D01*
X000410Y003807D02*
X007261Y003807D01*
X007143Y003866D02*
X005874Y003866D01*
X005873Y003864D02*
X005890Y003894D01*
X005899Y003927D01*
X005899Y004166D01*
X005694Y004166D01*
X005694Y004194D01*
X005899Y004194D01*
X005899Y004433D01*
X005890Y004466D01*
X005873Y004496D01*
X005848Y004520D01*
X005819Y004537D01*
X005786Y004546D01*
X005694Y004546D01*
X005694Y004194D01*
X005666Y004194D01*
X005666Y004166D01*
X005694Y004166D01*
X005694Y003814D01*
X005786Y003814D01*
X005819Y003823D01*
X005848Y003840D01*
X005873Y003864D01*
X005898Y003924D02*
X007084Y003924D01*
X007040Y003983D02*
X005899Y003983D01*
X005899Y004041D02*
X007015Y004041D01*
X006991Y004100D02*
X005899Y004100D01*
X005899Y004158D02*
X006990Y004158D01*
X006990Y004217D02*
X005899Y004217D01*
X005899Y004275D02*
X006997Y004275D01*
X007021Y004334D02*
X005899Y004334D01*
X005899Y004392D02*
X007046Y004392D01*
X007099Y004451D02*
X005894Y004451D01*
X005860Y004509D02*
X007157Y004509D01*
X007275Y004802D02*
X000410Y004802D01*
X000410Y004860D02*
X007148Y004860D01*
X007090Y004919D02*
X000410Y004919D01*
X000410Y004977D02*
X007042Y004977D01*
X007018Y005036D02*
X000410Y005036D01*
X000410Y005094D02*
X006993Y005094D01*
X006938Y005153D02*
X000410Y005153D01*
X000410Y005211D02*
X006879Y005211D01*
X006821Y005270D02*
X000410Y005270D01*
X000410Y005328D02*
X006762Y005328D01*
X006710Y005387D02*
X000410Y005387D01*
X000410Y005445D02*
X001631Y005445D01*
X001612Y005504D02*
X000410Y005504D01*
X000410Y005562D02*
X001612Y005562D01*
X001612Y005621D02*
X000410Y005621D01*
X000410Y005679D02*
X001612Y005679D01*
X001603Y005738D02*
X000410Y005738D01*
X000410Y005796D02*
X001560Y005796D01*
X001560Y005855D02*
X000410Y005855D01*
X000410Y005913D02*
X001560Y005913D01*
X001560Y005972D02*
X000410Y005972D01*
X000410Y006030D02*
X001543Y006030D01*
X001501Y006089D02*
X000410Y006089D01*
X000410Y006147D02*
X001501Y006147D01*
X001501Y006206D02*
X000410Y006206D01*
X000410Y006264D02*
X001501Y006264D01*
X001554Y004506D02*
X001501Y004453D01*
X001501Y003906D01*
X001554Y003854D01*
X001806Y003854D01*
X001859Y003906D01*
X001859Y004453D01*
X001806Y004506D01*
X001554Y004506D01*
X001501Y004451D02*
X000410Y004451D01*
X000410Y004509D02*
X003000Y004509D01*
X003012Y004520D02*
X002987Y004496D01*
X002970Y004466D01*
X002961Y004433D01*
X002961Y004194D01*
X003166Y004194D01*
X003166Y004166D01*
X003194Y004166D01*
X003194Y004194D01*
X003399Y004194D01*
X003399Y004433D01*
X003390Y004466D01*
X003373Y004496D01*
X003348Y004520D01*
X003319Y004537D01*
X003286Y004546D01*
X003194Y004546D01*
X003194Y004194D01*
X003166Y004194D01*
X003166Y004546D01*
X003074Y004546D01*
X003041Y004537D01*
X003012Y004520D01*
X002966Y004451D02*
X002859Y004451D01*
X002859Y004453D02*
X002806Y004506D01*
X002554Y004506D01*
X002501Y004453D01*
X002501Y003906D01*
X002554Y003854D01*
X002806Y003854D01*
X002859Y003906D01*
X002859Y004453D01*
X002859Y004392D02*
X002961Y004392D01*
X002961Y004334D02*
X002859Y004334D01*
X002859Y004275D02*
X002961Y004275D01*
X002961Y004217D02*
X002859Y004217D01*
X002859Y004158D02*
X002961Y004158D01*
X002961Y004166D02*
X002961Y003927D01*
X002970Y003894D01*
X002987Y003864D01*
X003012Y003840D01*
X003041Y003823D01*
X003074Y003814D01*
X003166Y003814D01*
X003166Y004166D01*
X002961Y004166D01*
X002961Y004100D02*
X002859Y004100D01*
X002859Y004041D02*
X002961Y004041D01*
X002961Y003983D02*
X002859Y003983D01*
X002859Y003924D02*
X002962Y003924D01*
X002986Y003866D02*
X002818Y003866D01*
X002542Y003866D02*
X002318Y003866D01*
X002306Y003854D02*
X002359Y003906D01*
X002359Y004453D01*
X002306Y004506D01*
X002054Y004506D01*
X002001Y004453D01*
X002001Y003906D01*
X002054Y003854D01*
X002306Y003854D01*
X002359Y003924D02*
X002501Y003924D01*
X002501Y003983D02*
X002359Y003983D01*
X002359Y004041D02*
X002501Y004041D01*
X002501Y004100D02*
X002359Y004100D01*
X002359Y004158D02*
X002501Y004158D01*
X002501Y004217D02*
X002359Y004217D01*
X002359Y004275D02*
X002501Y004275D01*
X002501Y004334D02*
X002359Y004334D01*
X002359Y004392D02*
X002501Y004392D01*
X002501Y004451D02*
X002359Y004451D01*
X002001Y004451D02*
X001859Y004451D01*
X001859Y004392D02*
X002001Y004392D01*
X002001Y004334D02*
X001859Y004334D01*
X001859Y004275D02*
X002001Y004275D01*
X002001Y004217D02*
X001859Y004217D01*
X001859Y004158D02*
X002001Y004158D01*
X002001Y004100D02*
X001859Y004100D01*
X001859Y004041D02*
X002001Y004041D01*
X002001Y003983D02*
X001859Y003983D01*
X001859Y003924D02*
X002001Y003924D01*
X002042Y003866D02*
X001818Y003866D01*
X001542Y003866D02*
X000410Y003866D01*
X000410Y003924D02*
X001501Y003924D01*
X001501Y003983D02*
X000410Y003983D01*
X000410Y004041D02*
X001501Y004041D01*
X001501Y004100D02*
X000410Y004100D01*
X000410Y004158D02*
X001501Y004158D01*
X001501Y004217D02*
X000410Y004217D01*
X000410Y004275D02*
X001501Y004275D01*
X001501Y004334D02*
X000410Y004334D01*
X000410Y004392D02*
X001501Y004392D01*
X000410Y004568D02*
X007296Y004568D01*
X007030Y005230D02*
X006830Y005430D01*
X006830Y006030D01*
X006330Y006530D01*
X006330Y008730D01*
X006780Y009180D01*
X006780Y009780D01*
X006780Y010430D01*
X006930Y010580D01*
X006930Y016880D01*
X007230Y017180D01*
X007880Y017180D01*
X008267Y016794D02*
X008660Y016794D01*
X008660Y016736D02*
X007050Y016736D01*
X007050Y016794D02*
X007493Y016794D01*
X007356Y016853D02*
X007072Y016853D01*
X007131Y016911D02*
X007297Y016911D01*
X007245Y016970D02*
X007189Y016970D01*
X007050Y016677D02*
X008660Y016677D01*
X008660Y016619D02*
X007050Y016619D01*
X007050Y016560D02*
X008660Y016560D01*
X008660Y016502D02*
X007050Y016502D01*
X007050Y016443D02*
X008660Y016443D01*
X008660Y016385D02*
X007050Y016385D01*
X007050Y016326D02*
X008660Y016326D01*
X008660Y016268D02*
X007050Y016268D01*
X007050Y016209D02*
X008660Y016209D01*
X008660Y016151D02*
X007050Y016151D01*
X007050Y016092D02*
X008660Y016092D01*
X008660Y016034D02*
X007050Y016034D01*
X007050Y015975D02*
X008655Y015975D01*
X008597Y015917D02*
X007050Y015917D01*
X007050Y015858D02*
X008538Y015858D01*
X008480Y015800D02*
X007050Y015800D01*
X007050Y015741D02*
X008460Y015741D01*
X008460Y015683D02*
X007050Y015683D01*
X007050Y015624D02*
X008460Y015624D01*
X008460Y015566D02*
X007050Y015566D01*
X007050Y015507D02*
X008460Y015507D01*
X008460Y015449D02*
X007050Y015449D01*
X007050Y015390D02*
X008460Y015390D01*
X008460Y015332D02*
X007050Y015332D01*
X007050Y015273D02*
X008460Y015273D01*
X008460Y015215D02*
X007050Y015215D01*
X007050Y015156D02*
X008460Y015156D01*
X008460Y015098D02*
X007050Y015098D01*
X007050Y015039D02*
X008501Y015039D01*
X008560Y014981D02*
X007050Y014981D01*
X007050Y014922D02*
X008610Y014922D01*
X008610Y014864D02*
X007050Y014864D01*
X007050Y014805D02*
X008610Y014805D01*
X008610Y014747D02*
X007050Y014747D01*
X007050Y014688D02*
X008610Y014688D01*
X008610Y014630D02*
X007050Y014630D01*
X007050Y014571D02*
X008610Y014571D01*
X008610Y014513D02*
X007050Y014513D01*
X007050Y014454D02*
X008610Y014454D01*
X008610Y014396D02*
X007050Y014396D01*
X007050Y014337D02*
X008610Y014337D01*
X008610Y014279D02*
X007050Y014279D01*
X007050Y014220D02*
X008610Y014220D01*
X008610Y014162D02*
X007050Y014162D01*
X007050Y014103D02*
X008610Y014103D01*
X008610Y014045D02*
X008119Y014045D01*
X008225Y013986D02*
X008610Y013986D01*
X008610Y013928D02*
X008284Y013928D01*
X008324Y013869D02*
X008610Y013869D01*
X008610Y013811D02*
X008348Y013811D01*
X008370Y013752D02*
X008610Y013752D01*
X008610Y013694D02*
X008370Y013694D01*
X008370Y013635D02*
X008610Y013635D01*
X008610Y013577D02*
X008359Y013577D01*
X008412Y013518D02*
X008610Y013518D01*
X008610Y013460D02*
X008470Y013460D01*
X008529Y013401D02*
X008610Y013401D01*
X008610Y013343D02*
X008587Y013343D01*
X008530Y013230D02*
X008530Y008580D01*
X008130Y008180D01*
X007680Y008180D01*
X008058Y008570D02*
X007302Y008570D01*
X007159Y008511D01*
X007049Y008401D01*
X006990Y008258D01*
X006990Y008102D01*
X007049Y007959D01*
X007159Y007849D01*
X007302Y007790D01*
X008058Y007790D01*
X008201Y007849D01*
X008311Y007959D01*
X008370Y008102D01*
X008370Y008250D01*
X008610Y008490D01*
X008610Y007355D01*
X008487Y007355D01*
X008434Y007302D01*
X008434Y007300D01*
X008352Y007300D01*
X008311Y007401D01*
X008201Y007511D01*
X008058Y007570D01*
X007302Y007570D01*
X007159Y007511D01*
X007049Y007401D01*
X006990Y007258D01*
X006990Y007102D01*
X007049Y006959D01*
X007159Y006849D01*
X007302Y006790D01*
X008058Y006790D01*
X008201Y006849D01*
X008311Y006959D01*
X008352Y007060D01*
X008434Y007060D01*
X008434Y007058D01*
X008487Y007005D01*
X008586Y007005D01*
X008360Y006780D01*
X008360Y006380D01*
X008331Y006351D01*
X008311Y006401D01*
X008201Y006511D01*
X008058Y006570D01*
X007302Y006570D01*
X007159Y006511D01*
X007049Y006401D01*
X007014Y006316D01*
X006650Y006680D01*
X006650Y008012D01*
X006895Y008012D01*
X006948Y008065D01*
X006948Y008495D01*
X006895Y008548D01*
X006465Y008548D01*
X006450Y008533D01*
X006450Y008680D01*
X006900Y009130D01*
X006900Y009512D01*
X006995Y009512D01*
X007048Y009565D01*
X007048Y009995D01*
X006995Y010048D01*
X006900Y010048D01*
X006900Y010380D01*
X006980Y010460D01*
X007050Y010530D01*
X007050Y011458D01*
X007159Y011349D01*
X007302Y011290D01*
X007560Y011290D01*
X007560Y010598D01*
X007415Y010598D01*
X007362Y010545D01*
X007362Y010115D01*
X007415Y010062D01*
X007845Y010062D01*
X007898Y010115D01*
X007898Y010545D01*
X007845Y010598D01*
X007800Y010598D01*
X007800Y011290D01*
X008058Y011290D01*
X008201Y011349D01*
X008311Y011459D01*
X008370Y011602D01*
X008370Y011758D01*
X008311Y011901D01*
X008201Y012011D01*
X008058Y012070D01*
X007302Y012070D01*
X007159Y012011D01*
X007050Y011902D01*
X007050Y012458D01*
X007159Y012349D01*
X007302Y012290D01*
X008058Y012290D01*
X008201Y012349D01*
X008311Y012459D01*
X008370Y012602D01*
X008370Y012758D01*
X008311Y012901D01*
X008201Y013011D01*
X008058Y013070D01*
X007302Y013070D01*
X007159Y013011D01*
X007050Y012902D01*
X007050Y013458D01*
X007159Y013349D01*
X007302Y013290D01*
X008058Y013290D01*
X008201Y013349D01*
X008221Y013369D01*
X008410Y013180D01*
X008410Y008630D01*
X008246Y008466D01*
X008201Y008511D01*
X008058Y008570D01*
X008117Y008546D02*
X008326Y008546D01*
X008384Y008604D02*
X006450Y008604D01*
X006450Y008546D02*
X006462Y008546D01*
X006450Y008663D02*
X008410Y008663D01*
X008410Y008721D02*
X006491Y008721D01*
X006549Y008780D02*
X008410Y008780D01*
X008410Y008838D02*
X006608Y008838D01*
X006666Y008897D02*
X008410Y008897D01*
X008410Y008955D02*
X006725Y008955D01*
X006783Y009014D02*
X008410Y009014D01*
X008410Y009072D02*
X006842Y009072D01*
X006900Y009131D02*
X008410Y009131D01*
X008410Y009189D02*
X006900Y009189D01*
X006900Y009248D02*
X008410Y009248D01*
X008410Y009306D02*
X006900Y009306D01*
X006900Y009365D02*
X008410Y009365D01*
X008410Y009423D02*
X006900Y009423D01*
X006900Y009482D02*
X008410Y009482D01*
X008410Y009540D02*
X007024Y009540D01*
X007048Y009599D02*
X008410Y009599D01*
X008410Y009657D02*
X007048Y009657D01*
X007048Y009716D02*
X008410Y009716D01*
X008410Y009774D02*
X007048Y009774D01*
X007048Y009833D02*
X008410Y009833D01*
X008410Y009891D02*
X007048Y009891D01*
X007048Y009950D02*
X008410Y009950D01*
X008410Y010008D02*
X007035Y010008D01*
X006937Y010418D02*
X007362Y010418D01*
X007362Y010476D02*
X006996Y010476D01*
X007050Y010535D02*
X007362Y010535D01*
X007410Y010593D02*
X007050Y010593D01*
X007050Y010652D02*
X007560Y010652D01*
X007560Y010710D02*
X007050Y010710D01*
X007050Y010769D02*
X007560Y010769D01*
X007560Y010827D02*
X007050Y010827D01*
X007050Y010886D02*
X007560Y010886D01*
X007560Y010944D02*
X007050Y010944D01*
X007050Y011003D02*
X007560Y011003D01*
X007560Y011061D02*
X007050Y011061D01*
X007050Y011120D02*
X007560Y011120D01*
X007560Y011178D02*
X007050Y011178D01*
X007050Y011237D02*
X007560Y011237D01*
X007680Y011680D02*
X007680Y010380D01*
X007630Y010330D01*
X007850Y010593D02*
X008410Y010593D01*
X008410Y010535D02*
X007898Y010535D01*
X007898Y010476D02*
X008410Y010476D01*
X008410Y010418D02*
X007898Y010418D01*
X007898Y010359D02*
X008410Y010359D01*
X008410Y010301D02*
X007898Y010301D01*
X007898Y010242D02*
X008410Y010242D01*
X008410Y010184D02*
X007898Y010184D01*
X007898Y010125D02*
X008410Y010125D01*
X008410Y010067D02*
X007850Y010067D01*
X007800Y010652D02*
X008410Y010652D01*
X008410Y010710D02*
X007800Y010710D01*
X007800Y010769D02*
X008410Y010769D01*
X008410Y010827D02*
X007800Y010827D01*
X007800Y010886D02*
X008410Y010886D01*
X008410Y010944D02*
X007800Y010944D01*
X007800Y011003D02*
X008410Y011003D01*
X008410Y011061D02*
X007800Y011061D01*
X007800Y011120D02*
X008410Y011120D01*
X008410Y011178D02*
X007800Y011178D01*
X007800Y011237D02*
X008410Y011237D01*
X008410Y011295D02*
X008070Y011295D01*
X008205Y011354D02*
X008410Y011354D01*
X008410Y011412D02*
X008264Y011412D01*
X008315Y011471D02*
X008410Y011471D01*
X008410Y011529D02*
X008340Y011529D01*
X008364Y011588D02*
X008410Y011588D01*
X008410Y011646D02*
X008370Y011646D01*
X008370Y011705D02*
X008410Y011705D01*
X008410Y011763D02*
X008368Y011763D01*
X008344Y011822D02*
X008410Y011822D01*
X008410Y011880D02*
X008319Y011880D01*
X008273Y011939D02*
X008410Y011939D01*
X008410Y011997D02*
X008214Y011997D01*
X008092Y012056D02*
X008410Y012056D01*
X008410Y012114D02*
X007050Y012114D01*
X007050Y012056D02*
X007268Y012056D01*
X007146Y011997D02*
X007050Y011997D01*
X007050Y011939D02*
X007087Y011939D01*
X007050Y012173D02*
X008410Y012173D01*
X008410Y012231D02*
X007050Y012231D01*
X007050Y012290D02*
X008410Y012290D01*
X008410Y012348D02*
X008198Y012348D01*
X008258Y012407D02*
X008410Y012407D01*
X008410Y012465D02*
X008313Y012465D01*
X008337Y012524D02*
X008410Y012524D01*
X008410Y012582D02*
X008362Y012582D01*
X008370Y012641D02*
X008410Y012641D01*
X008410Y012699D02*
X008370Y012699D01*
X008370Y012758D02*
X008410Y012758D01*
X008410Y012816D02*
X008346Y012816D01*
X008322Y012875D02*
X008410Y012875D01*
X008410Y012933D02*
X008278Y012933D01*
X008220Y012992D02*
X008410Y012992D01*
X008410Y013050D02*
X008106Y013050D01*
X008184Y013343D02*
X008248Y013343D01*
X008306Y013284D02*
X007050Y013284D01*
X007050Y013226D02*
X008365Y013226D01*
X008410Y013167D02*
X007050Y013167D01*
X007050Y013109D02*
X008410Y013109D01*
X008530Y013230D02*
X008080Y013680D01*
X007680Y013680D01*
X007241Y014045D02*
X007050Y014045D01*
X007050Y013986D02*
X007135Y013986D01*
X007076Y013928D02*
X007050Y013928D01*
X006810Y014396D02*
X004798Y014396D01*
X004798Y014454D02*
X006810Y014454D01*
X006810Y014513D02*
X004798Y014513D01*
X004798Y014571D02*
X006810Y014571D01*
X006810Y014630D02*
X004798Y014630D01*
X004798Y014688D02*
X006810Y014688D01*
X006810Y014747D02*
X004798Y014747D01*
X004788Y014805D02*
X006810Y014805D01*
X006810Y014864D02*
X004650Y014864D01*
X004650Y014922D02*
X006810Y014922D01*
X006810Y014981D02*
X004650Y014981D01*
X004650Y015039D02*
X006810Y015039D01*
X006810Y015098D02*
X004650Y015098D01*
X004650Y015156D02*
X006810Y015156D01*
X006810Y015215D02*
X004650Y015215D01*
X004650Y015273D02*
X006810Y015273D01*
X006810Y015332D02*
X004650Y015332D01*
X004650Y015390D02*
X006810Y015390D01*
X006810Y015449D02*
X004650Y015449D01*
X004650Y015507D02*
X006810Y015507D01*
X006810Y015566D02*
X004650Y015566D01*
X004650Y015624D02*
X006810Y015624D01*
X006810Y015683D02*
X004650Y015683D01*
X004650Y015741D02*
X006810Y015741D01*
X006810Y015800D02*
X004650Y015800D01*
X004650Y015858D02*
X006810Y015858D01*
X006810Y015917D02*
X004650Y015917D01*
X004650Y015975D02*
X006810Y015975D01*
X007303Y017906D02*
X004650Y017906D01*
X004650Y017964D02*
X007247Y017964D01*
X007223Y018023D02*
X004650Y018023D01*
X004650Y018081D02*
X007199Y018081D01*
X007190Y018140D02*
X004650Y018140D01*
X004650Y018198D02*
X007190Y018198D01*
X007190Y018257D02*
X004650Y018257D01*
X004650Y018315D02*
X007214Y018315D01*
X007238Y018374D02*
X004650Y018374D01*
X004650Y018432D02*
X007281Y018432D01*
X007339Y018491D02*
X004650Y018491D01*
X004650Y018549D02*
X007452Y018549D01*
X007455Y019310D02*
X004650Y019310D01*
X004650Y019368D02*
X007340Y019368D01*
X007282Y019427D02*
X004650Y019427D01*
X004650Y019485D02*
X007239Y019485D01*
X007190Y019661D02*
X004650Y019661D01*
X004650Y019719D02*
X007190Y019719D01*
X007198Y019778D02*
X004650Y019778D01*
X004650Y019836D02*
X007223Y019836D01*
X007247Y019895D02*
X004650Y019895D01*
X004650Y019953D02*
X007302Y019953D01*
X008295Y017555D02*
X008660Y017555D01*
X008660Y017613D02*
X004650Y017613D01*
X004650Y017672D02*
X008660Y017672D01*
X008660Y017730D02*
X004650Y017730D01*
X004410Y019544D02*
X003477Y019544D01*
X003498Y019602D02*
X004410Y019602D01*
X004410Y019661D02*
X003498Y019661D01*
X003498Y019719D02*
X004410Y019719D01*
X004410Y019778D02*
X003498Y019778D01*
X003498Y019836D02*
X004410Y019836D01*
X004410Y019895D02*
X003498Y019895D01*
X003498Y019953D02*
X004410Y019953D01*
X004410Y020012D02*
X003482Y020012D01*
X003516Y020480D02*
X002599Y020480D01*
X002550Y020421D02*
X004410Y020421D01*
X004410Y020363D02*
X002550Y020363D01*
X002550Y020304D02*
X004410Y020304D01*
X004410Y020246D02*
X002550Y020246D01*
X002550Y020187D02*
X004410Y020187D01*
X004410Y020129D02*
X002550Y020129D01*
X002550Y020070D02*
X004410Y020070D01*
X004410Y020480D02*
X004044Y020480D01*
X004067Y020538D02*
X004410Y020538D01*
X004410Y020597D02*
X004067Y020597D01*
X004067Y020655D02*
X004410Y020655D01*
X004410Y020714D02*
X004067Y020714D01*
X004067Y020772D02*
X004410Y020772D01*
X004410Y020831D02*
X004067Y020831D01*
X004067Y020889D02*
X004410Y020889D01*
X004410Y020948D02*
X004067Y020948D01*
X004031Y021006D02*
X004410Y021006D01*
X004410Y021065D02*
X002868Y021065D01*
X002868Y021123D02*
X004410Y021123D01*
X004410Y021182D02*
X002868Y021182D01*
X002864Y021240D02*
X003543Y021240D01*
X003493Y021299D02*
X002864Y021299D01*
X002864Y021357D02*
X003493Y021357D01*
X003493Y021416D02*
X002864Y021416D01*
X002864Y021474D02*
X003493Y021474D01*
X003493Y021533D02*
X002864Y021533D01*
X002864Y021591D02*
X003493Y021591D01*
X003493Y021650D02*
X003132Y021650D01*
X003165Y021708D02*
X003493Y021708D01*
X003502Y021767D02*
X003169Y021767D01*
X003169Y021780D02*
X002980Y021780D01*
X003169Y021780D01*
X003169Y021825D02*
X003515Y021825D01*
X003533Y021977D02*
X003780Y021730D01*
X003780Y021524D01*
X004017Y021240D02*
X004410Y021240D01*
X004410Y021299D02*
X004067Y021299D01*
X004067Y021357D02*
X004383Y021357D01*
X004325Y021416D02*
X004067Y021416D01*
X004067Y021474D02*
X004266Y021474D01*
X004208Y021533D02*
X004067Y021533D01*
X004067Y021591D02*
X004149Y021591D01*
X004091Y021650D02*
X004067Y021650D01*
X004196Y021884D02*
X009450Y021884D01*
X009450Y021942D02*
X004138Y021942D01*
X004079Y022001D02*
X009450Y022001D01*
X009450Y022059D02*
X004021Y022059D01*
X003962Y022118D02*
X009450Y022118D01*
X009450Y022176D02*
X003904Y022176D01*
X003845Y022235D02*
X009450Y022235D01*
X009450Y022293D02*
X003787Y022293D01*
X003658Y022410D02*
X009450Y022410D01*
X009450Y022352D02*
X003643Y022352D01*
X003658Y022469D02*
X009450Y022469D01*
X009450Y022527D02*
X003658Y022527D01*
X003658Y022480D02*
X003478Y022480D01*
X003478Y022679D01*
X003478Y022480D01*
X003478Y022480D01*
X003478Y022480D01*
X003658Y022480D01*
X003652Y022586D02*
X009450Y022586D01*
X009450Y022644D02*
X003616Y022644D01*
X003478Y022644D02*
X003478Y022644D01*
X003478Y022586D02*
X003478Y022586D01*
X003478Y022527D02*
X003478Y022527D01*
X003341Y022644D02*
X003250Y022644D01*
X003250Y022703D02*
X009450Y022703D01*
X009450Y022761D02*
X003250Y022761D01*
X003250Y022820D02*
X007063Y022820D01*
X007040Y022878D02*
X003250Y022878D01*
X003250Y022937D02*
X007040Y022937D01*
X007040Y022995D02*
X003250Y022995D01*
X003282Y022480D02*
X003080Y022480D01*
X002983Y021980D02*
X002980Y021977D01*
X003533Y021977D01*
X003529Y021006D02*
X002874Y021006D01*
X002830Y020880D02*
X002880Y020830D01*
X003524Y020830D01*
X003780Y020736D01*
X003574Y020880D01*
X003630Y020836D02*
X003780Y020736D01*
X003493Y020655D02*
X002775Y020655D01*
X002830Y020710D02*
X002830Y020710D01*
X002716Y020597D02*
X003493Y020597D01*
X003493Y020538D02*
X002658Y020538D01*
X002494Y020714D02*
X000410Y020714D01*
X000410Y020772D02*
X002552Y020772D01*
X002611Y020831D02*
X000410Y020831D01*
X000410Y020889D02*
X002651Y020889D01*
X002532Y020948D02*
X002532Y020948D01*
X002532Y021006D02*
X002532Y021006D01*
X002532Y021065D02*
X002532Y021065D01*
X002532Y021123D02*
X002532Y021123D01*
X002532Y021130D02*
X002352Y021130D01*
X002532Y021130D01*
X002532Y021130D01*
X002532Y021182D02*
X002532Y021182D01*
X002532Y021240D02*
X002532Y021240D01*
X002532Y021299D02*
X002532Y021299D01*
X002359Y021240D02*
X000410Y021240D01*
X000410Y021182D02*
X002352Y021182D01*
X002352Y021123D02*
X000410Y021123D01*
X000410Y021065D02*
X002352Y021065D01*
X002364Y021006D02*
X000410Y021006D01*
X000410Y020948D02*
X002419Y020948D01*
X002435Y020655D02*
X000410Y020655D01*
X000410Y020597D02*
X002377Y020597D01*
X002318Y020538D02*
X000410Y020538D01*
X000410Y020480D02*
X002310Y020480D01*
X002310Y020421D02*
X000410Y020421D01*
X000410Y020363D02*
X002310Y020363D01*
X002310Y020304D02*
X000410Y020304D01*
X000410Y020246D02*
X002310Y020246D01*
X002310Y020187D02*
X000410Y020187D01*
X000410Y020129D02*
X002310Y020129D01*
X002310Y020070D02*
X000410Y020070D01*
X000410Y020012D02*
X000828Y020012D01*
X000812Y019953D02*
X000410Y019953D01*
X000410Y019895D02*
X000812Y019895D01*
X000812Y019836D02*
X000410Y019836D01*
X000410Y019778D02*
X000812Y019778D01*
X000812Y019719D02*
X000410Y019719D01*
X000410Y019661D02*
X000812Y019661D01*
X000812Y019602D02*
X000410Y019602D01*
X000410Y019544D02*
X000833Y019544D01*
X001200Y019485D02*
X002310Y019485D01*
X002310Y019427D02*
X001200Y019427D01*
X001200Y019368D02*
X002310Y019368D01*
X002310Y019310D02*
X001200Y019310D01*
X001200Y019251D02*
X002310Y019251D01*
X002310Y019193D02*
X001200Y019193D01*
X001200Y019134D02*
X002310Y019134D01*
X002310Y019076D02*
X001200Y019076D01*
X001200Y019017D02*
X002310Y019017D01*
X002310Y018959D02*
X001200Y018959D01*
X001200Y018900D02*
X002310Y018900D01*
X002310Y018842D02*
X001200Y018842D01*
X001200Y018783D02*
X002310Y018783D01*
X002310Y018725D02*
X001200Y018725D01*
X001200Y018666D02*
X002310Y018666D01*
X002310Y018608D02*
X001200Y018608D01*
X001200Y018549D02*
X002310Y018549D01*
X002310Y018491D02*
X001200Y018491D01*
X001200Y018432D02*
X002310Y018432D01*
X002310Y018374D02*
X001200Y018374D01*
X001200Y018315D02*
X002310Y018315D01*
X002257Y018257D02*
X001200Y018257D01*
X001200Y018198D02*
X002257Y018198D01*
X002257Y018140D02*
X001200Y018140D01*
X001200Y018081D02*
X002257Y018081D01*
X002257Y018023D02*
X001200Y018023D01*
X001200Y017964D02*
X002257Y017964D01*
X002257Y017906D02*
X001200Y017906D01*
X001200Y017847D02*
X002257Y017847D01*
X002257Y017789D02*
X001200Y017789D01*
X001200Y017730D02*
X002257Y017730D01*
X002257Y017672D02*
X001200Y017672D01*
X001200Y017613D02*
X002257Y017613D01*
X002257Y017555D02*
X001200Y017555D01*
X001200Y017496D02*
X002257Y017496D01*
X002301Y017438D02*
X001200Y017438D01*
X001200Y017379D02*
X002310Y017379D01*
X002310Y017321D02*
X001200Y017321D01*
X001200Y017262D02*
X002310Y017262D01*
X002310Y017204D02*
X001200Y017204D01*
X001200Y017145D02*
X002310Y017145D01*
X002310Y017087D02*
X001200Y017087D01*
X001200Y017028D02*
X002310Y017028D01*
X002310Y016970D02*
X001200Y016970D01*
X001200Y016911D02*
X002310Y016911D01*
X002310Y016853D02*
X001200Y016853D01*
X001200Y016794D02*
X002310Y016794D01*
X002310Y016736D02*
X001200Y016736D01*
X001200Y016677D02*
X002310Y016677D01*
X002310Y016619D02*
X001200Y016619D01*
X001200Y016560D02*
X002310Y016560D01*
X002282Y016502D02*
X001200Y016502D01*
X001200Y016443D02*
X002223Y016443D01*
X002165Y016385D02*
X001200Y016385D01*
X001200Y016326D02*
X002106Y016326D01*
X002048Y016268D02*
X001200Y016268D01*
X001200Y016209D02*
X001989Y016209D01*
X001931Y016151D02*
X001200Y016151D01*
X001200Y016092D02*
X001872Y016092D01*
X001814Y016034D02*
X001200Y016034D01*
X001200Y015975D02*
X001810Y015975D01*
X001810Y015917D02*
X001200Y015917D01*
X001200Y015858D02*
X001810Y015858D01*
X001810Y015800D02*
X001200Y015800D01*
X002550Y017262D02*
X002878Y017262D01*
X002820Y017321D02*
X002550Y017321D01*
X002550Y017379D02*
X002810Y017379D01*
X002550Y018315D02*
X003078Y018315D01*
X003078Y018374D02*
X002550Y018374D01*
X002550Y018432D02*
X003078Y018432D01*
X003078Y018491D02*
X002550Y018491D01*
X002550Y018549D02*
X003078Y018549D01*
X003078Y018608D02*
X002550Y018608D01*
X002550Y018666D02*
X003078Y018666D01*
X003078Y018725D02*
X002550Y018725D01*
X002550Y018783D02*
X003078Y018783D01*
X003078Y018842D02*
X002550Y018842D01*
X002550Y018900D02*
X003078Y018900D01*
X003078Y018959D02*
X002550Y018959D01*
X002550Y019017D02*
X003078Y019017D01*
X003078Y019076D02*
X002550Y019076D01*
X002550Y019134D02*
X003078Y019134D01*
X003078Y019193D02*
X002550Y019193D01*
X002550Y019251D02*
X003078Y019251D01*
X003078Y019310D02*
X002550Y019310D01*
X002550Y019368D02*
X003078Y019368D01*
X003078Y019427D02*
X002550Y019427D01*
X002550Y019485D02*
X003078Y019485D01*
X002983Y019544D02*
X002550Y019544D01*
X002550Y019602D02*
X002962Y019602D01*
X002962Y019661D02*
X002550Y019661D01*
X002550Y019719D02*
X002962Y019719D01*
X002962Y019778D02*
X002550Y019778D01*
X002550Y019836D02*
X002962Y019836D01*
X002962Y019895D02*
X002550Y019895D01*
X002550Y019953D02*
X002962Y019953D01*
X002978Y020012D02*
X002550Y020012D01*
X002310Y020012D02*
X001332Y020012D01*
X001348Y019953D02*
X002310Y019953D01*
X002310Y019895D02*
X001348Y019895D01*
X001348Y019836D02*
X002310Y019836D01*
X002310Y019778D02*
X001348Y019778D01*
X001348Y019719D02*
X002310Y019719D01*
X002310Y019661D02*
X001348Y019661D01*
X001348Y019602D02*
X002310Y019602D01*
X002310Y019544D02*
X001327Y019544D01*
X002980Y021611D02*
X002980Y021780D01*
X002980Y021780D01*
X002980Y021611D01*
X002980Y021650D02*
X002980Y021650D01*
X002980Y021708D02*
X002980Y021708D01*
X002980Y021767D02*
X002980Y021767D01*
X002980Y021780D02*
X002980Y021780D01*
X004255Y021825D02*
X009450Y021825D01*
X009450Y021767D02*
X004313Y021767D01*
X004372Y021708D02*
X009450Y021708D01*
X009450Y021650D02*
X004430Y021650D01*
X004489Y021591D02*
X009450Y021591D01*
X009450Y021533D02*
X004547Y021533D01*
X004606Y021474D02*
X009450Y021474D01*
X009450Y021416D02*
X004650Y021416D01*
X004650Y021357D02*
X009450Y021357D01*
X009450Y021299D02*
X004650Y021299D01*
X004650Y021240D02*
X009450Y021240D01*
X009450Y021182D02*
X004650Y021182D01*
X004650Y020187D02*
X009450Y020187D01*
X009450Y020129D02*
X004650Y020129D01*
X005205Y014162D02*
X005219Y014162D01*
X004968Y013630D02*
X004530Y013630D01*
X004798Y013752D02*
X004832Y013752D01*
X004842Y013811D02*
X004798Y013811D01*
X004795Y013869D02*
X004774Y013869D01*
X004968Y013630D02*
X005008Y013589D01*
X005288Y012056D02*
X006262Y012056D01*
X006262Y011997D02*
X005298Y011997D01*
X005298Y011939D02*
X006262Y011939D01*
X006262Y011880D02*
X005298Y011880D01*
X005298Y011822D02*
X006305Y011822D01*
X006119Y011471D02*
X006660Y011471D01*
X006660Y011529D02*
X004950Y011529D01*
X004950Y011471D02*
X005328Y011471D01*
X005271Y011588D02*
X006660Y011588D01*
X006660Y011646D02*
X005298Y011646D01*
X005298Y011705D02*
X006660Y011705D01*
X006660Y011763D02*
X005298Y011763D01*
X005408Y011354D02*
X006038Y011354D01*
X006038Y011295D02*
X005408Y011295D01*
X005408Y011237D02*
X006038Y011237D01*
X006038Y011178D02*
X005408Y011178D01*
X005408Y011120D02*
X006038Y011120D01*
X006038Y011061D02*
X005408Y011061D01*
X005408Y011003D02*
X006038Y011003D01*
X006038Y010944D02*
X005408Y010944D01*
X005408Y010886D02*
X006038Y010886D01*
X006038Y010827D02*
X005408Y010827D01*
X005408Y010769D02*
X006038Y010769D01*
X006032Y010359D02*
X006100Y010359D01*
X005973Y010301D02*
X006660Y010301D01*
X006660Y010359D02*
X006541Y010359D01*
X006580Y010480D02*
X006354Y010480D01*
X006338Y010496D01*
X006394Y010886D02*
X006660Y010886D01*
X006660Y010944D02*
X006591Y010944D01*
X006590Y011003D02*
X006660Y011003D01*
X006660Y011061D02*
X006562Y011061D01*
X006514Y011120D02*
X006660Y011120D01*
X006660Y011178D02*
X006551Y011178D01*
X006551Y011237D02*
X006660Y011237D01*
X006660Y011295D02*
X006551Y011295D01*
X006551Y011354D02*
X006660Y011354D01*
X006660Y011412D02*
X006548Y011412D01*
X006780Y011830D02*
X006530Y012080D01*
X006798Y012056D02*
X006810Y012056D01*
X006810Y012114D02*
X006798Y012114D01*
X006798Y012173D02*
X006810Y012173D01*
X006810Y012231D02*
X006798Y012231D01*
X006798Y012290D02*
X006810Y012290D01*
X006810Y012348D02*
X006745Y012348D01*
X006798Y011997D02*
X006810Y011997D01*
X006780Y011830D02*
X006780Y010680D01*
X006580Y010480D01*
X006582Y010652D02*
X006522Y010652D01*
X006555Y010710D02*
X006640Y010710D01*
X006660Y010769D02*
X006587Y010769D01*
X006591Y010827D02*
X006660Y010827D01*
X006900Y010359D02*
X007362Y010359D01*
X007362Y010301D02*
X006900Y010301D01*
X006900Y010242D02*
X007362Y010242D01*
X007362Y010184D02*
X006900Y010184D01*
X006900Y010125D02*
X007362Y010125D01*
X007410Y010067D02*
X006900Y010067D01*
X007050Y011295D02*
X007290Y011295D01*
X007155Y011354D02*
X007050Y011354D01*
X007050Y011412D02*
X007096Y011412D01*
X007050Y012348D02*
X007162Y012348D01*
X007102Y012407D02*
X007050Y012407D01*
X007050Y012933D02*
X007082Y012933D01*
X007050Y012992D02*
X007140Y012992D01*
X007050Y013050D02*
X007254Y013050D01*
X007176Y013343D02*
X007050Y013343D01*
X007050Y013401D02*
X007107Y013401D01*
X006238Y013196D02*
X006230Y013187D01*
X005060Y009950D02*
X002683Y009950D01*
X002894Y010886D02*
X002950Y010886D01*
X002897Y010944D02*
X002850Y010944D01*
X002850Y011003D02*
X002897Y011003D01*
X002897Y011061D02*
X002850Y011061D01*
X002850Y011120D02*
X002897Y011120D01*
X002905Y011178D02*
X002850Y011178D01*
X002891Y007902D02*
X004919Y007902D01*
X004912Y007844D02*
X002898Y007844D01*
X002898Y007785D02*
X004912Y007785D01*
X004912Y007727D02*
X002898Y007727D01*
X002898Y007668D02*
X004912Y007668D01*
X004912Y007610D02*
X002898Y007610D01*
X002898Y007551D02*
X004912Y007551D01*
X004912Y007493D02*
X002898Y007493D01*
X002868Y007434D02*
X004942Y007434D01*
X005060Y007376D02*
X002750Y007376D01*
X002750Y007317D02*
X005060Y007317D01*
X005060Y007259D02*
X002750Y007259D01*
X002750Y007200D02*
X005060Y007200D01*
X005060Y007142D02*
X003448Y007142D01*
X003448Y007083D02*
X005060Y007083D01*
X005060Y007025D02*
X003448Y007025D01*
X003448Y006966D02*
X005060Y006966D01*
X005060Y006908D02*
X003448Y006908D01*
X003448Y006849D02*
X005060Y006849D01*
X005060Y006791D02*
X003448Y006791D01*
X003448Y006732D02*
X005060Y006732D01*
X005060Y006674D02*
X004860Y006674D01*
X004848Y006686D02*
X004819Y006703D01*
X004786Y006712D01*
X004694Y006712D01*
X004694Y006360D01*
X004899Y006360D01*
X004899Y006599D01*
X004890Y006632D01*
X004873Y006661D01*
X004848Y006686D01*
X004894Y006615D02*
X005001Y006615D01*
X005001Y006557D02*
X004899Y006557D01*
X004899Y006498D02*
X005001Y006498D01*
X005001Y006440D02*
X004899Y006440D01*
X004899Y006381D02*
X005001Y006381D01*
X005001Y006323D02*
X004899Y006323D01*
X004899Y006264D02*
X005001Y006264D01*
X005001Y006206D02*
X004899Y006206D01*
X004899Y006147D02*
X005001Y006147D01*
X005001Y006089D02*
X004898Y006089D01*
X004873Y006030D02*
X005043Y006030D01*
X005180Y006345D02*
X005180Y007680D01*
X005300Y007376D02*
X006210Y007376D01*
X006210Y007434D02*
X005418Y007434D01*
X005448Y007493D02*
X006210Y007493D01*
X006210Y007551D02*
X005448Y007551D01*
X005448Y007610D02*
X006210Y007610D01*
X006210Y007668D02*
X005448Y007668D01*
X005448Y007727D02*
X006210Y007727D01*
X006210Y007785D02*
X005448Y007785D01*
X005448Y007844D02*
X006210Y007844D01*
X006210Y007902D02*
X005441Y007902D01*
X005300Y007317D02*
X006210Y007317D01*
X006210Y007259D02*
X005935Y007259D01*
X005948Y007245D02*
X005895Y007298D01*
X005465Y007298D01*
X005412Y007245D01*
X005412Y006815D01*
X005465Y006762D01*
X005560Y006762D01*
X005560Y006672D01*
X005554Y006672D01*
X005501Y006619D01*
X005501Y006072D01*
X005554Y006019D01*
X005806Y006019D01*
X005859Y006072D01*
X005859Y006619D01*
X005806Y006672D01*
X005800Y006672D01*
X005800Y006762D01*
X005895Y006762D01*
X005948Y006815D01*
X005948Y007245D01*
X005948Y007200D02*
X006210Y007200D01*
X006210Y007142D02*
X005948Y007142D01*
X005948Y007083D02*
X006210Y007083D01*
X006210Y007025D02*
X005948Y007025D01*
X005948Y006966D02*
X006210Y006966D01*
X006210Y006908D02*
X005948Y006908D01*
X005948Y006849D02*
X006210Y006849D01*
X006210Y006791D02*
X005924Y006791D01*
X005859Y006615D02*
X006210Y006615D01*
X006210Y006557D02*
X005859Y006557D01*
X005859Y006498D02*
X006210Y006498D01*
X006251Y006440D02*
X005859Y006440D01*
X005859Y006381D02*
X006309Y006381D01*
X006368Y006323D02*
X005859Y006323D01*
X005859Y006264D02*
X006426Y006264D01*
X006485Y006206D02*
X005859Y006206D01*
X005859Y006147D02*
X006543Y006147D01*
X006602Y006089D02*
X005859Y006089D01*
X005817Y006030D02*
X006660Y006030D01*
X006980Y006180D02*
X006530Y006630D01*
X006530Y008130D01*
X006680Y008280D01*
X006650Y007961D02*
X007049Y007961D01*
X007025Y008019D02*
X006903Y008019D01*
X006948Y008078D02*
X007000Y008078D01*
X006990Y008136D02*
X006948Y008136D01*
X006948Y008195D02*
X006990Y008195D01*
X006990Y008253D02*
X006948Y008253D01*
X006948Y008312D02*
X007012Y008312D01*
X007037Y008370D02*
X006948Y008370D01*
X006948Y008429D02*
X007077Y008429D01*
X007135Y008487D02*
X006948Y008487D01*
X006898Y008546D02*
X007243Y008546D01*
X007106Y007902D02*
X006650Y007902D01*
X006650Y007844D02*
X007173Y007844D01*
X007257Y007551D02*
X006650Y007551D01*
X006650Y007493D02*
X007141Y007493D01*
X007082Y007434D02*
X006650Y007434D01*
X006650Y007376D02*
X007039Y007376D01*
X007015Y007317D02*
X006650Y007317D01*
X006650Y007259D02*
X006990Y007259D01*
X006990Y007200D02*
X006650Y007200D01*
X006650Y007142D02*
X006990Y007142D01*
X006998Y007083D02*
X006650Y007083D01*
X006650Y007025D02*
X007022Y007025D01*
X007046Y006966D02*
X006650Y006966D01*
X006650Y006908D02*
X007101Y006908D01*
X007160Y006849D02*
X006650Y006849D01*
X006650Y006791D02*
X007301Y006791D01*
X007270Y006557D02*
X006773Y006557D01*
X006715Y006615D02*
X008360Y006615D01*
X008360Y006557D02*
X008090Y006557D01*
X008214Y006498D02*
X008360Y006498D01*
X008360Y006440D02*
X008272Y006440D01*
X008319Y006381D02*
X008360Y006381D01*
X008480Y006330D02*
X008330Y006180D01*
X007680Y006180D01*
X006980Y006180D01*
X007007Y006323D02*
X007017Y006323D01*
X007041Y006381D02*
X006949Y006381D01*
X006890Y006440D02*
X007088Y006440D01*
X007146Y006498D02*
X006832Y006498D01*
X006656Y006674D02*
X008360Y006674D01*
X008360Y006732D02*
X006650Y006732D01*
X006950Y006030D02*
X007020Y006030D01*
X007044Y005972D02*
X006950Y005972D01*
X006950Y005913D02*
X007095Y005913D01*
X007154Y005855D02*
X006950Y005855D01*
X006950Y005796D02*
X007288Y005796D01*
X007283Y005562D02*
X006950Y005562D01*
X006950Y005504D02*
X007152Y005504D01*
X007093Y005445D02*
X006985Y005445D01*
X007043Y005387D02*
X007043Y005387D01*
X007030Y005230D02*
X007630Y005230D01*
X007680Y005180D01*
X008077Y005562D02*
X008710Y005562D01*
X008710Y005504D02*
X008208Y005504D01*
X008267Y005445D02*
X008710Y005445D01*
X008710Y005387D02*
X008317Y005387D01*
X008341Y005328D02*
X008710Y005328D01*
X008710Y005270D02*
X008365Y005270D01*
X008370Y005211D02*
X008710Y005211D01*
X008710Y005153D02*
X008370Y005153D01*
X008367Y005094D02*
X008710Y005094D01*
X008710Y005036D02*
X008342Y005036D01*
X008318Y004977D02*
X008710Y004977D01*
X008710Y004919D02*
X008270Y004919D01*
X008212Y004860D02*
X008710Y004860D01*
X008710Y004802D02*
X008085Y004802D01*
X008064Y004568D02*
X008498Y004568D01*
X008556Y004626D02*
X000410Y004626D01*
X000410Y004685D02*
X008615Y004685D01*
X008673Y004743D02*
X000410Y004743D01*
X000410Y003690D02*
X009450Y003690D01*
X009450Y003632D02*
X000410Y003632D01*
X000410Y003573D02*
X007204Y003573D01*
X007215Y003578D02*
X007155Y003548D01*
X007100Y003508D01*
X007052Y003460D01*
X007012Y003405D01*
X006982Y003345D01*
X006961Y003281D01*
X006950Y003214D01*
X006950Y003210D01*
X007650Y003210D01*
X007650Y003610D01*
X007346Y003610D01*
X007279Y003599D01*
X007215Y003578D01*
X007109Y003515D02*
X000410Y003515D01*
X000410Y003456D02*
X007049Y003456D01*
X007008Y003398D02*
X000410Y003398D01*
X000410Y003339D02*
X006980Y003339D01*
X006961Y003281D02*
X000410Y003281D01*
X000410Y003222D02*
X006951Y003222D01*
X006950Y003150D02*
X006950Y003146D01*
X006961Y003079D01*
X006982Y003015D01*
X007012Y002955D01*
X007052Y002900D01*
X007100Y002852D01*
X007155Y002812D01*
X007215Y002782D01*
X007279Y002761D01*
X007346Y002750D01*
X007650Y002750D01*
X007650Y003150D01*
X007710Y003150D01*
X007710Y003210D01*
X007650Y003210D01*
X007650Y003150D01*
X006950Y003150D01*
X006957Y003105D02*
X000410Y003105D01*
X000410Y003047D02*
X006971Y003047D01*
X006995Y002988D02*
X000410Y002988D01*
X000410Y002930D02*
X007030Y002930D01*
X007081Y002871D02*
X000410Y002871D01*
X000410Y002813D02*
X007154Y002813D01*
X007321Y002754D02*
X000410Y002754D01*
X000410Y002696D02*
X009450Y002696D01*
X009450Y002754D02*
X008039Y002754D01*
X008014Y002750D02*
X008081Y002761D01*
X008145Y002782D01*
X008205Y002812D01*
X008260Y002852D01*
X008308Y002900D01*
X008348Y002955D01*
X008378Y003015D01*
X008399Y003079D01*
X008410Y003146D01*
X008410Y003150D01*
X007710Y003150D01*
X007710Y002750D01*
X008014Y002750D01*
X008206Y002813D02*
X009450Y002813D01*
X009450Y002871D02*
X008279Y002871D01*
X008330Y002930D02*
X009450Y002930D01*
X009450Y002988D02*
X008365Y002988D01*
X008389Y003047D02*
X009450Y003047D01*
X009450Y003105D02*
X008403Y003105D01*
X008410Y003210D02*
X008410Y003214D01*
X008399Y003281D01*
X008378Y003345D01*
X008348Y003405D01*
X008308Y003460D01*
X008260Y003508D01*
X008205Y003548D01*
X008145Y003578D01*
X008081Y003599D01*
X008014Y003610D01*
X007710Y003610D01*
X007710Y003210D01*
X008410Y003210D01*
X008409Y003222D02*
X009450Y003222D01*
X009450Y003164D02*
X007710Y003164D01*
X007710Y003222D02*
X007650Y003222D01*
X007650Y003164D02*
X000410Y003164D01*
X000410Y002637D02*
X009450Y002637D01*
X009450Y002579D02*
X000410Y002579D01*
X000410Y002520D02*
X009450Y002520D01*
X009450Y002462D02*
X000410Y002462D01*
X000410Y002403D02*
X009450Y002403D01*
X009450Y002345D02*
X000410Y002345D01*
X000410Y002286D02*
X009450Y002286D01*
X009450Y002228D02*
X000410Y002228D01*
X000410Y002169D02*
X009450Y002169D01*
X009450Y002111D02*
X000410Y002111D01*
X000410Y002052D02*
X009450Y002052D01*
X009450Y001994D02*
X000410Y001994D01*
X000410Y001935D02*
X009450Y001935D01*
X009450Y001877D02*
X000410Y001877D01*
X000410Y001818D02*
X009450Y001818D01*
X009450Y001760D02*
X000410Y001760D01*
X000410Y001701D02*
X009450Y001701D01*
X009450Y001643D02*
X000410Y001643D01*
X000410Y001584D02*
X009450Y001584D01*
X009450Y001526D02*
X000410Y001526D01*
X000410Y001467D02*
X009450Y001467D01*
X009450Y001409D02*
X000410Y001409D01*
X000410Y001350D02*
X009450Y001350D01*
X009450Y001292D02*
X000410Y001292D01*
X000410Y001233D02*
X003371Y001233D01*
X003372Y001236D02*
X003355Y001206D01*
X003346Y001173D01*
X003346Y000935D01*
X003697Y000935D01*
X003697Y000875D01*
X003346Y000875D01*
X003346Y000637D01*
X003355Y000604D01*
X003372Y000574D01*
X003396Y000550D01*
X003426Y000533D01*
X003459Y000524D01*
X003697Y000524D01*
X003697Y000875D01*
X003757Y000875D01*
X003757Y000524D01*
X003995Y000524D01*
X004028Y000533D01*
X004058Y000550D01*
X004082Y000574D01*
X004099Y000604D01*
X004108Y000637D01*
X004108Y000875D01*
X003757Y000875D01*
X003757Y000935D01*
X003697Y000935D01*
X003697Y001286D01*
X003459Y001286D01*
X003426Y001277D01*
X003396Y001260D01*
X003372Y001236D01*
X003347Y001175D02*
X000410Y001175D01*
X000410Y001116D02*
X003346Y001116D01*
X003346Y001058D02*
X000410Y001058D01*
X000410Y000999D02*
X003346Y000999D01*
X003346Y000941D02*
X000410Y000941D01*
X000410Y000882D02*
X003697Y000882D01*
X003697Y000824D02*
X003757Y000824D01*
X003757Y000882D02*
X009450Y000882D01*
X009450Y000824D02*
X004108Y000824D01*
X004108Y000765D02*
X009450Y000765D01*
X009450Y000707D02*
X004108Y000707D01*
X004108Y000648D02*
X009450Y000648D01*
X009450Y000590D02*
X004091Y000590D01*
X004021Y000531D02*
X009450Y000531D01*
X009450Y000473D02*
X000410Y000473D01*
X000410Y000531D02*
X003434Y000531D01*
X003364Y000590D02*
X000410Y000590D01*
X000410Y000648D02*
X003346Y000648D01*
X003346Y000707D02*
X000410Y000707D01*
X000410Y000765D02*
X003346Y000765D01*
X003346Y000824D02*
X000410Y000824D01*
X000410Y000414D02*
X009450Y000414D01*
X009450Y000410D02*
X009450Y025150D01*
X000410Y025150D01*
X000410Y000410D01*
X009450Y000410D01*
X009450Y000941D02*
X004108Y000941D01*
X004108Y000935D02*
X004108Y001173D01*
X004099Y001206D01*
X004082Y001236D01*
X004058Y001260D01*
X004028Y001277D01*
X003995Y001286D01*
X003757Y001286D01*
X003757Y000935D01*
X004108Y000935D01*
X004108Y000999D02*
X009450Y000999D01*
X009450Y001058D02*
X004108Y001058D01*
X004108Y001116D02*
X009450Y001116D01*
X009450Y001175D02*
X004108Y001175D01*
X004084Y001233D02*
X009450Y001233D01*
X009450Y003281D02*
X008399Y003281D01*
X008380Y003339D02*
X009450Y003339D01*
X009450Y003398D02*
X008352Y003398D01*
X008311Y003456D02*
X009450Y003456D01*
X009450Y003515D02*
X008251Y003515D01*
X008156Y003573D02*
X009450Y003573D01*
X008830Y004730D02*
X008830Y006030D01*
X009030Y006230D01*
X009030Y007380D01*
X008930Y007480D01*
X008930Y015380D01*
X008980Y015430D01*
X008810Y015156D02*
X008724Y015156D01*
X008712Y015215D02*
X008700Y015215D01*
X008700Y015273D02*
X008712Y015273D01*
X008712Y015332D02*
X008700Y015332D01*
X008700Y015390D02*
X008712Y015390D01*
X008712Y015449D02*
X008700Y015449D01*
X008700Y015507D02*
X008712Y015507D01*
X008712Y015566D02*
X008700Y015566D01*
X008700Y015624D02*
X008712Y015624D01*
X008702Y015683D02*
X008749Y015683D01*
X008580Y015730D02*
X008780Y015930D01*
X008780Y019330D01*
X008430Y019680D01*
X008415Y017496D02*
X008660Y017496D01*
X008660Y017438D02*
X008474Y017438D01*
X008520Y017379D02*
X008660Y017379D01*
X008660Y017321D02*
X008544Y017321D01*
X008568Y017262D02*
X008660Y017262D01*
X008660Y017204D02*
X008570Y017204D01*
X008570Y017145D02*
X008660Y017145D01*
X008660Y017087D02*
X008563Y017087D01*
X008539Y017028D02*
X008660Y017028D01*
X008660Y016970D02*
X008515Y016970D01*
X008463Y016911D02*
X008660Y016911D01*
X008660Y016853D02*
X008404Y016853D01*
X008580Y015730D02*
X008580Y015130D01*
X008730Y014980D01*
X008730Y007380D01*
X008780Y007330D01*
X008780Y007180D01*
X008780Y007030D01*
X008480Y006730D01*
X008480Y006330D01*
X008600Y006323D02*
X008910Y006323D01*
X008910Y006381D02*
X008600Y006381D01*
X008600Y006440D02*
X008910Y006440D01*
X008910Y006498D02*
X008600Y006498D01*
X008600Y006557D02*
X008910Y006557D01*
X008910Y006615D02*
X008600Y006615D01*
X008600Y006674D02*
X008910Y006674D01*
X008910Y006732D02*
X008652Y006732D01*
X008710Y006791D02*
X008910Y006791D01*
X008910Y006849D02*
X008769Y006849D01*
X008827Y006908D02*
X008910Y006908D01*
X008910Y006966D02*
X008886Y006966D01*
X008900Y007025D02*
X008910Y007025D01*
X008780Y007180D02*
X008780Y007180D01*
X008580Y007180D02*
X007680Y007180D01*
X008059Y006791D02*
X008371Y006791D01*
X008429Y006849D02*
X008200Y006849D01*
X008259Y006908D02*
X008488Y006908D01*
X008546Y006966D02*
X008314Y006966D01*
X008338Y007025D02*
X008468Y007025D01*
X008450Y007317D02*
X008345Y007317D01*
X008321Y007376D02*
X008610Y007376D01*
X008610Y007434D02*
X008278Y007434D01*
X008219Y007493D02*
X008610Y007493D01*
X008610Y007551D02*
X008103Y007551D01*
X008187Y007844D02*
X008610Y007844D01*
X008610Y007902D02*
X008254Y007902D01*
X008311Y007961D02*
X008610Y007961D01*
X008610Y008019D02*
X008335Y008019D01*
X008360Y008078D02*
X008610Y008078D01*
X008610Y008136D02*
X008370Y008136D01*
X008370Y008195D02*
X008610Y008195D01*
X008610Y008253D02*
X008373Y008253D01*
X008431Y008312D02*
X008610Y008312D01*
X008610Y008370D02*
X008490Y008370D01*
X008548Y008429D02*
X008610Y008429D01*
X008607Y008487D02*
X008610Y008487D01*
X008610Y007785D02*
X006650Y007785D01*
X006650Y007727D02*
X008610Y007727D01*
X008610Y007668D02*
X006650Y007668D01*
X006650Y007610D02*
X008610Y007610D01*
X008267Y008487D02*
X008225Y008487D01*
X008584Y006264D02*
X008894Y006264D01*
X008836Y006206D02*
X008525Y006206D01*
X008467Y006147D02*
X008777Y006147D01*
X008719Y006089D02*
X008408Y006089D01*
X008340Y006030D02*
X008710Y006030D01*
X008710Y005972D02*
X008316Y005972D01*
X008265Y005913D02*
X008710Y005913D01*
X008710Y005855D02*
X008206Y005855D01*
X008072Y005796D02*
X008710Y005796D01*
X008710Y005738D02*
X006950Y005738D01*
X006950Y005679D02*
X008710Y005679D01*
X008710Y005621D02*
X006950Y005621D01*
X007680Y004180D02*
X008280Y004180D01*
X008830Y004730D01*
X008439Y004509D02*
X008203Y004509D01*
X008261Y004451D02*
X008381Y004451D01*
X008322Y004392D02*
X008314Y004392D01*
X007710Y003573D02*
X007650Y003573D01*
X007650Y003515D02*
X007710Y003515D01*
X007710Y003456D02*
X007650Y003456D01*
X007650Y003398D02*
X007710Y003398D01*
X007710Y003339D02*
X007650Y003339D01*
X007650Y003281D02*
X007710Y003281D01*
X007710Y003105D02*
X007650Y003105D01*
X007650Y003047D02*
X007710Y003047D01*
X007710Y002988D02*
X007650Y002988D01*
X007650Y002930D02*
X007710Y002930D01*
X007710Y002871D02*
X007650Y002871D01*
X007650Y002813D02*
X007710Y002813D01*
X007710Y002754D02*
X007650Y002754D01*
X006210Y006674D02*
X005800Y006674D01*
X005800Y006732D02*
X006210Y006732D01*
X005680Y007030D02*
X005680Y006345D01*
X005543Y006030D02*
X005317Y006030D01*
X005359Y006089D02*
X005501Y006089D01*
X005501Y006147D02*
X005359Y006147D01*
X005359Y006206D02*
X005501Y006206D01*
X005501Y006264D02*
X005359Y006264D01*
X005359Y006323D02*
X005501Y006323D01*
X005501Y006381D02*
X005359Y006381D01*
X005359Y006440D02*
X005501Y006440D01*
X005501Y006498D02*
X005359Y006498D01*
X005359Y006557D02*
X005501Y006557D01*
X005501Y006615D02*
X005359Y006615D01*
X005300Y006674D02*
X005560Y006674D01*
X005560Y006732D02*
X005300Y006732D01*
X005300Y006791D02*
X005436Y006791D01*
X005412Y006849D02*
X005300Y006849D01*
X005300Y006908D02*
X005412Y006908D01*
X005412Y006966D02*
X005300Y006966D01*
X005300Y007025D02*
X005412Y007025D01*
X005412Y007083D02*
X005300Y007083D01*
X005300Y007142D02*
X005412Y007142D01*
X005412Y007200D02*
X005300Y007200D01*
X005300Y007259D02*
X005425Y007259D01*
X004694Y006674D02*
X004666Y006674D01*
X004666Y006615D02*
X004694Y006615D01*
X004694Y006557D02*
X004666Y006557D01*
X004666Y006498D02*
X004694Y006498D01*
X004694Y006440D02*
X004666Y006440D01*
X004666Y006381D02*
X004694Y006381D01*
X004694Y006323D02*
X004666Y006323D01*
X004666Y006264D02*
X004694Y006264D01*
X004694Y006206D02*
X004666Y006206D01*
X004666Y006147D02*
X004694Y006147D01*
X004694Y006089D02*
X004666Y006089D01*
X004666Y006030D02*
X004694Y006030D01*
X004806Y004506D02*
X004554Y004506D01*
X004501Y004453D01*
X004501Y003906D01*
X004554Y003854D01*
X004806Y003854D01*
X004859Y003906D01*
X004859Y004453D01*
X004806Y004506D01*
X004859Y004451D02*
X004966Y004451D01*
X004970Y004466D02*
X004961Y004433D01*
X004961Y004194D01*
X005166Y004194D01*
X005166Y004166D01*
X005194Y004166D01*
X005194Y004194D01*
X005399Y004194D01*
X005399Y004433D01*
X005390Y004466D01*
X005373Y004496D01*
X005348Y004520D01*
X005319Y004537D01*
X005286Y004546D01*
X005194Y004546D01*
X005194Y004194D01*
X005166Y004194D01*
X005166Y004546D01*
X005074Y004546D01*
X005041Y004537D01*
X005012Y004520D01*
X004987Y004496D01*
X004970Y004466D01*
X005000Y004509D02*
X003360Y004509D01*
X003394Y004451D02*
X004001Y004451D01*
X004001Y004453D02*
X004001Y003906D01*
X004054Y003854D01*
X004306Y003854D01*
X004359Y003906D01*
X004359Y004453D01*
X004306Y004506D01*
X004054Y004506D01*
X004001Y004453D01*
X004001Y004392D02*
X003399Y004392D01*
X003399Y004334D02*
X004001Y004334D01*
X004001Y004275D02*
X003399Y004275D01*
X003399Y004217D02*
X004001Y004217D01*
X004001Y004158D02*
X003399Y004158D01*
X003399Y004166D02*
X003194Y004166D01*
X003194Y003814D01*
X003286Y003814D01*
X003319Y003823D01*
X003348Y003840D01*
X003373Y003864D01*
X003390Y003894D01*
X003399Y003927D01*
X003399Y004166D01*
X003399Y004100D02*
X004001Y004100D01*
X004001Y004041D02*
X003399Y004041D01*
X003399Y003983D02*
X004001Y003983D01*
X004001Y003924D02*
X003398Y003924D01*
X003374Y003866D02*
X004042Y003866D01*
X004318Y003866D02*
X004542Y003866D01*
X004501Y003924D02*
X004359Y003924D01*
X004359Y003983D02*
X004501Y003983D01*
X004501Y004041D02*
X004359Y004041D01*
X004359Y004100D02*
X004501Y004100D01*
X004501Y004158D02*
X004359Y004158D01*
X004359Y004217D02*
X004501Y004217D01*
X004501Y004275D02*
X004359Y004275D01*
X004359Y004334D02*
X004501Y004334D01*
X004501Y004392D02*
X004359Y004392D01*
X004359Y004451D02*
X004501Y004451D01*
X004818Y003866D02*
X004986Y003866D01*
X004987Y003864D02*
X005012Y003840D01*
X005041Y003823D01*
X005074Y003814D01*
X005166Y003814D01*
X005166Y004166D01*
X004961Y004166D01*
X004961Y003927D01*
X004970Y003894D01*
X004987Y003864D01*
X004962Y003924D02*
X004859Y003924D01*
X004859Y003983D02*
X004961Y003983D01*
X004961Y004041D02*
X004859Y004041D01*
X004859Y004100D02*
X004961Y004100D01*
X004961Y004158D02*
X004859Y004158D01*
X004859Y004217D02*
X004961Y004217D01*
X004961Y004275D02*
X004859Y004275D01*
X004859Y004334D02*
X004961Y004334D01*
X004961Y004392D02*
X004859Y004392D01*
X005166Y004392D02*
X005194Y004392D01*
X005194Y004334D02*
X005166Y004334D01*
X005166Y004275D02*
X005194Y004275D01*
X005194Y004217D02*
X005166Y004217D01*
X005194Y004166D02*
X005399Y004166D01*
X005399Y003927D01*
X005390Y003894D01*
X005373Y003864D01*
X005348Y003840D01*
X005319Y003823D01*
X005286Y003814D01*
X005194Y003814D01*
X005194Y004166D01*
X005194Y004158D02*
X005166Y004158D01*
X005166Y004100D02*
X005194Y004100D01*
X005194Y004041D02*
X005166Y004041D01*
X005166Y003983D02*
X005194Y003983D01*
X005194Y003924D02*
X005166Y003924D01*
X005166Y003866D02*
X005194Y003866D01*
X005374Y003866D02*
X005486Y003866D01*
X005487Y003864D02*
X005512Y003840D01*
X005541Y003823D01*
X005574Y003814D01*
X005666Y003814D01*
X005666Y004166D01*
X005461Y004166D01*
X005461Y003927D01*
X005470Y003894D01*
X005487Y003864D01*
X005462Y003924D02*
X005398Y003924D01*
X005399Y003983D02*
X005461Y003983D01*
X005461Y004041D02*
X005399Y004041D01*
X005399Y004100D02*
X005461Y004100D01*
X005461Y004158D02*
X005399Y004158D01*
X005399Y004217D02*
X005461Y004217D01*
X005461Y004194D02*
X005666Y004194D01*
X005666Y004546D01*
X005574Y004546D01*
X005541Y004537D01*
X005512Y004520D01*
X005487Y004496D01*
X005470Y004466D01*
X005461Y004433D01*
X005461Y004194D01*
X005461Y004275D02*
X005399Y004275D01*
X005399Y004334D02*
X005461Y004334D01*
X005461Y004392D02*
X005399Y004392D01*
X005394Y004451D02*
X005466Y004451D01*
X005500Y004509D02*
X005360Y004509D01*
X005194Y004509D02*
X005166Y004509D01*
X005166Y004451D02*
X005194Y004451D01*
X005666Y004451D02*
X005694Y004451D01*
X005694Y004509D02*
X005666Y004509D01*
X005666Y004392D02*
X005694Y004392D01*
X005694Y004334D02*
X005666Y004334D01*
X005666Y004275D02*
X005694Y004275D01*
X005694Y004217D02*
X005666Y004217D01*
X005666Y004158D02*
X005694Y004158D01*
X005694Y004100D02*
X005666Y004100D01*
X005666Y004041D02*
X005694Y004041D01*
X005694Y003983D02*
X005666Y003983D01*
X005666Y003924D02*
X005694Y003924D01*
X005694Y003866D02*
X005666Y003866D01*
X003757Y001233D02*
X003697Y001233D01*
X003697Y001175D02*
X003757Y001175D01*
X003757Y001116D02*
X003697Y001116D01*
X003697Y001058D02*
X003757Y001058D01*
X003757Y000999D02*
X003697Y000999D01*
X003697Y000941D02*
X003757Y000941D01*
X003757Y000765D02*
X003697Y000765D01*
X003697Y000707D02*
X003757Y000707D01*
X003757Y000648D02*
X003697Y000648D01*
X003697Y000590D02*
X003757Y000590D01*
X003757Y000531D02*
X003697Y000531D01*
X003194Y003866D02*
X003166Y003866D01*
X003166Y003924D02*
X003194Y003924D01*
X003194Y003983D02*
X003166Y003983D01*
X003166Y004041D02*
X003194Y004041D01*
X003194Y004100D02*
X003166Y004100D01*
X003166Y004158D02*
X003194Y004158D01*
X003194Y004217D02*
X003166Y004217D01*
X003166Y004275D02*
X003194Y004275D01*
X003194Y004334D02*
X003166Y004334D01*
X003166Y004392D02*
X003194Y004392D01*
X003194Y004451D02*
X003166Y004451D01*
X003166Y004509D02*
X003194Y004509D01*
X003043Y006030D02*
X002817Y006030D01*
X002859Y006089D02*
X003001Y006089D01*
X003001Y006147D02*
X002859Y006147D01*
X002859Y006206D02*
X003001Y006206D01*
X003001Y006264D02*
X002859Y006264D01*
X002859Y006323D02*
X003001Y006323D01*
X003001Y006381D02*
X002859Y006381D01*
X002859Y006440D02*
X003001Y006440D01*
X003001Y006498D02*
X002859Y006498D01*
X002859Y006557D02*
X003001Y006557D01*
X003001Y006615D02*
X002859Y006615D01*
X002953Y006674D02*
X002750Y006674D01*
X002750Y006732D02*
X002912Y006732D01*
X002912Y006791D02*
X002750Y006791D01*
X002750Y006849D02*
X002912Y006849D01*
X002912Y006908D02*
X002750Y006908D01*
X002750Y006966D02*
X002912Y006966D01*
X002912Y007025D02*
X002750Y007025D01*
X002750Y007083D02*
X002912Y007083D01*
X002912Y007142D02*
X002750Y007142D01*
X003180Y006930D02*
X003180Y006345D01*
X004230Y010330D02*
X004230Y011830D01*
X004350Y010944D02*
X004460Y010944D01*
X004460Y010886D02*
X004350Y010886D01*
X004350Y010827D02*
X004460Y010827D01*
X004472Y010769D02*
X004350Y010769D01*
X004450Y010593D02*
X004647Y010593D01*
X004706Y010535D02*
X004498Y010535D01*
X004498Y010476D02*
X004764Y010476D01*
X004823Y010418D02*
X004498Y010418D01*
X008782Y015098D02*
X008810Y015098D01*
X009297Y022820D02*
X009450Y022820D01*
X009450Y022878D02*
X009320Y022878D01*
X009320Y022937D02*
X009450Y022937D01*
X009450Y022995D02*
X009320Y022995D01*
X009320Y023054D02*
X009450Y023054D01*
X009450Y023112D02*
X009320Y023112D01*
X009320Y023171D02*
X009450Y023171D01*
X009450Y023229D02*
X009320Y023229D01*
X009320Y023288D02*
X009450Y023288D01*
X009450Y023346D02*
X009320Y023346D01*
X009320Y023405D02*
X009450Y023405D01*
X009450Y023463D02*
X009320Y023463D01*
X009320Y023522D02*
X009450Y023522D01*
X009450Y023580D02*
X009320Y023580D01*
X009299Y023639D02*
X009450Y023639D01*
X009450Y023697D02*
X009274Y023697D01*
X009320Y023756D02*
X009450Y023756D01*
X009450Y023814D02*
X009320Y023814D01*
X009320Y023873D02*
X009450Y023873D01*
X009450Y023931D02*
X009320Y023931D01*
X009320Y023990D02*
X009450Y023990D01*
X009450Y024048D02*
X009289Y024048D01*
X009284Y024107D02*
X009450Y024107D01*
X009450Y024165D02*
X009320Y024165D01*
X009320Y024224D02*
X009450Y024224D01*
X009450Y024282D02*
X009320Y024282D01*
X009320Y024341D02*
X009450Y024341D01*
X009450Y024399D02*
X009320Y024399D01*
X009320Y024458D02*
X009450Y024458D01*
X009450Y024516D02*
X009320Y024516D01*
X009320Y024575D02*
X009450Y024575D01*
X009450Y024633D02*
X009310Y024633D01*
X009320Y024692D02*
X009450Y024692D01*
X009450Y024750D02*
X009320Y024750D01*
X009320Y024809D02*
X009450Y024809D01*
X009450Y024867D02*
X009320Y024867D01*
X009320Y024926D02*
X009450Y024926D01*
X009450Y024984D02*
X009320Y024984D01*
X009295Y025043D02*
X009450Y025043D01*
X009450Y025101D02*
X000410Y025101D01*
X000410Y025043D02*
X007065Y025043D01*
X007040Y024984D02*
X000410Y024984D01*
X000410Y024926D02*
X007040Y024926D01*
X007040Y024867D02*
X000410Y024867D01*
X000410Y024809D02*
X007040Y024809D01*
X007920Y022937D02*
X007940Y022937D01*
X007940Y022878D02*
X007920Y022878D01*
X007897Y022820D02*
X007963Y022820D01*
X008120Y024984D02*
X008240Y024984D01*
X008265Y025043D02*
X008095Y025043D01*
X008695Y025043D02*
X008765Y025043D01*
X008740Y024984D02*
X008720Y024984D01*
D15*
X005643Y013550D03*
X005743Y010850D03*
D16*
X002230Y009430D03*
X002230Y009230D03*
X001730Y009430D03*
X001730Y009630D03*
D17*
X002430Y015530D03*
X002686Y015530D03*
X002942Y015530D03*
X003198Y015530D03*
X003198Y017869D03*
X002942Y017869D03*
X002686Y017869D03*
X002430Y017869D03*
D18*
X003727Y024370D03*
D19*
X003727Y000905D03*
D20*
X002830Y013180D03*
X002830Y013436D03*
X002830Y013692D03*
X002082Y013692D03*
X002082Y013436D03*
X002082Y013180D03*
D21*
X002180Y011428D03*
X002180Y011054D03*
X002180Y010680D03*
X003125Y010680D03*
X003125Y011054D03*
X003125Y011428D03*
D22*
X003532Y011230D03*
X003728Y011230D03*
X002728Y021130D03*
X002532Y021130D03*
X003282Y022480D03*
X003478Y022480D03*
D23*
X003180Y006345D03*
X002680Y006345D03*
X002180Y006345D03*
X001680Y006345D03*
X001680Y004180D03*
X002180Y004180D03*
X002680Y004180D03*
X003180Y004180D03*
X004180Y004180D03*
X004680Y004180D03*
X005180Y004180D03*
X005680Y004180D03*
X005680Y006345D03*
X005180Y006345D03*
X004680Y006345D03*
X004180Y006345D03*
D24*
X007380Y006180D02*
X007980Y006180D01*
X007980Y005180D02*
X007380Y005180D01*
X007380Y004180D02*
X007980Y004180D01*
X007980Y003180D02*
X007380Y003180D01*
X007380Y007180D02*
X007980Y007180D01*
X007980Y008180D02*
X007380Y008180D01*
X007380Y011680D02*
X007980Y011680D01*
X007980Y012680D02*
X007380Y012680D01*
X007380Y013680D02*
X007980Y013680D01*
X008180Y017180D02*
X007580Y017180D01*
X007580Y018180D02*
X008180Y018180D01*
X008180Y019680D02*
X007580Y019680D01*
X007580Y020680D02*
X008180Y020680D01*
D25*
X002980Y021780D03*
X002980Y021977D03*
X002980Y022174D03*
X002744Y022174D03*
X002744Y021977D03*
X002744Y021780D03*
D26*
X003780Y021524D03*
X003780Y020736D03*
D27*
X008580Y007180D03*
X008780Y007180D03*
D28*
X007780Y009330D03*
X007630Y010330D03*
X006780Y009780D03*
X006680Y008280D03*
X005680Y007030D03*
X005180Y007680D03*
X004230Y010330D03*
X004230Y011830D03*
X003680Y012580D03*
X003380Y013180D03*
X003730Y013730D03*
X003380Y014780D03*
X003080Y014180D03*
X002980Y012480D03*
X003180Y011830D03*
X002430Y010180D03*
X001780Y010030D03*
X001330Y008280D03*
X001180Y006930D03*
X001880Y005680D03*
X002630Y007680D03*
X002230Y008280D03*
X003180Y006930D03*
X004080Y005680D03*
X005030Y011830D03*
X004530Y013630D03*
X004530Y014580D03*
X003430Y016730D03*
X004030Y017730D03*
X003230Y019780D03*
X003180Y021280D03*
X002780Y023030D03*
X002080Y023030D03*
X001680Y021280D03*
X001080Y019780D03*
X001480Y015430D03*
X001930Y014780D03*
X002080Y014180D03*
X001530Y012230D03*
X002130Y011880D03*
X001080Y014180D03*
X005080Y019080D03*
X006230Y012730D03*
X006530Y012080D03*
X008980Y015430D03*
D29*
X003080Y023680D02*
X003727Y024327D01*
X003727Y024370D01*
X003080Y023680D02*
X003080Y023030D01*
X003080Y022480D01*
X003080Y022274D01*
D30*
X002980Y022174D01*
M02*
