%
M48
M72
T01C0.0236
T02C0.0335
T03C0.0400
%
T01
X1880Y5680
X1180Y6930
X1330Y8280
X1780Y10030
X2430Y10180
X2130Y11880
X1530Y12230
X1080Y14180
X1480Y15430
X1930Y14780
X2080Y14180
X2980Y12480
X3180Y11830
X3680Y12580
X3380Y13180
X3730Y13730
X3380Y14780
X3080Y14180
X3430Y16730
X4030Y17730
X3230Y19780
X3180Y21280
X2780Y23030
X2080Y23030
X1680Y21280
X1080Y19780
X4230Y11830
X4230Y10330
X5030Y11830
X4530Y13630
X4530Y14580
X5080Y19080
X6230Y12730
X6530Y12080
X6780Y9780
X6680Y8280
X5680Y7030
X5180Y7680
X4080Y5680
X3180Y6930
X2630Y7680
X2230Y8280
X7630Y10330
X7780Y9330
X8980Y15430
T02
X3727Y24370
X3727Y905
T03
X7680Y3180
X7680Y4180
X7680Y5180
X7680Y6180
X7680Y7180
X7680Y8180
X7680Y11680
X7680Y12680
X7680Y13680
X7880Y17180
X7880Y18180
X7880Y19680
X7880Y20680
M30
