G75*
%MOIN*%
%OFA0B0*%
%FSLAX24Y24*%
%IPPOS*%
%LPD*%
%AMOC8*
5,1,8,0,0,1.08239X$1,22.5*
%
%ADD10C,0.0000*%
%ADD11R,0.0246X0.0177*%
%ADD12C,0.0060*%
%ADD13C,0.0050*%
%ADD14R,0.0177X0.0246*%
%ADD15R,0.0169X0.0110*%
%ADD16R,0.0165X0.0701*%
%ADD17OC8,0.0502*%
%ADD18R,0.0502X0.0502*%
%ADD19R,0.0236X0.0165*%
%ADD20R,0.0276X0.0157*%
%ADD21R,0.0098X0.0138*%
%ADD22R,0.0177X0.0472*%
%ADD23C,0.0600*%
%ADD24R,0.0118X0.0079*%
%ADD25R,0.0394X0.0394*%
%ADD26R,0.0110X0.0169*%
D10*
X000180Y000180D02*
X000180Y025380D01*
X009680Y025380D01*
X009680Y000180D01*
X000180Y000180D01*
D11*
X005108Y010496D03*
X005108Y010889D03*
X005108Y011283D03*
X005008Y013196D03*
X005008Y013589D03*
X005008Y013983D03*
X006238Y013983D03*
X006238Y013589D03*
X006238Y013196D03*
X006338Y011283D03*
X006338Y010889D03*
X006338Y010496D03*
D12*
X006176Y010476D02*
X006117Y010476D01*
X006117Y010515D01*
X006176Y010574D01*
X006176Y010417D01*
X006117Y010476D01*
X006136Y010535D02*
X006176Y010535D01*
X006176Y010418D02*
X006176Y010418D01*
X006176Y010811D02*
X006097Y010889D01*
X006176Y010968D01*
X006176Y010811D01*
X006176Y010827D02*
X006160Y010827D01*
X006176Y010886D02*
X006101Y010886D01*
X006152Y010944D02*
X006176Y010944D01*
X006176Y011204D02*
X006176Y011362D01*
X006117Y011283D01*
X006176Y011204D01*
X006176Y011237D02*
X006152Y011237D01*
X006176Y011295D02*
X006126Y011295D01*
X006170Y011354D02*
X006176Y011354D01*
X006076Y013117D02*
X006076Y013274D01*
X006017Y013215D01*
X006017Y013176D01*
X006076Y013117D01*
X006076Y013167D02*
X006026Y013167D01*
X006027Y013226D02*
X006076Y013226D01*
X006076Y013511D02*
X006076Y013668D01*
X005997Y013589D01*
X006076Y013511D01*
X006076Y013518D02*
X006069Y013518D01*
X006076Y013577D02*
X006010Y013577D01*
X006043Y013635D02*
X006076Y013635D01*
X006076Y013904D02*
X006076Y014062D01*
X006017Y013983D01*
X006076Y013904D01*
X006076Y013928D02*
X006059Y013928D01*
X006076Y013986D02*
X006019Y013986D01*
X006063Y014045D02*
X006076Y014045D01*
X005230Y013983D02*
X005171Y014062D01*
X005171Y013904D01*
X005230Y013983D01*
X005227Y013986D02*
X005171Y013986D01*
X005171Y013928D02*
X005188Y013928D01*
X005184Y014045D02*
X005171Y014045D01*
X005171Y013668D02*
X005171Y013511D01*
X005230Y013589D01*
X005171Y013668D01*
X005171Y013635D02*
X005195Y013635D01*
X005171Y013577D02*
X005220Y013577D01*
X005176Y013518D02*
X005171Y013518D01*
X005171Y013274D02*
X005171Y013117D01*
X005230Y013196D01*
X005171Y013274D01*
X005171Y013226D02*
X005207Y013226D01*
X005208Y013167D02*
X005171Y013167D01*
X005271Y011362D02*
X005271Y011204D01*
X005330Y011283D01*
X005271Y011362D01*
X005271Y011354D02*
X005277Y011354D01*
X005271Y011295D02*
X005321Y011295D01*
X005295Y011237D02*
X005271Y011237D01*
X005271Y010968D02*
X005271Y010811D01*
X005330Y010889D01*
X005271Y010968D01*
X005271Y010944D02*
X005289Y010944D01*
X005271Y010886D02*
X005327Y010886D01*
X005283Y010827D02*
X005271Y010827D01*
X005271Y010574D02*
X005271Y010417D01*
X005330Y010496D01*
X005271Y010574D01*
X005271Y010535D02*
X005301Y010535D01*
X005315Y010476D02*
X005271Y010476D01*
X005271Y010418D02*
X005271Y010418D01*
D13*
X005408Y010414D02*
X005917Y010414D01*
X005900Y010397D02*
X006038Y010535D01*
X006038Y011382D01*
X005408Y011382D01*
X005408Y010397D01*
X005900Y010397D01*
X005965Y010462D02*
X005408Y010462D01*
X005408Y010511D02*
X006014Y010511D01*
X006038Y010559D02*
X005408Y010559D01*
X005408Y010608D02*
X006038Y010608D01*
X006038Y010656D02*
X005408Y010656D01*
X005408Y010705D02*
X006038Y010705D01*
X006038Y010753D02*
X005408Y010753D01*
X005408Y010802D02*
X006038Y010802D01*
X006038Y010850D02*
X005408Y010850D01*
X005408Y010899D02*
X006038Y010899D01*
X006038Y010947D02*
X005408Y010947D01*
X005408Y010996D02*
X006038Y010996D01*
X006038Y011044D02*
X005408Y011044D01*
X005408Y011093D02*
X006038Y011093D01*
X006038Y011141D02*
X005408Y011141D01*
X005408Y011190D02*
X006038Y011190D01*
X006038Y011238D02*
X005408Y011238D01*
X005408Y011287D02*
X006038Y011287D01*
X006038Y011335D02*
X005408Y011335D01*
X005308Y013097D02*
X005800Y013097D01*
X005938Y013235D01*
X005938Y014082D01*
X005308Y014082D01*
X005308Y013097D01*
X005308Y013130D02*
X005833Y013130D01*
X005881Y013178D02*
X005308Y013178D01*
X005308Y013227D02*
X005930Y013227D01*
X005938Y013275D02*
X005308Y013275D01*
X005308Y013324D02*
X005938Y013324D01*
X005938Y013372D02*
X005308Y013372D01*
X005308Y013421D02*
X005938Y013421D01*
X005938Y013469D02*
X005308Y013469D01*
X005308Y013518D02*
X005938Y013518D01*
X005938Y013566D02*
X005308Y013566D01*
X005308Y013615D02*
X005938Y013615D01*
X005938Y013663D02*
X005308Y013663D01*
X005308Y013712D02*
X005938Y013712D01*
X005938Y013760D02*
X005308Y013760D01*
X005308Y013809D02*
X005938Y013809D01*
X005938Y013857D02*
X005308Y013857D01*
X005308Y013906D02*
X005938Y013906D01*
X005938Y013954D02*
X005308Y013954D01*
X005308Y014003D02*
X005938Y014003D01*
X005938Y014051D02*
X005308Y014051D01*
D14*
X005643Y013550D03*
X005743Y010850D03*
D15*
X002230Y009430D03*
X002230Y009230D03*
X001730Y009430D03*
X001730Y009630D03*
D16*
X002430Y015530D03*
X002686Y015530D03*
X002942Y015530D03*
X003198Y015530D03*
X003198Y017869D03*
X002942Y017869D03*
X002686Y017869D03*
X002430Y017869D03*
D17*
X003727Y024370D03*
D18*
X003727Y000905D03*
D19*
X002830Y013180D03*
X002830Y013436D03*
X002830Y013692D03*
X002082Y013692D03*
X002082Y013436D03*
X002082Y013180D03*
D20*
X002180Y011428D03*
X002180Y011054D03*
X002180Y010680D03*
X003125Y010680D03*
X003125Y011054D03*
X003125Y011428D03*
D21*
X003532Y011230D03*
X003728Y011230D03*
X002728Y021130D03*
X002532Y021130D03*
X003282Y022480D03*
X003478Y022480D03*
D22*
X003180Y006345D03*
X002680Y006345D03*
X002180Y006345D03*
X001680Y006345D03*
X001680Y004180D03*
X002180Y004180D03*
X002680Y004180D03*
X003180Y004180D03*
X004180Y004180D03*
X004680Y004180D03*
X005180Y004180D03*
X005680Y004180D03*
X005680Y006345D03*
X005180Y006345D03*
X004680Y006345D03*
X004180Y006345D03*
D23*
X007380Y006180D02*
X007980Y006180D01*
X007980Y005180D02*
X007380Y005180D01*
X007380Y004180D02*
X007980Y004180D01*
X007980Y003180D02*
X007380Y003180D01*
X007380Y007180D02*
X007980Y007180D01*
X007980Y008180D02*
X007380Y008180D01*
X007380Y011680D02*
X007980Y011680D01*
X007980Y012680D02*
X007380Y012680D01*
X007380Y013680D02*
X007980Y013680D01*
X008180Y017180D02*
X007580Y017180D01*
X007580Y018180D02*
X008180Y018180D01*
X008180Y019680D02*
X007580Y019680D01*
X007580Y020680D02*
X008180Y020680D01*
D24*
X002980Y021780D03*
X002980Y021977D03*
X002980Y022174D03*
X002744Y022174D03*
X002744Y021977D03*
X002744Y021780D03*
D25*
X003780Y021524D03*
X003780Y020736D03*
D26*
X008580Y007180D03*
X008780Y007180D03*
M02*
