G75*
%MOIN*%
%OFA0B0*%
%FSLAX24Y24*%
%IPPOS*%
%LPD*%
%AMOC8*
5,1,8,0,0,1.08239X$1,22.5*
%
%ADD10C,0.0000*%
%ADD11OC8,0.0502*%
%ADD12R,0.0502X0.0502*%
%ADD13C,0.0600*%
%ADD14C,0.0160*%
%ADD15R,0.0356X0.0356*%
%ADD16C,0.0060*%
D10*
X000180Y000180D02*
X000180Y025380D01*
X009680Y025380D01*
X009680Y000180D01*
X000180Y000180D01*
D11*
X003727Y024370D03*
D12*
X003727Y000905D03*
D13*
X007380Y003180D02*
X007980Y003180D01*
X007980Y004180D02*
X007380Y004180D01*
X007380Y005180D02*
X007980Y005180D01*
X007980Y006180D02*
X007380Y006180D01*
X007380Y007180D02*
X007980Y007180D01*
X007980Y008180D02*
X007380Y008180D01*
X007380Y011680D02*
X007980Y011680D01*
X007980Y012680D02*
X007380Y012680D01*
X007380Y013680D02*
X007980Y013680D01*
X008180Y017180D02*
X007580Y017180D01*
X007580Y018180D02*
X008180Y018180D01*
X008180Y019680D02*
X007580Y019680D01*
X007580Y020680D02*
X008180Y020680D01*
D14*
X008268Y020240D02*
X008429Y020307D01*
X008553Y020431D01*
X008620Y020592D01*
X008620Y020768D01*
X008553Y020929D01*
X008429Y021053D01*
X008268Y021120D01*
X007492Y021120D01*
X007331Y021053D01*
X007207Y020929D01*
X007140Y020768D01*
X007140Y020630D01*
X007010Y020500D01*
X007010Y020050D01*
X006910Y019950D01*
X003548Y019950D01*
X003548Y020016D01*
X003466Y020098D01*
X002994Y020098D01*
X002912Y020016D01*
X002912Y019950D01*
X001398Y019950D01*
X001398Y020016D01*
X001316Y020098D01*
X000844Y020098D01*
X000762Y020016D01*
X000762Y019544D01*
X000844Y019462D01*
X001316Y019462D01*
X001398Y019544D01*
X001398Y019610D01*
X002912Y019610D01*
X002912Y019544D01*
X002994Y019462D01*
X003466Y019462D01*
X003548Y019544D01*
X003548Y019610D01*
X007050Y019610D01*
X007140Y019700D01*
X007140Y019592D01*
X007207Y019431D01*
X007331Y019307D01*
X007492Y019240D01*
X008268Y019240D01*
X008429Y019307D01*
X008553Y019431D01*
X008620Y019592D01*
X008620Y019768D01*
X008553Y019929D01*
X008429Y020053D01*
X008268Y020120D01*
X007492Y020120D01*
X007350Y020061D01*
X007350Y020299D01*
X007492Y020240D01*
X008268Y020240D01*
X008432Y020310D02*
X009400Y020310D01*
X009400Y020468D02*
X008568Y020468D01*
X008620Y020627D02*
X009400Y020627D01*
X009400Y020785D02*
X008613Y020785D01*
X008539Y020944D02*
X009400Y020944D01*
X009400Y021102D02*
X008311Y021102D01*
X008490Y019993D02*
X009400Y019993D01*
X009400Y020151D02*
X007350Y020151D01*
X007140Y019676D02*
X007116Y019676D01*
X007171Y019517D02*
X003521Y019517D01*
X003548Y019993D02*
X006952Y019993D01*
X007010Y020151D02*
X000460Y020151D01*
X000460Y019993D02*
X000762Y019993D01*
X000762Y019834D02*
X000460Y019834D01*
X000460Y019676D02*
X000762Y019676D01*
X000789Y019517D02*
X000460Y019517D01*
X000460Y019359D02*
X007279Y019359D01*
X007492Y018620D02*
X007331Y018553D01*
X007207Y018429D01*
X007140Y018268D01*
X007140Y018092D01*
X007178Y018000D01*
X004314Y018000D01*
X004266Y018048D01*
X003794Y018048D01*
X003712Y017966D01*
X003712Y017494D01*
X003794Y017412D01*
X004266Y017412D01*
X004348Y017494D01*
X004348Y017660D01*
X007600Y017660D01*
X007680Y017740D01*
X008268Y017740D01*
X008429Y017807D01*
X008553Y017931D01*
X008620Y018092D01*
X008620Y018268D01*
X008553Y018429D01*
X008429Y018553D01*
X008268Y018620D01*
X007492Y018620D01*
X007362Y018566D02*
X000460Y018566D01*
X000460Y018408D02*
X007198Y018408D01*
X007140Y018249D02*
X000460Y018249D01*
X000460Y018091D02*
X007141Y018091D01*
X007331Y017553D02*
X007207Y017429D01*
X007140Y017268D01*
X007140Y017092D01*
X007207Y016931D01*
X007331Y016807D01*
X007492Y016740D01*
X008268Y016740D01*
X008429Y016807D01*
X008553Y016931D01*
X008620Y017092D01*
X008620Y017268D01*
X008553Y017429D01*
X008429Y017553D01*
X008268Y017620D01*
X007492Y017620D01*
X007331Y017553D01*
X007234Y017457D02*
X004311Y017457D01*
X004348Y017615D02*
X007480Y017615D01*
X007153Y017298D02*
X000460Y017298D01*
X000460Y017140D02*
X007140Y017140D01*
X007186Y016981D02*
X000460Y016981D01*
X000460Y016823D02*
X007315Y016823D01*
X007600Y014750D02*
X004848Y014750D01*
X004848Y014816D01*
X004766Y014898D01*
X004294Y014898D01*
X004212Y014816D01*
X004212Y014350D01*
X003398Y014350D01*
X003398Y014416D01*
X003352Y014462D01*
X003616Y014462D01*
X003698Y014544D01*
X003698Y015016D01*
X003616Y015098D01*
X003144Y015098D01*
X003062Y015016D01*
X003062Y014950D01*
X002248Y014950D01*
X002248Y015016D01*
X002166Y015098D01*
X001694Y015098D01*
X001612Y015016D01*
X001612Y014544D01*
X001694Y014462D01*
X001808Y014462D01*
X001762Y014416D01*
X001762Y014350D01*
X001398Y014350D01*
X001398Y014416D01*
X001316Y014498D01*
X000844Y014498D01*
X000762Y014416D01*
X000762Y013944D01*
X000844Y013862D01*
X001316Y013862D01*
X001398Y013944D01*
X001398Y014010D01*
X001762Y014010D01*
X001762Y013944D01*
X001844Y013862D01*
X002316Y013862D01*
X002398Y013944D01*
X002398Y014416D01*
X002316Y014498D01*
X002202Y014498D01*
X002248Y014544D01*
X002248Y014610D01*
X003062Y014610D01*
X003062Y014544D01*
X003108Y014498D01*
X002844Y014498D01*
X002762Y014416D01*
X002762Y013944D01*
X002844Y013862D01*
X003316Y013862D01*
X003398Y013944D01*
X003398Y014010D01*
X003456Y014010D01*
X003412Y013966D01*
X003412Y013494D01*
X000460Y013494D01*
X000460Y013336D02*
X004270Y013336D01*
X004294Y013312D02*
X004766Y013312D01*
X004848Y013394D01*
X004848Y013866D01*
X004766Y013948D01*
X004294Y013948D01*
X004212Y013866D01*
X004212Y013800D01*
X004048Y013800D01*
X004048Y013966D01*
X004004Y014010D01*
X005810Y014010D01*
X006060Y013760D01*
X006060Y013048D01*
X005994Y013048D01*
X005912Y012966D01*
X005912Y012550D01*
X004050Y012550D01*
X003998Y012602D01*
X003998Y012816D01*
X003916Y012898D01*
X003444Y012898D01*
X003362Y012816D01*
X003362Y012489D01*
X003298Y012552D01*
X003298Y012716D01*
X003216Y012798D01*
X002744Y012798D01*
X002662Y012716D01*
X002662Y012244D01*
X002744Y012162D01*
X003208Y012162D01*
X003221Y012148D01*
X002944Y012148D01*
X002862Y012066D01*
X002862Y012050D01*
X002448Y012050D01*
X002448Y012116D01*
X002366Y012198D01*
X001894Y012198D01*
X001812Y012116D01*
X001812Y011644D01*
X001894Y011562D01*
X002366Y011562D01*
X002448Y011644D01*
X002448Y011710D01*
X002862Y011710D01*
X002862Y011594D01*
X002944Y011512D01*
X003416Y011512D01*
X003498Y011594D01*
X003498Y012060D01*
X003912Y012060D01*
X003912Y011594D01*
X003994Y011512D01*
X004466Y011512D01*
X004548Y011594D01*
X004548Y011660D01*
X004712Y011660D01*
X004712Y011594D01*
X004794Y011512D01*
X005266Y011512D01*
X005348Y011594D01*
X005348Y012060D01*
X006212Y012060D01*
X006212Y011844D01*
X006294Y011762D01*
X006766Y011762D01*
X006848Y011844D01*
X006848Y012210D01*
X007450Y012210D01*
X007480Y012240D01*
X008068Y012240D01*
X008229Y012307D01*
X008353Y012431D01*
X008420Y012592D01*
X008420Y012768D01*
X008353Y012929D01*
X008229Y013053D01*
X008068Y013120D01*
X007292Y013120D01*
X007131Y013053D01*
X007007Y012929D01*
X006940Y012768D01*
X006940Y012592D01*
X006958Y012550D01*
X006548Y012550D01*
X006548Y012966D01*
X006466Y013048D01*
X006400Y013048D01*
X006400Y013900D01*
X006050Y014250D01*
X005950Y014350D01*
X004848Y014350D01*
X004848Y014410D01*
X007460Y014410D01*
X007510Y014360D01*
X007510Y014120D01*
X007292Y014120D01*
X007131Y014053D01*
X007007Y013929D01*
X006940Y013768D01*
X006940Y013592D01*
X007007Y013431D01*
X007131Y013307D01*
X007292Y013240D01*
X008068Y013240D01*
X008229Y013307D01*
X008353Y013431D01*
X008420Y013592D01*
X008420Y013768D01*
X008353Y013929D01*
X008229Y014053D01*
X008068Y014120D01*
X007850Y014120D01*
X007850Y014500D01*
X007600Y014750D01*
X007747Y014604D02*
X009400Y014604D01*
X009400Y014762D02*
X004848Y014762D01*
X004848Y013811D02*
X006009Y013811D01*
X006060Y013653D02*
X004848Y013653D01*
X004848Y013494D02*
X006060Y013494D01*
X006060Y013336D02*
X004790Y013336D01*
X004294Y013312D02*
X004212Y013394D01*
X004212Y013460D01*
X004014Y013460D01*
X003966Y013412D01*
X003494Y013412D01*
X003412Y013494D01*
X003412Y013653D02*
X000460Y013653D01*
X000460Y013811D02*
X003412Y013811D01*
X003398Y013970D02*
X003415Y013970D01*
X003369Y014445D02*
X004212Y014445D01*
X004212Y014604D02*
X003698Y014604D01*
X003698Y014762D02*
X004212Y014762D01*
X004045Y013970D02*
X005850Y013970D01*
X006014Y014287D02*
X007510Y014287D01*
X007510Y014128D02*
X006172Y014128D01*
X006331Y013970D02*
X007047Y013970D01*
X006958Y013811D02*
X006400Y013811D01*
X006400Y013653D02*
X006940Y013653D01*
X006981Y013494D02*
X006400Y013494D01*
X006400Y013336D02*
X007102Y013336D01*
X007096Y013019D02*
X006496Y013019D01*
X006548Y012860D02*
X006978Y012860D01*
X006940Y012702D02*
X006548Y012702D01*
X006400Y013177D02*
X009400Y013177D01*
X009400Y013019D02*
X008264Y013019D01*
X008382Y012860D02*
X009400Y012860D01*
X009400Y012702D02*
X008420Y012702D01*
X008400Y012543D02*
X009400Y012543D01*
X009400Y012385D02*
X008307Y012385D01*
X008194Y012068D02*
X009400Y012068D01*
X009400Y012226D02*
X007466Y012226D01*
X007292Y012120D02*
X007131Y012053D01*
X007007Y011929D01*
X006940Y011768D01*
X006940Y011592D01*
X005346Y011592D01*
X005348Y011751D02*
X006940Y011751D01*
X006940Y011592D02*
X007007Y011431D01*
X007131Y011307D01*
X007292Y011240D01*
X008068Y011240D01*
X008229Y011307D01*
X008353Y011431D01*
X008420Y011592D01*
X009400Y011592D01*
X009400Y011434D02*
X008354Y011434D01*
X008420Y011592D02*
X008420Y011768D01*
X008353Y011929D01*
X008229Y012053D01*
X008068Y012120D01*
X007292Y012120D01*
X007166Y012068D02*
X006848Y012068D01*
X006848Y011909D02*
X006999Y011909D01*
X007006Y011434D02*
X000460Y011434D01*
X000460Y011592D02*
X001864Y011592D01*
X001812Y011751D02*
X000460Y011751D01*
X000460Y011909D02*
X001812Y011909D01*
X001812Y012068D02*
X000460Y012068D01*
X000460Y012226D02*
X002680Y012226D01*
X002662Y012385D02*
X000460Y012385D01*
X000460Y012543D02*
X002662Y012543D01*
X002662Y012702D02*
X000460Y012702D01*
X000460Y012860D02*
X003406Y012860D01*
X003362Y012702D02*
X003298Y012702D01*
X003307Y012543D02*
X003362Y012543D01*
X003498Y011909D02*
X003912Y011909D01*
X003912Y011751D02*
X003498Y011751D01*
X003496Y011592D02*
X003914Y011592D01*
X003994Y010648D02*
X003912Y010566D01*
X003912Y010500D01*
X002510Y010500D01*
X002508Y010498D01*
X002194Y010498D01*
X002112Y010416D01*
X002112Y009950D01*
X002100Y009950D01*
X002098Y009952D01*
X002098Y010266D01*
X002016Y010348D01*
X001544Y010348D01*
X001462Y010266D01*
X001462Y009794D01*
X001544Y009712D01*
X001858Y009712D01*
X001860Y009710D01*
X001960Y009610D01*
X006462Y009610D01*
X006462Y009544D01*
X006544Y009462D01*
X007016Y009462D01*
X007098Y009544D01*
X007098Y010016D01*
X007016Y010098D01*
X006544Y010098D01*
X006462Y010016D01*
X006462Y009950D01*
X002748Y009950D01*
X002748Y010160D01*
X003912Y010160D01*
X003912Y010094D01*
X003994Y010012D01*
X004466Y010012D01*
X004548Y010094D01*
X004548Y010160D01*
X007312Y010160D01*
X007312Y010094D01*
X007394Y010012D01*
X007866Y010012D01*
X007948Y010094D01*
X007948Y010566D01*
X007866Y010648D01*
X007394Y010648D01*
X007312Y010566D01*
X007312Y010500D01*
X004548Y010500D01*
X004548Y010566D01*
X004466Y010648D01*
X003994Y010648D01*
X003987Y010641D02*
X000460Y010641D01*
X000460Y010483D02*
X002178Y010483D01*
X002112Y010324D02*
X002040Y010324D01*
X002098Y010166D02*
X002112Y010166D01*
X002098Y010007D02*
X002112Y010007D01*
X001880Y009690D02*
X000460Y009690D01*
X000460Y009532D02*
X006474Y009532D01*
X006462Y010007D02*
X002748Y010007D01*
X002466Y008598D02*
X001994Y008598D01*
X001912Y008516D01*
X001912Y008450D01*
X001648Y008450D01*
X001648Y008516D01*
X001566Y008598D01*
X001094Y008598D01*
X001012Y008516D01*
X001012Y008044D01*
X001094Y007962D01*
X001566Y007962D01*
X001648Y008044D01*
X001648Y008110D01*
X001912Y008110D01*
X001912Y008044D01*
X001994Y007962D01*
X002358Y007962D01*
X002312Y007916D01*
X002312Y007444D01*
X002394Y007362D01*
X002866Y007362D01*
X002948Y007444D01*
X002948Y007510D01*
X004862Y007510D01*
X004862Y007444D01*
X004944Y007362D01*
X005416Y007362D01*
X005498Y007444D01*
X005498Y007916D01*
X005416Y007998D01*
X004944Y007998D01*
X004862Y007916D01*
X004862Y007850D01*
X002948Y007850D01*
X002948Y007916D01*
X002866Y007998D01*
X002502Y007998D01*
X002548Y008044D01*
X002548Y008110D01*
X006362Y008110D01*
X006362Y008044D01*
X006444Y007962D01*
X006916Y007962D01*
X006971Y008017D01*
X007007Y007931D01*
X007131Y007807D01*
X007292Y007740D01*
X008068Y007740D01*
X008229Y007807D01*
X008353Y007931D01*
X008420Y008092D01*
X008420Y008268D01*
X008353Y008429D01*
X008229Y008553D01*
X008068Y008620D01*
X007292Y008620D01*
X007131Y008553D01*
X007007Y008429D01*
X006998Y008408D01*
X006998Y008516D01*
X006916Y008598D01*
X006444Y008598D01*
X006362Y008516D01*
X006362Y008450D01*
X002548Y008450D01*
X002548Y008516D01*
X002466Y008598D01*
X002484Y008581D02*
X006426Y008581D01*
X006362Y008105D02*
X002548Y008105D01*
X002342Y007947D02*
X000460Y007947D01*
X000460Y008105D02*
X001012Y008105D01*
X001012Y008264D02*
X000460Y008264D01*
X000460Y008422D02*
X001012Y008422D01*
X001076Y008581D02*
X000460Y008581D01*
X000460Y008739D02*
X009400Y008739D01*
X009400Y008581D02*
X008163Y008581D01*
X008356Y008422D02*
X009400Y008422D01*
X009400Y008264D02*
X008420Y008264D01*
X008420Y008105D02*
X009400Y008105D01*
X009400Y007947D02*
X008360Y007947D01*
X008183Y007788D02*
X009400Y007788D01*
X009400Y007630D02*
X005498Y007630D01*
X005498Y007788D02*
X007177Y007788D01*
X007292Y007620D02*
X007131Y007553D01*
X007007Y007429D01*
X006940Y007268D01*
X006940Y007092D01*
X007007Y006931D01*
X007131Y006807D01*
X007292Y006740D01*
X008068Y006740D01*
X008229Y006807D01*
X008353Y006931D01*
X008420Y007092D01*
X008420Y007268D01*
X008353Y007429D01*
X008229Y007553D01*
X008068Y007620D01*
X007292Y007620D01*
X007049Y007471D02*
X005498Y007471D01*
X005444Y007348D02*
X005362Y007266D01*
X005362Y007100D01*
X003498Y007100D01*
X003498Y007166D01*
X003416Y007248D01*
X002944Y007248D01*
X002862Y007166D01*
X002862Y007100D01*
X001498Y007100D01*
X001498Y007166D01*
X001416Y007248D01*
X000944Y007248D01*
X000862Y007166D01*
X000862Y006694D01*
X000944Y006612D01*
X001416Y006612D01*
X001498Y006694D01*
X001498Y006760D01*
X002862Y006760D01*
X002862Y006694D01*
X002944Y006612D01*
X003416Y006612D01*
X003498Y006694D01*
X003498Y006760D01*
X005396Y006760D01*
X005444Y006712D01*
X005916Y006712D01*
X005998Y006794D01*
X005998Y007266D01*
X005916Y007348D01*
X005444Y007348D01*
X005408Y007313D02*
X000460Y007313D01*
X000460Y007471D02*
X002312Y007471D01*
X002312Y007630D02*
X000460Y007630D01*
X000460Y007788D02*
X002312Y007788D01*
X001976Y008581D02*
X001584Y008581D01*
X001648Y008105D02*
X001912Y008105D01*
X001498Y007154D02*
X002862Y007154D01*
X002877Y006679D02*
X001483Y006679D01*
X001644Y005998D02*
X001562Y005916D01*
X001562Y005444D01*
X001644Y005362D01*
X002116Y005362D01*
X002198Y005444D01*
X002198Y005510D01*
X003762Y005510D01*
X003762Y005444D01*
X003844Y005362D01*
X004316Y005362D01*
X004398Y005444D01*
X004398Y005916D01*
X004316Y005998D01*
X003844Y005998D01*
X003762Y005916D01*
X003762Y005850D01*
X002198Y005850D01*
X002198Y005916D01*
X002116Y005998D01*
X001644Y005998D01*
X001562Y005886D02*
X000460Y005886D01*
X000460Y005728D02*
X001562Y005728D01*
X001562Y005569D02*
X000460Y005569D01*
X000460Y005411D02*
X001595Y005411D01*
X002165Y005411D02*
X003795Y005411D01*
X003762Y005886D02*
X002198Y005886D01*
X002948Y007471D02*
X004862Y007471D01*
X004892Y007947D02*
X002918Y007947D01*
X003498Y007154D02*
X005362Y007154D01*
X005468Y007947D02*
X007000Y007947D01*
X006998Y008422D02*
X007004Y008422D01*
X006934Y008581D02*
X007197Y008581D01*
X007086Y009532D02*
X009400Y009532D01*
X009400Y009690D02*
X007098Y009690D01*
X007098Y009849D02*
X009400Y009849D01*
X009400Y010007D02*
X007098Y010007D01*
X007387Y010641D02*
X004473Y010641D01*
X004546Y011592D02*
X004714Y011592D01*
X005348Y011909D02*
X006212Y011909D01*
X005912Y012702D02*
X003998Y012702D01*
X003954Y012860D02*
X005912Y012860D01*
X005964Y013019D02*
X000460Y013019D01*
X000460Y013177D02*
X006060Y013177D01*
X007208Y011275D02*
X000460Y011275D01*
X000460Y011117D02*
X009400Y011117D01*
X009400Y011275D02*
X008152Y011275D01*
X008361Y011909D02*
X009400Y011909D01*
X009400Y011751D02*
X008420Y011751D01*
X007948Y010483D02*
X009400Y010483D01*
X009400Y010641D02*
X007873Y010641D01*
X007948Y010324D02*
X009400Y010324D01*
X009400Y010166D02*
X007948Y010166D01*
X008311Y007471D02*
X009400Y007471D01*
X009400Y007313D02*
X008401Y007313D01*
X008420Y007154D02*
X009400Y007154D01*
X009400Y006996D02*
X008380Y006996D01*
X008259Y006837D02*
X009400Y006837D01*
X009400Y006679D02*
X003483Y006679D01*
X004398Y005886D02*
X007052Y005886D01*
X007007Y005931D02*
X007131Y005807D01*
X007292Y005740D01*
X008068Y005740D01*
X008229Y005807D01*
X008353Y005931D01*
X008420Y006092D01*
X008420Y006268D01*
X008353Y006429D01*
X008229Y006553D01*
X008068Y006620D01*
X007292Y006620D01*
X007131Y006553D01*
X007007Y006429D01*
X006940Y006268D01*
X006940Y006092D01*
X007007Y005931D01*
X006960Y006045D02*
X000460Y006045D01*
X000460Y006203D02*
X006940Y006203D01*
X006979Y006362D02*
X000460Y006362D01*
X000460Y006520D02*
X007098Y006520D01*
X007101Y006837D02*
X005998Y006837D01*
X005998Y006996D02*
X006980Y006996D01*
X006940Y007154D02*
X005998Y007154D01*
X005952Y007313D02*
X006959Y007313D01*
X007292Y005620D02*
X007131Y005553D01*
X007007Y005429D01*
X006940Y005268D01*
X006940Y005092D01*
X007007Y004931D01*
X007131Y004807D01*
X007292Y004740D01*
X008068Y004740D01*
X008229Y004807D01*
X008353Y004931D01*
X008420Y005092D01*
X008420Y005268D01*
X008353Y005429D01*
X008229Y005553D01*
X008068Y005620D01*
X007292Y005620D01*
X007169Y005569D02*
X004398Y005569D01*
X004398Y005728D02*
X009400Y005728D01*
X009400Y005886D02*
X008308Y005886D01*
X008400Y006045D02*
X009400Y006045D01*
X009400Y006203D02*
X008420Y006203D01*
X008381Y006362D02*
X009400Y006362D01*
X009400Y006520D02*
X008262Y006520D01*
X008191Y005569D02*
X009400Y005569D01*
X009400Y005411D02*
X008361Y005411D01*
X008420Y005252D02*
X009400Y005252D01*
X009400Y005094D02*
X008420Y005094D01*
X008355Y004935D02*
X009400Y004935D01*
X009400Y004777D02*
X008156Y004777D01*
X008072Y004618D02*
X009400Y004618D01*
X009400Y004460D02*
X008323Y004460D01*
X008353Y004429D02*
X008229Y004553D01*
X008068Y004620D01*
X007292Y004620D01*
X007131Y004553D01*
X007007Y004429D01*
X006940Y004268D01*
X006940Y004092D01*
X007007Y003931D01*
X007131Y003807D01*
X007292Y003740D01*
X008068Y003740D01*
X008229Y003807D01*
X008353Y003931D01*
X008420Y004092D01*
X008420Y004268D01*
X008353Y004429D01*
X008406Y004301D02*
X009400Y004301D01*
X009400Y004143D02*
X008420Y004143D01*
X008375Y003984D02*
X009400Y003984D01*
X009400Y003826D02*
X008248Y003826D01*
X008164Y003625D02*
X008232Y003591D01*
X008293Y003546D01*
X008346Y003493D01*
X008391Y003432D01*
X008425Y003364D01*
X008448Y003292D01*
X008460Y003218D01*
X008460Y003200D01*
X007700Y003200D01*
X007660Y003200D01*
X007660Y003660D01*
X007342Y003660D01*
X007268Y003648D01*
X007196Y003625D01*
X007128Y003591D01*
X007067Y003546D01*
X007014Y003493D01*
X006969Y003432D01*
X006935Y003364D01*
X006912Y003292D01*
X006900Y003218D01*
X006900Y003200D01*
X007660Y003200D01*
X007660Y003160D01*
X007700Y003160D01*
X007700Y003200D01*
X007700Y003660D01*
X008018Y003660D01*
X008092Y003648D01*
X008164Y003625D01*
X008330Y003509D02*
X009400Y003509D01*
X009400Y003667D02*
X000460Y003667D01*
X000460Y003509D02*
X007030Y003509D01*
X006931Y003350D02*
X000460Y003350D01*
X000460Y003192D02*
X007660Y003192D01*
X007660Y003160D02*
X006900Y003160D01*
X006900Y003142D01*
X006912Y003068D01*
X006935Y002996D01*
X006969Y002928D01*
X007014Y002867D01*
X007067Y002814D01*
X007128Y002769D01*
X007196Y002735D01*
X007268Y002712D01*
X007342Y002700D01*
X007660Y002700D01*
X007660Y003160D01*
X007700Y003160D02*
X007700Y002700D01*
X008018Y002700D01*
X008092Y002712D01*
X008164Y002735D01*
X008232Y002769D01*
X008293Y002814D01*
X008346Y002867D01*
X008391Y002928D01*
X008425Y002996D01*
X008448Y003068D01*
X008460Y003142D01*
X008460Y003160D01*
X007700Y003160D01*
X007700Y003192D02*
X009400Y003192D01*
X009400Y003350D02*
X008429Y003350D01*
X008437Y003033D02*
X009400Y003033D01*
X009400Y002875D02*
X008351Y002875D01*
X008105Y002716D02*
X009400Y002716D01*
X009400Y002558D02*
X000460Y002558D01*
X000460Y002716D02*
X007255Y002716D01*
X007009Y002875D02*
X000460Y002875D01*
X000460Y003033D02*
X006923Y003033D01*
X007112Y003826D02*
X000460Y003826D01*
X000460Y003984D02*
X006985Y003984D01*
X006940Y004143D02*
X000460Y004143D01*
X000460Y004301D02*
X006954Y004301D01*
X007037Y004460D02*
X000460Y004460D01*
X000460Y004618D02*
X007288Y004618D01*
X007204Y004777D02*
X000460Y004777D01*
X000460Y004935D02*
X007005Y004935D01*
X006940Y005094D02*
X000460Y005094D01*
X000460Y005252D02*
X006940Y005252D01*
X006999Y005411D02*
X004365Y005411D01*
X004002Y001336D02*
X003731Y001336D01*
X003731Y000909D01*
X003724Y000909D01*
X003724Y001336D01*
X003453Y001336D01*
X003407Y001324D01*
X003366Y001300D01*
X003332Y001267D01*
X003309Y001226D01*
X003296Y001180D01*
X003296Y000909D01*
X003724Y000909D01*
X003724Y000902D01*
X003296Y000902D01*
X003296Y000631D01*
X003309Y000585D01*
X003332Y000544D01*
X003366Y000510D01*
X003407Y000486D01*
X003453Y000474D01*
X003724Y000474D01*
X003724Y000902D01*
X003731Y000902D01*
X003731Y000909D01*
X004158Y000909D01*
X004158Y001180D01*
X004146Y001226D01*
X004122Y001267D01*
X004089Y001300D01*
X004048Y001324D01*
X004002Y001336D01*
X004099Y001290D02*
X009400Y001290D01*
X009400Y001448D02*
X000460Y001448D01*
X000460Y001290D02*
X003355Y001290D01*
X003296Y001131D02*
X000460Y001131D01*
X000460Y000973D02*
X003296Y000973D01*
X003296Y000814D02*
X000460Y000814D01*
X000460Y000656D02*
X003296Y000656D01*
X003389Y000497D02*
X000460Y000497D01*
X000460Y000460D02*
X000460Y025100D01*
X009400Y025100D01*
X009400Y000460D01*
X000460Y000460D01*
X000460Y001607D02*
X009400Y001607D01*
X009400Y001765D02*
X000460Y001765D01*
X000460Y001924D02*
X009400Y001924D01*
X009400Y002082D02*
X000460Y002082D01*
X000460Y002241D02*
X009400Y002241D01*
X009400Y002399D02*
X000460Y002399D01*
X000460Y006679D02*
X000877Y006679D01*
X000862Y006837D02*
X000460Y006837D01*
X000460Y006996D02*
X000862Y006996D01*
X000862Y007154D02*
X000460Y007154D01*
X000460Y008898D02*
X009400Y008898D01*
X009400Y009056D02*
X000460Y009056D01*
X000460Y009215D02*
X009400Y009215D01*
X009400Y009373D02*
X000460Y009373D01*
X000460Y009849D02*
X001462Y009849D01*
X001462Y010007D02*
X000460Y010007D01*
X000460Y010166D02*
X001462Y010166D01*
X001520Y010324D02*
X000460Y010324D01*
X000460Y010800D02*
X009400Y010800D01*
X009400Y010958D02*
X000460Y010958D01*
X000460Y013970D02*
X000762Y013970D01*
X000762Y014128D02*
X000460Y014128D01*
X000460Y014287D02*
X000762Y014287D01*
X000791Y014445D02*
X000460Y014445D01*
X000460Y014604D02*
X001612Y014604D01*
X001612Y014762D02*
X000460Y014762D01*
X000460Y014921D02*
X001612Y014921D01*
X001675Y015079D02*
X000460Y015079D01*
X000460Y015238D02*
X001162Y015238D01*
X001162Y015194D02*
X001244Y015112D01*
X001716Y015112D01*
X001798Y015194D01*
X001798Y015260D01*
X008662Y015260D01*
X008662Y015194D01*
X008744Y015112D01*
X009216Y015112D01*
X009298Y015194D01*
X009298Y015666D01*
X009216Y015748D01*
X008744Y015748D01*
X008662Y015666D01*
X008662Y015600D01*
X001798Y015600D01*
X001798Y015666D01*
X001716Y015748D01*
X001244Y015748D01*
X001162Y015666D01*
X001162Y015194D01*
X001162Y015396D02*
X000460Y015396D01*
X000460Y015555D02*
X001162Y015555D01*
X001209Y015713D02*
X000460Y015713D01*
X000460Y015872D02*
X009400Y015872D01*
X009400Y016030D02*
X000460Y016030D01*
X000460Y016189D02*
X009400Y016189D01*
X009400Y016347D02*
X000460Y016347D01*
X000460Y016506D02*
X009400Y016506D01*
X009400Y016664D02*
X000460Y016664D01*
X000460Y017457D02*
X003749Y017457D01*
X003712Y017615D02*
X000460Y017615D01*
X000460Y017774D02*
X003712Y017774D01*
X003712Y017932D02*
X000460Y017932D01*
X000460Y018725D02*
X009400Y018725D01*
X009400Y018883D02*
X000460Y018883D01*
X000460Y019042D02*
X009400Y019042D01*
X009400Y019200D02*
X000460Y019200D01*
X000460Y020310D02*
X007010Y020310D01*
X007010Y020468D02*
X000460Y020468D01*
X000460Y020627D02*
X007136Y020627D01*
X007147Y020785D02*
X000460Y020785D01*
X000460Y020944D02*
X007221Y020944D01*
X007449Y021102D02*
X000460Y021102D01*
X000460Y021261D02*
X009400Y021261D01*
X009400Y021419D02*
X000460Y021419D01*
X000460Y021578D02*
X009400Y021578D01*
X009400Y021736D02*
X000460Y021736D01*
X000460Y021895D02*
X009400Y021895D01*
X009400Y022053D02*
X000460Y022053D01*
X000460Y022212D02*
X009400Y022212D01*
X009400Y022370D02*
X000460Y022370D01*
X000460Y022529D02*
X009400Y022529D01*
X009400Y022687D02*
X000460Y022687D01*
X000460Y022846D02*
X001762Y022846D01*
X001762Y022794D02*
X001844Y022712D01*
X002316Y022712D01*
X002398Y022794D01*
X002398Y022860D01*
X002462Y022860D01*
X002462Y022794D01*
X002544Y022712D01*
X003016Y022712D01*
X003098Y022794D01*
X003098Y023266D01*
X003016Y023348D01*
X002544Y023348D01*
X002462Y023266D01*
X002462Y023200D01*
X002398Y023200D01*
X002398Y023266D01*
X002316Y023348D01*
X001844Y023348D01*
X001762Y023266D01*
X001762Y022794D01*
X001762Y023004D02*
X000460Y023004D01*
X000460Y023163D02*
X001762Y023163D01*
X001817Y023321D02*
X000460Y023321D01*
X000460Y023480D02*
X009400Y023480D01*
X009400Y023638D02*
X000460Y023638D01*
X000460Y023797D02*
X009400Y023797D01*
X009400Y023955D02*
X000460Y023955D01*
X000460Y024114D02*
X003431Y024114D01*
X003336Y024208D02*
X003336Y024532D01*
X003565Y024761D01*
X003889Y024761D01*
X004118Y024532D01*
X004118Y024208D01*
X003889Y023979D01*
X003565Y023979D01*
X003336Y024208D01*
X003336Y024272D02*
X000460Y024272D01*
X000460Y024431D02*
X003336Y024431D01*
X003394Y024589D02*
X000460Y024589D01*
X000460Y024748D02*
X003552Y024748D01*
X003902Y024748D02*
X009400Y024748D01*
X009400Y024906D02*
X000460Y024906D01*
X000460Y025065D02*
X009400Y025065D01*
X009400Y024589D02*
X004061Y024589D01*
X004118Y024431D02*
X009400Y024431D01*
X009400Y024272D02*
X004118Y024272D01*
X004024Y024114D02*
X009400Y024114D01*
X009400Y023321D02*
X003043Y023321D01*
X003098Y023163D02*
X009400Y023163D01*
X009400Y023004D02*
X003098Y023004D01*
X003098Y022846D02*
X009400Y022846D01*
X009400Y019834D02*
X008592Y019834D01*
X008620Y019676D02*
X009400Y019676D01*
X009400Y019517D02*
X008589Y019517D01*
X008481Y019359D02*
X009400Y019359D01*
X009400Y018566D02*
X008398Y018566D01*
X008562Y018408D02*
X009400Y018408D01*
X009400Y018249D02*
X008620Y018249D01*
X008619Y018091D02*
X009400Y018091D01*
X009400Y017932D02*
X008554Y017932D01*
X008348Y017774D02*
X009400Y017774D01*
X009400Y017615D02*
X008280Y017615D01*
X008526Y017457D02*
X009400Y017457D01*
X009400Y017298D02*
X008607Y017298D01*
X008620Y017140D02*
X009400Y017140D01*
X009400Y016981D02*
X008574Y016981D01*
X008445Y016823D02*
X009400Y016823D01*
X009400Y015713D02*
X009251Y015713D01*
X009298Y015555D02*
X009400Y015555D01*
X009400Y015396D02*
X009298Y015396D01*
X009298Y015238D02*
X009400Y015238D01*
X009400Y015079D02*
X003635Y015079D01*
X003698Y014921D02*
X009400Y014921D01*
X009400Y014445D02*
X007850Y014445D01*
X007850Y014287D02*
X009400Y014287D01*
X009400Y014128D02*
X007850Y014128D01*
X008258Y013336D02*
X009400Y013336D01*
X009400Y013494D02*
X008379Y013494D01*
X008420Y013653D02*
X009400Y013653D01*
X009400Y013811D02*
X008402Y013811D01*
X008313Y013970D02*
X009400Y013970D01*
X008709Y015713D02*
X001751Y015713D01*
X001798Y015238D02*
X008662Y015238D01*
X004212Y013811D02*
X004048Y013811D01*
X003062Y014604D02*
X002248Y014604D01*
X002185Y015079D02*
X003125Y015079D01*
X002791Y014445D02*
X002369Y014445D01*
X002398Y014287D02*
X002762Y014287D01*
X002762Y014128D02*
X002398Y014128D01*
X002398Y013970D02*
X002762Y013970D01*
X002863Y012068D02*
X002448Y012068D01*
X002396Y011592D02*
X002864Y011592D01*
X001791Y014445D02*
X001369Y014445D01*
X001398Y013970D02*
X001762Y013970D01*
X001371Y019517D02*
X002939Y019517D01*
X002912Y019993D02*
X001398Y019993D01*
X002398Y022846D02*
X002462Y022846D01*
X002517Y023321D02*
X002343Y023321D01*
X007660Y003509D02*
X007700Y003509D01*
X007700Y003350D02*
X007660Y003350D01*
X007660Y003033D02*
X007700Y003033D01*
X007700Y002875D02*
X007660Y002875D01*
X007660Y002716D02*
X007700Y002716D01*
X009400Y001131D02*
X004158Y001131D01*
X004158Y000973D02*
X009400Y000973D01*
X009400Y000814D02*
X004158Y000814D01*
X004158Y000902D02*
X003731Y000902D01*
X003731Y000474D01*
X004002Y000474D01*
X004048Y000486D01*
X004089Y000510D01*
X004122Y000544D01*
X004146Y000585D01*
X004158Y000631D01*
X004158Y000902D01*
X004158Y000656D02*
X009400Y000656D01*
X009400Y000497D02*
X004066Y000497D01*
X003731Y000497D02*
X003724Y000497D01*
X003724Y000656D02*
X003731Y000656D01*
X003724Y000814D02*
X003731Y000814D01*
X003724Y000973D02*
X003731Y000973D01*
X003724Y001131D02*
X003731Y001131D01*
X003724Y001290D02*
X003731Y001290D01*
D15*
X004080Y005680D03*
X003180Y006930D03*
X002630Y007680D03*
X002230Y008280D03*
X001780Y010030D03*
X002430Y010180D03*
X002130Y011880D03*
X001530Y012230D03*
X001080Y014180D03*
X001480Y015430D03*
X001930Y014780D03*
X002080Y014180D03*
X002980Y012480D03*
X003180Y011830D03*
X003680Y012580D03*
X003380Y013180D03*
X003730Y013730D03*
X003380Y014780D03*
X003080Y014180D03*
X003430Y016730D03*
X004030Y017730D03*
X003230Y019780D03*
X003180Y021280D03*
X002780Y023030D03*
X002080Y023030D03*
X001680Y021280D03*
X001080Y019780D03*
X004230Y011830D03*
X004230Y010330D03*
X005030Y011830D03*
X004530Y013630D03*
X004530Y014580D03*
X005080Y019080D03*
X006230Y012730D03*
X006530Y012080D03*
X006780Y009780D03*
X006680Y008280D03*
X005680Y007030D03*
X005180Y007680D03*
X007630Y010330D03*
X007780Y009330D03*
X008980Y015430D03*
X001880Y005680D03*
X001180Y006930D03*
X001330Y008280D03*
D16*
X002230Y008280D01*
X006680Y008280D01*
X006780Y009780D02*
X002030Y009780D01*
X001780Y010030D01*
X002430Y010180D02*
X002580Y010330D01*
X004230Y010330D01*
X007630Y010330D01*
X007380Y012380D02*
X003980Y012380D01*
X003780Y012580D01*
X003680Y012580D01*
X003380Y012230D02*
X003130Y012480D01*
X002980Y012480D01*
X003130Y011880D02*
X003180Y011830D01*
X003130Y011880D02*
X002130Y011880D01*
X002080Y014180D02*
X001080Y014180D01*
X001480Y015430D02*
X008980Y015430D01*
X007530Y017830D02*
X007880Y018180D01*
X007530Y017830D02*
X004130Y017830D01*
X004030Y017730D01*
X003230Y019780D02*
X001080Y019780D01*
X002080Y023030D02*
X002780Y023030D01*
X003230Y019780D02*
X006980Y019780D01*
X007180Y019980D01*
X007180Y020430D01*
X007430Y020680D01*
X007880Y020680D01*
X007530Y014580D02*
X007680Y014430D01*
X007680Y013680D01*
X007530Y014580D02*
X004530Y014580D01*
X004530Y013630D02*
X003830Y013630D01*
X003730Y013730D01*
X003380Y014780D02*
X001930Y014780D01*
X003080Y014180D02*
X005880Y014180D01*
X006230Y013830D01*
X006230Y012730D01*
X006380Y012230D02*
X003380Y012230D01*
X004230Y011830D02*
X005030Y011830D01*
X006380Y012230D02*
X006530Y012080D01*
X007380Y012380D02*
X007680Y012680D01*
X005680Y007030D02*
X005480Y006930D01*
X003180Y006930D01*
X001180Y006930D01*
X001880Y005680D02*
X004080Y005680D01*
X005180Y007680D02*
X002630Y007680D01*
M02*
