G75*
%MOIN*%
%OFA0B0*%
%FSLAX24Y24*%
%IPPOS*%
%LPD*%
%AMOC8*
5,1,8,0,0,1.08239X$1,22.5*
%
%ADD10C,0.0000*%
%ADD11C,0.0030*%
%ADD12C,0.0070*%
%ADD13C,0.0040*%
%ADD14R,0.0100X0.0100*%
%ADD15C,0.0050*%
%ADD16R,0.0118X0.0118*%
%ADD17C,0.0020*%
%ADD18C,0.0039*%
%ADD19C,0.0060*%
%ADD20C,0.0031*%
D10*
X000180Y000180D02*
X000180Y025380D01*
X009680Y025380D01*
X009680Y000180D01*
X000180Y000180D01*
D11*
X002295Y002895D02*
X002603Y002895D01*
X002665Y002957D01*
X002665Y003080D01*
X002603Y003142D01*
X002295Y003142D01*
X002356Y003263D02*
X002418Y003263D01*
X002480Y003325D01*
X002480Y003510D01*
X002603Y003510D02*
X002356Y003510D01*
X002295Y003448D01*
X002295Y003325D01*
X002356Y003263D01*
X002603Y003263D02*
X002665Y003325D01*
X002665Y003448D01*
X002603Y003510D01*
X004745Y003448D02*
X004806Y003510D01*
X004868Y003510D01*
X004930Y003448D01*
X004992Y003510D01*
X005053Y003510D01*
X005115Y003448D01*
X005115Y003325D01*
X005053Y003263D01*
X004992Y003263D01*
X004930Y003325D01*
X004868Y003263D01*
X004806Y003263D01*
X004745Y003325D01*
X004745Y003448D01*
X004930Y003448D02*
X004930Y003325D01*
X005053Y003142D02*
X004745Y003142D01*
X004745Y002895D02*
X005053Y002895D01*
X005115Y002957D01*
X005115Y003080D01*
X005053Y003142D01*
X006061Y003073D02*
X006109Y003025D01*
X006206Y003025D01*
X006255Y003073D01*
X006255Y003170D01*
X006158Y003170D01*
X006255Y003267D02*
X006206Y003315D01*
X006109Y003315D01*
X006061Y003267D01*
X006061Y003073D01*
X006356Y003025D02*
X006356Y003315D01*
X006549Y003025D01*
X006549Y003315D01*
X006650Y003315D02*
X006650Y003025D01*
X006795Y003025D01*
X006844Y003073D01*
X006844Y003267D01*
X006795Y003315D01*
X006650Y003315D01*
X006650Y003975D02*
X006844Y003975D01*
X006650Y003975D02*
X006650Y004265D01*
X006549Y004265D02*
X006356Y004265D01*
X006356Y003975D01*
X006549Y003975D01*
X006452Y004120D02*
X006356Y004120D01*
X006255Y004072D02*
X006255Y004023D01*
X006206Y003975D01*
X006109Y003975D01*
X006061Y004023D01*
X006109Y004120D02*
X006206Y004120D01*
X006255Y004072D01*
X006255Y004217D02*
X006206Y004265D01*
X006109Y004265D01*
X006061Y004217D01*
X006061Y004168D01*
X006109Y004120D01*
X006109Y005025D02*
X006061Y005073D01*
X006109Y005025D02*
X006206Y005025D01*
X006255Y005073D01*
X006255Y005122D01*
X006206Y005170D01*
X006109Y005170D01*
X006061Y005218D01*
X006061Y005267D01*
X006109Y005315D01*
X006206Y005315D01*
X006255Y005267D01*
X006356Y005267D02*
X006356Y005073D01*
X006404Y005025D01*
X006501Y005025D01*
X006549Y005073D01*
X006650Y005025D02*
X006650Y005315D01*
X006549Y005267D02*
X006501Y005315D01*
X006404Y005315D01*
X006356Y005267D01*
X006650Y005025D02*
X006844Y005025D01*
X006844Y006025D02*
X006844Y006218D01*
X006747Y006315D01*
X006650Y006218D01*
X006650Y006025D01*
X006549Y006073D02*
X006549Y006267D01*
X006501Y006315D01*
X006356Y006315D01*
X006356Y006025D01*
X006501Y006025D01*
X006549Y006073D01*
X006650Y006170D02*
X006844Y006170D01*
X006849Y006975D02*
X006945Y006975D01*
X006897Y006975D02*
X006897Y007265D01*
X006849Y007265D02*
X006945Y007265D01*
X006747Y007217D02*
X006699Y007265D01*
X006602Y007265D01*
X006554Y007217D01*
X006554Y007168D01*
X006602Y007120D01*
X006699Y007120D01*
X006747Y007072D01*
X006747Y007023D01*
X006699Y006975D01*
X006602Y006975D01*
X006554Y007023D01*
X006453Y007023D02*
X006453Y007217D01*
X006404Y007265D01*
X006308Y007265D01*
X006259Y007217D01*
X006259Y007023D01*
X006308Y006975D01*
X006404Y006975D01*
X006453Y007023D01*
X006158Y006975D02*
X006158Y007265D01*
X006061Y007168D01*
X005965Y007265D01*
X005965Y006975D01*
X006109Y006315D02*
X006061Y006267D01*
X006061Y006218D01*
X006109Y006170D01*
X006206Y006170D01*
X006255Y006122D01*
X006255Y006073D01*
X006206Y006025D01*
X006109Y006025D01*
X006061Y006073D01*
X006109Y006315D02*
X006206Y006315D01*
X006255Y006267D01*
X006197Y008025D02*
X006100Y008122D01*
X006100Y008315D01*
X005999Y008315D02*
X005806Y008315D01*
X005806Y008170D01*
X005902Y008218D01*
X005951Y008218D01*
X005999Y008170D01*
X005999Y008073D01*
X005951Y008025D01*
X005854Y008025D01*
X005806Y008073D01*
X006197Y008025D02*
X006294Y008122D01*
X006294Y008315D01*
X005753Y009458D02*
X005815Y009520D01*
X005815Y009644D01*
X005753Y009705D01*
X005445Y009705D01*
X005445Y009827D02*
X005445Y010074D01*
X005506Y010074D01*
X005753Y009827D01*
X005815Y009827D01*
X005753Y009458D02*
X005445Y009458D01*
X004253Y010845D02*
X004315Y010907D01*
X004315Y011030D01*
X004253Y011092D01*
X004315Y011213D02*
X004068Y011460D01*
X004006Y011460D01*
X003945Y011398D01*
X003945Y011275D01*
X004006Y011213D01*
X004006Y011092D02*
X003945Y011030D01*
X003945Y010907D01*
X004006Y010845D01*
X004253Y010845D01*
X004315Y011213D02*
X004315Y011460D01*
X005445Y014758D02*
X005753Y014758D01*
X005815Y014820D01*
X005815Y014944D01*
X005753Y015005D01*
X005445Y015005D01*
X005630Y015127D02*
X005506Y015250D01*
X005445Y015374D01*
X005630Y015312D02*
X005630Y015127D01*
X005753Y015127D01*
X005815Y015188D01*
X005815Y015312D01*
X005753Y015374D01*
X005692Y015374D01*
X005630Y015312D01*
X004615Y020895D02*
X004245Y020895D01*
X004368Y021263D02*
X004245Y021387D01*
X004615Y021387D01*
X004615Y021510D02*
X004615Y021263D01*
X004615Y021142D02*
X004615Y020895D01*
X004003Y022145D02*
X004065Y022207D01*
X004065Y022330D01*
X004003Y022392D01*
X004065Y022513D02*
X004065Y022760D01*
X004065Y022637D02*
X003695Y022637D01*
X003818Y022513D01*
X003756Y022392D02*
X003695Y022330D01*
X003695Y022207D01*
X003756Y022145D01*
X004003Y022145D01*
X002753Y020824D02*
X002815Y020762D01*
X002815Y020638D01*
X002753Y020577D01*
X002753Y020455D02*
X002815Y020394D01*
X002815Y020270D01*
X002753Y020208D01*
X002506Y020208D01*
X002445Y020270D01*
X002445Y020394D01*
X002506Y020455D01*
X002506Y020577D02*
X002445Y020638D01*
X002445Y020762D01*
X002506Y020824D01*
X002568Y020824D01*
X002630Y020762D01*
X002692Y020824D01*
X002753Y020824D01*
X002630Y020762D02*
X002630Y020700D01*
X002353Y021908D02*
X002415Y021970D01*
X002415Y022094D01*
X002353Y022155D01*
X002045Y022155D01*
X002106Y022277D02*
X002045Y022338D01*
X002045Y022462D01*
X002106Y022524D01*
X002168Y022524D01*
X002415Y022277D01*
X002415Y022524D01*
X002353Y021908D02*
X002045Y021908D01*
X001853Y016760D02*
X001730Y016760D01*
X001668Y016698D01*
X001668Y016637D01*
X001730Y016513D01*
X001545Y016513D01*
X001545Y016760D01*
X001545Y016392D02*
X001853Y016392D01*
X001915Y016330D01*
X001915Y016207D01*
X001853Y016145D01*
X001545Y016145D01*
X001853Y016513D02*
X001915Y016575D01*
X001915Y016698D01*
X001853Y016760D01*
X001430Y013924D02*
X001430Y013677D01*
X001245Y013862D01*
X001615Y013862D01*
X001553Y013555D02*
X001245Y013555D01*
X001245Y013308D02*
X001553Y013308D01*
X001615Y013370D01*
X001615Y013494D01*
X001553Y013555D01*
X001592Y011160D02*
X001530Y011098D01*
X001530Y011037D01*
X001530Y011098D02*
X001468Y011160D01*
X001406Y011160D01*
X001345Y011098D01*
X001345Y010975D01*
X001406Y010913D01*
X001345Y010792D02*
X001653Y010792D01*
X001715Y010730D01*
X001715Y010607D01*
X001653Y010545D01*
X001345Y010545D01*
X001653Y010913D02*
X001715Y010975D01*
X001715Y011098D01*
X001653Y011160D01*
X001592Y011160D01*
X001365Y009674D02*
X001365Y009427D01*
X001118Y009674D01*
X001056Y009674D01*
X000995Y009612D01*
X000995Y009488D01*
X001056Y009427D01*
X001056Y009305D02*
X001180Y009305D01*
X001242Y009244D01*
X001242Y009058D01*
X001365Y009058D02*
X000995Y009058D01*
X000995Y009244D01*
X001056Y009305D01*
X001242Y009182D02*
X001365Y009305D01*
X002545Y009294D02*
X002545Y009108D01*
X002915Y009108D01*
X002792Y009108D02*
X002792Y009294D01*
X002730Y009355D01*
X002606Y009355D01*
X002545Y009294D01*
X002668Y009477D02*
X002545Y009600D01*
X002915Y009600D01*
X002915Y009477D02*
X002915Y009724D01*
X002915Y009355D02*
X002792Y009232D01*
X006495Y022895D02*
X006495Y023080D01*
X006556Y023142D01*
X006680Y023142D01*
X006742Y023080D01*
X006742Y022895D01*
X006865Y022895D02*
X006495Y022895D01*
X006680Y023263D02*
X006618Y023325D01*
X006618Y023448D01*
X006680Y023510D01*
X006742Y023510D01*
X006742Y023263D01*
X006803Y023263D02*
X006680Y023263D01*
X006803Y023263D02*
X006865Y023325D01*
X006865Y023448D01*
X006865Y023142D02*
X006742Y023018D01*
X006618Y023632D02*
X006865Y023755D01*
X006618Y023879D01*
X006618Y024368D02*
X006495Y024492D01*
X006865Y024492D01*
X006865Y024615D02*
X006865Y024368D01*
X008606Y008210D02*
X008668Y008210D01*
X008730Y008148D01*
X008792Y008210D01*
X008853Y008210D01*
X008915Y008148D01*
X008915Y008025D01*
X008853Y007963D01*
X008915Y007842D02*
X008792Y007718D01*
X008792Y007780D02*
X008792Y007595D01*
X008915Y007595D02*
X008545Y007595D01*
X008545Y007780D01*
X008606Y007842D01*
X008730Y007842D01*
X008792Y007780D01*
X008730Y008087D02*
X008730Y008148D01*
X008606Y008210D02*
X008545Y008148D01*
X008545Y008025D01*
X008606Y007963D01*
D12*
X005845Y016915D02*
X005315Y016915D01*
X005315Y017180D01*
X005403Y017269D01*
X005580Y017269D01*
X005668Y017180D01*
X005668Y016915D01*
X005668Y017467D02*
X005491Y017644D01*
X005491Y017733D01*
X005580Y017928D02*
X005491Y018016D01*
X005491Y018193D01*
X005580Y018281D01*
X005757Y018281D01*
X005845Y018193D01*
X005845Y018016D01*
X005757Y017928D01*
X005580Y017928D01*
X005491Y017467D02*
X005845Y017467D01*
X006022Y018480D02*
X006022Y018569D01*
X005933Y018657D01*
X005491Y018657D01*
X005580Y018849D02*
X005491Y018937D01*
X005491Y019114D01*
X005580Y019202D01*
X005668Y019202D01*
X005668Y018849D01*
X005580Y018849D02*
X005757Y018849D01*
X005845Y018937D01*
X005845Y019114D01*
X005757Y019401D02*
X005845Y019490D01*
X005845Y019755D01*
X005757Y020042D02*
X005845Y020130D01*
X005757Y020042D02*
X005403Y020042D01*
X005491Y019954D02*
X005491Y020130D01*
X005491Y019755D02*
X005491Y019490D01*
X005580Y019401D01*
X005757Y019401D01*
X005315Y018657D02*
X005226Y018657D01*
X005491Y020874D02*
X005315Y021051D01*
X005845Y021051D01*
X005845Y020874D02*
X005845Y021228D01*
X005845Y021427D02*
X005491Y021780D01*
X005403Y021780D01*
X005315Y021692D01*
X005315Y021515D01*
X005403Y021427D01*
X005491Y021979D02*
X005315Y022156D01*
X005845Y022156D01*
X005845Y021979D02*
X005845Y022333D01*
X005845Y021780D02*
X005845Y021427D01*
D13*
X006180Y021413D02*
X006460Y021413D01*
X006460Y021320D02*
X006460Y021507D01*
X006413Y021614D02*
X006460Y021661D01*
X006460Y021755D01*
X006413Y021801D01*
X006367Y021801D01*
X006320Y021755D01*
X006320Y021614D01*
X006413Y021614D01*
X006320Y021614D02*
X006226Y021708D01*
X006180Y021801D01*
X006180Y021413D02*
X006273Y021320D01*
X006226Y021212D02*
X006180Y021165D01*
X006180Y021072D01*
X006226Y021025D01*
X006413Y021025D01*
X006226Y021212D01*
X006413Y021212D01*
X006460Y021165D01*
X006460Y021072D01*
X006413Y021025D01*
X006460Y020917D02*
X006460Y020730D01*
X006273Y020917D01*
X006226Y020917D01*
X006180Y020871D01*
X006180Y020777D01*
X006226Y020730D01*
X006273Y020330D02*
X006273Y020284D01*
X006367Y020190D01*
X006460Y020190D02*
X006273Y020190D01*
X006320Y020082D02*
X006273Y020036D01*
X006273Y019942D01*
X006320Y019896D01*
X006413Y019896D01*
X006460Y019942D01*
X006460Y020036D01*
X006367Y020082D02*
X006367Y019896D01*
X006460Y019793D02*
X006460Y019699D01*
X006460Y019746D02*
X006180Y019746D01*
X006180Y019699D01*
X006180Y019549D02*
X006460Y019549D01*
X006460Y019503D02*
X006460Y019596D01*
X006460Y019395D02*
X006273Y019395D01*
X006180Y019503D02*
X006180Y019549D01*
X006273Y019208D02*
X006413Y019208D01*
X006460Y019255D01*
X006460Y019395D01*
X006320Y019007D02*
X006320Y018913D01*
X006460Y018913D02*
X006180Y018913D01*
X006180Y019100D01*
X006273Y018511D02*
X006413Y018511D01*
X006460Y018464D01*
X006413Y018418D01*
X006460Y018371D01*
X006413Y018324D01*
X006273Y018324D01*
X006320Y018216D02*
X006273Y018170D01*
X006273Y018076D01*
X006320Y018029D01*
X006413Y018029D01*
X006460Y018076D01*
X006460Y018170D01*
X006367Y018216D02*
X006367Y018029D01*
X006273Y017924D02*
X006273Y017877D01*
X006367Y017784D01*
X006460Y017784D02*
X006273Y017784D01*
X006273Y017676D02*
X006273Y017536D01*
X006320Y017489D01*
X006413Y017489D01*
X006460Y017536D01*
X006460Y017676D01*
X006180Y017676D01*
X006320Y017381D02*
X006273Y017335D01*
X006273Y017195D01*
X006460Y017195D01*
X006460Y017087D02*
X006273Y017087D01*
X006180Y016993D01*
X006273Y016900D01*
X006460Y016900D01*
X006320Y016900D02*
X006320Y017087D01*
X006320Y017381D02*
X006460Y017381D01*
X006367Y018216D02*
X006320Y018216D01*
X006320Y020082D02*
X006367Y020082D01*
X008680Y020088D02*
X008680Y020268D01*
X008740Y020329D01*
X008980Y020329D01*
X009040Y020268D01*
X009040Y020088D01*
X008680Y020088D01*
X008740Y019960D02*
X008680Y019900D01*
X008680Y019780D01*
X008740Y019720D01*
X008800Y019720D01*
X008860Y019780D01*
X008860Y019900D01*
X008920Y019960D01*
X008980Y019960D01*
X009040Y019900D01*
X009040Y019780D01*
X008980Y019720D01*
X009040Y020457D02*
X008800Y020457D01*
X008680Y020577D01*
X008800Y020697D01*
X009040Y020697D01*
X008860Y020697D02*
X008860Y020457D01*
X009040Y018197D02*
X009040Y017957D01*
X008680Y017957D01*
X008740Y017829D02*
X008680Y017768D01*
X008680Y017648D01*
X008740Y017588D01*
X008980Y017588D01*
X009040Y017648D01*
X009040Y017768D01*
X008980Y017829D01*
X008980Y017460D02*
X008920Y017460D01*
X008860Y017400D01*
X008860Y017280D01*
X008800Y017220D01*
X008740Y017220D01*
X008680Y017280D01*
X008680Y017400D01*
X008740Y017460D01*
X008980Y017460D02*
X009040Y017400D01*
X009040Y017280D01*
X008980Y017220D01*
X008920Y013902D02*
X008980Y013842D01*
X008980Y013722D01*
X008920Y013662D01*
X008680Y013662D01*
X008620Y013722D01*
X008620Y013842D01*
X008680Y013902D01*
X008680Y013534D02*
X008620Y013474D01*
X008620Y013353D01*
X008680Y013293D01*
X008920Y013293D01*
X008980Y013353D01*
X008980Y013474D01*
X008920Y013534D01*
X008860Y013165D02*
X008620Y013165D01*
X008620Y012925D02*
X008860Y012925D01*
X008980Y013045D01*
X008860Y013165D01*
X009040Y012797D02*
X009040Y012557D01*
X008980Y012429D02*
X008860Y012309D01*
X008860Y012369D02*
X008860Y012188D01*
X008860Y012060D02*
X008620Y012060D01*
X008620Y012188D02*
X008620Y012369D01*
X008680Y012429D01*
X008800Y012429D01*
X008860Y012369D01*
X008860Y012060D02*
X008980Y011940D01*
X008860Y011820D01*
X008620Y011820D01*
X008740Y011692D02*
X008620Y011572D01*
X008740Y011452D01*
X008980Y011452D01*
X008980Y011692D02*
X008740Y011692D01*
X008800Y011692D02*
X008800Y011452D01*
X008980Y012188D02*
X008620Y012188D01*
X008680Y006202D02*
X008620Y006142D01*
X008620Y005962D01*
X008980Y005962D01*
X008920Y005834D02*
X008980Y005774D01*
X008980Y005653D01*
X008920Y005593D01*
X008800Y005653D02*
X008800Y005774D01*
X008860Y005834D01*
X008920Y005834D01*
X008860Y005962D02*
X008860Y006142D01*
X008800Y006202D01*
X008680Y006202D01*
X008680Y005834D02*
X008620Y005774D01*
X008620Y005653D01*
X008680Y005593D01*
X008740Y005593D01*
X008800Y005653D01*
X008980Y005468D02*
X008980Y005348D01*
X008980Y005408D02*
X008620Y005408D01*
X008620Y005348D02*
X008620Y005468D01*
D14*
X008580Y022930D03*
X008580Y023030D03*
X008580Y023130D03*
X008580Y023230D03*
X008580Y023330D03*
X008580Y023430D03*
X008580Y023530D03*
X008680Y023530D03*
X008780Y023530D03*
X008880Y023530D03*
X008980Y023530D03*
X009080Y023530D03*
X009180Y023530D03*
X009180Y023430D03*
X009180Y023330D03*
X009180Y023230D03*
X009180Y023130D03*
X009180Y023030D03*
X009180Y022930D03*
X009080Y022930D03*
X008980Y022930D03*
X008880Y022930D03*
X008780Y022930D03*
X008680Y022930D03*
X008780Y023130D03*
X008780Y023230D03*
X008780Y023330D03*
X008880Y023330D03*
X008880Y023230D03*
X008880Y023130D03*
X008980Y023130D03*
X008980Y023230D03*
X008980Y023330D03*
X008980Y023730D03*
X008980Y023930D03*
X009080Y023930D03*
X009080Y024030D03*
X009180Y023930D03*
X009180Y023830D03*
X009180Y024230D03*
X009180Y024330D03*
X009180Y024430D03*
X009180Y024530D03*
X009080Y024530D03*
X009080Y024630D03*
X008980Y024730D03*
X008880Y024830D03*
X008880Y024930D03*
X008780Y024830D03*
X008780Y024730D03*
X008780Y024630D03*
X008680Y024630D03*
X008680Y024530D03*
X008580Y024530D03*
X008580Y024630D03*
X008480Y024530D03*
X008480Y024430D03*
X008480Y024330D03*
X008480Y024230D03*
X008580Y024330D03*
X008680Y024230D03*
X008680Y024130D03*
X008580Y024130D03*
X008580Y024030D03*
X008580Y023830D03*
X008580Y023730D03*
X008480Y023730D03*
X008380Y023630D03*
X008380Y023530D03*
X008380Y023430D03*
X008380Y023330D03*
X008280Y023230D03*
X008280Y023130D03*
X008280Y023030D03*
X008280Y022930D03*
X008380Y022930D03*
X008380Y023130D03*
X008180Y023030D03*
X008080Y023030D03*
X008080Y023130D03*
X008080Y023230D03*
X008180Y023330D03*
X008180Y023530D03*
X008080Y023630D03*
X008080Y023730D03*
X008080Y023830D03*
X008080Y023930D03*
X008080Y024030D03*
X008180Y024030D03*
X008180Y023930D03*
X008180Y023730D03*
X008280Y023730D03*
X008280Y023630D03*
X008380Y023930D03*
X008380Y024130D03*
X008280Y024230D03*
X008280Y024330D03*
X008280Y024430D03*
X008280Y024530D03*
X008180Y024530D03*
X008180Y024630D03*
X008180Y024730D03*
X008180Y024830D03*
X008080Y024830D03*
X007980Y024830D03*
X007980Y024930D03*
X007980Y024730D03*
X008080Y024630D03*
X007980Y024530D03*
X007980Y024430D03*
X007980Y024330D03*
X007980Y024230D03*
X007880Y024130D03*
X007780Y024130D03*
X007680Y024130D03*
X007680Y024030D03*
X007580Y024030D03*
X007580Y023930D03*
X007580Y023830D03*
X007580Y023730D03*
X007680Y023730D03*
X007780Y023730D03*
X007880Y023730D03*
X007980Y023730D03*
X007980Y023630D03*
X007980Y023530D03*
X007980Y023930D03*
X007880Y023930D03*
X007780Y023930D03*
X007780Y023530D03*
X007780Y023430D03*
X007780Y023330D03*
X007780Y023230D03*
X007780Y023130D03*
X007780Y023030D03*
X007780Y022930D03*
X007680Y022930D03*
X007580Y022930D03*
X007480Y022930D03*
X007380Y022930D03*
X007280Y022930D03*
X007180Y022930D03*
X007180Y023030D03*
X007180Y023130D03*
X007180Y023230D03*
X007180Y023330D03*
X007180Y023430D03*
X007180Y023530D03*
X007280Y023530D03*
X007380Y023530D03*
X007480Y023530D03*
X007580Y023530D03*
X007680Y023530D03*
X007580Y023330D03*
X007580Y023230D03*
X007580Y023130D03*
X007480Y023130D03*
X007480Y023230D03*
X007480Y023330D03*
X007380Y023330D03*
X007380Y023230D03*
X007380Y023130D03*
X007380Y023730D03*
X007380Y023830D03*
X007480Y023830D03*
X007480Y024030D03*
X007480Y024130D03*
X007480Y024330D03*
X007380Y024330D03*
X007280Y024330D03*
X007180Y024330D03*
X007180Y024430D03*
X007180Y024530D03*
X007180Y024630D03*
X007180Y024730D03*
X007180Y024830D03*
X007180Y024930D03*
X007280Y024930D03*
X007380Y024930D03*
X007480Y024930D03*
X007580Y024930D03*
X007680Y024930D03*
X007780Y024930D03*
X007780Y024830D03*
X007780Y024730D03*
X007780Y024630D03*
X007780Y024530D03*
X007780Y024430D03*
X007780Y024330D03*
X007680Y024330D03*
X007580Y024330D03*
X007580Y024530D03*
X007580Y024630D03*
X007580Y024730D03*
X007480Y024730D03*
X007480Y024630D03*
X007480Y024530D03*
X007380Y024530D03*
X007380Y024630D03*
X007380Y024730D03*
X007180Y024130D03*
X007180Y023930D03*
X007180Y023830D03*
X007180Y023730D03*
X007280Y023730D03*
X007280Y023930D03*
X007980Y023130D03*
X008080Y022930D03*
X008180Y024330D03*
X008080Y024430D03*
X008380Y024430D03*
X008380Y024730D03*
X008380Y024930D03*
X008580Y024930D03*
X008580Y024830D03*
X008680Y024830D03*
X008880Y024630D03*
X008880Y024530D03*
X008780Y024430D03*
X008780Y024330D03*
X008780Y024230D03*
X008880Y024130D03*
X008780Y024030D03*
X008780Y023930D03*
X008680Y023830D03*
X008980Y024330D03*
X009080Y024330D03*
X009080Y024230D03*
X009180Y024730D03*
X009080Y024830D03*
X009080Y024930D03*
X009180Y024930D03*
D15*
X006210Y014172D02*
X005029Y014172D01*
X005029Y012991D01*
X006210Y012991D01*
X006210Y014172D01*
X006623Y013286D02*
X006496Y013188D01*
X006623Y013089D01*
X006623Y013286D01*
X006310Y011472D02*
X005129Y011472D01*
X005129Y010291D01*
X006310Y010291D01*
X006310Y011472D01*
X006723Y010586D02*
X006596Y010488D01*
X006723Y010389D01*
X006723Y010586D01*
X005895Y006030D02*
X005895Y004695D01*
X003965Y004695D01*
X003965Y006030D01*
X005895Y006030D01*
X005895Y004695D02*
X005895Y004495D01*
X003965Y004495D01*
X003965Y004695D01*
X004180Y003830D02*
X004080Y003630D01*
X004280Y003630D01*
X004180Y003830D01*
X003395Y004495D02*
X003395Y004695D01*
X001465Y004695D01*
X001465Y006030D01*
X003395Y006030D01*
X003395Y004695D01*
X003395Y004495D02*
X001465Y004495D01*
X001465Y004695D01*
X001680Y003830D02*
X001580Y003630D01*
X001780Y003630D01*
X001680Y003830D01*
X002337Y010483D02*
X002337Y011625D01*
X002967Y011625D01*
X002967Y010483D01*
X002337Y010483D01*
X002200Y013015D02*
X002712Y013015D01*
X002712Y013861D01*
X002200Y013861D01*
X002200Y013015D01*
X002223Y016125D02*
X002223Y017306D01*
X003404Y017306D01*
X003404Y016125D01*
X002223Y016125D01*
X002351Y016361D02*
X002353Y016379D01*
X002359Y016395D01*
X002368Y016410D01*
X002381Y016423D01*
X002396Y016432D01*
X002412Y016438D01*
X002430Y016440D01*
X002448Y016438D01*
X002464Y016432D01*
X002479Y016423D01*
X002492Y016410D01*
X002501Y016395D01*
X002507Y016379D01*
X002509Y016361D01*
X002507Y016343D01*
X002501Y016327D01*
X002492Y016312D01*
X002479Y016299D01*
X002464Y016290D01*
X002448Y016284D01*
X002430Y016282D01*
X002412Y016284D01*
X002396Y016290D01*
X002381Y016299D01*
X002368Y016312D01*
X002359Y016327D01*
X002353Y016343D01*
X002351Y016361D01*
D16*
X001730Y009530D03*
X002230Y009330D03*
X008680Y007180D03*
D17*
X002504Y013176D02*
X002506Y013188D01*
X002511Y013199D01*
X002520Y013208D01*
X002531Y013213D01*
X002543Y013215D01*
X002555Y013213D01*
X002566Y013208D01*
X002575Y013199D01*
X002580Y013188D01*
X002582Y013176D01*
X002580Y013164D01*
X002575Y013153D01*
X002566Y013144D01*
X002555Y013139D01*
X002543Y013137D01*
X002531Y013139D01*
X002520Y013144D01*
X002511Y013153D01*
X002506Y013164D01*
X002504Y013176D01*
D18*
X002416Y011467D02*
X002418Y011485D01*
X002424Y011501D01*
X002433Y011516D01*
X002446Y011529D01*
X002461Y011538D01*
X002477Y011544D01*
X002495Y011546D01*
X002513Y011544D01*
X002529Y011538D01*
X002544Y011529D01*
X002557Y011516D01*
X002566Y011501D01*
X002572Y011485D01*
X002574Y011467D01*
X002572Y011449D01*
X002566Y011433D01*
X002557Y011418D01*
X002544Y011405D01*
X002529Y011396D01*
X002513Y011390D01*
X002495Y011388D01*
X002477Y011390D01*
X002461Y011396D01*
X002446Y011405D01*
X002433Y011418D01*
X002424Y011433D01*
X002418Y011449D01*
X002416Y011467D01*
D19*
X007180Y011430D02*
X007180Y011930D01*
X007430Y012180D01*
X007180Y012430D01*
X007180Y012930D01*
X007430Y013180D01*
X007180Y013430D01*
X007180Y013930D01*
X007430Y014180D01*
X007930Y014180D01*
X008180Y013930D01*
X008180Y013430D01*
X007930Y013180D01*
X008180Y012930D01*
X008180Y012430D01*
X007930Y012180D01*
X008180Y011930D01*
X008180Y011430D01*
X007930Y011180D01*
X007430Y011180D01*
X007180Y011430D01*
X007430Y012180D02*
X007930Y012180D01*
X007930Y013180D02*
X007430Y013180D01*
X007630Y016680D02*
X007380Y016930D01*
X007380Y017430D01*
X007630Y017680D01*
X007380Y017930D01*
X007380Y018430D01*
X007630Y018680D01*
X008130Y018680D01*
X008380Y018430D01*
X008380Y017930D01*
X008130Y017680D01*
X008380Y017430D01*
X008380Y016930D01*
X008130Y016680D01*
X007630Y016680D01*
X007630Y017680D02*
X008130Y017680D01*
X008130Y019180D02*
X007630Y019180D01*
X007380Y019430D01*
X007380Y019930D01*
X007630Y020180D01*
X007380Y020430D01*
X007380Y020930D01*
X007630Y021180D01*
X008130Y021180D01*
X008380Y020930D01*
X008380Y020430D01*
X008130Y020180D01*
X008380Y019930D01*
X008380Y019430D01*
X008130Y019180D01*
X008130Y020180D02*
X007630Y020180D01*
X007430Y008680D02*
X007180Y008430D01*
X007180Y007930D01*
X007430Y007680D01*
X007180Y007430D01*
X007180Y006930D01*
X007430Y006680D01*
X007930Y006680D01*
X008180Y006930D01*
X008180Y007430D01*
X007930Y007680D01*
X007430Y007680D01*
X007430Y008680D02*
X007930Y008680D01*
X008180Y008430D01*
X008180Y007930D01*
X007930Y007680D01*
X007930Y006680D02*
X008180Y006430D01*
X008180Y005930D01*
X007930Y005680D01*
X008180Y005430D01*
X008180Y004930D01*
X007930Y004680D01*
X008180Y004430D01*
X008180Y003930D01*
X007930Y003680D01*
X008180Y003430D01*
X008180Y002930D01*
X007930Y002680D01*
X007430Y002680D01*
X007180Y002930D01*
X007180Y003430D01*
X007430Y003680D01*
X007180Y003930D01*
X007180Y004430D01*
X007430Y004680D01*
X007180Y004930D01*
X007180Y005430D01*
X007430Y005680D01*
X007180Y005930D01*
X007180Y006430D01*
X007430Y006680D01*
X007430Y005680D02*
X007930Y005680D01*
X007930Y004680D02*
X007430Y004680D01*
X007430Y003680D02*
X007930Y003680D01*
D20*
X003236Y021721D02*
X003236Y021839D01*
X003157Y021780D01*
X003236Y021721D01*
X003059Y021691D02*
X002665Y021691D01*
X002665Y022262D01*
X003059Y022262D01*
X003059Y021691D01*
M02*
