G75*
%MOIN*%
%OFA0B0*%
%FSLAX24Y24*%
%IPPOS*%
%LPD*%
%AMOC8*
5,1,8,0,0,1.08239X$1,22.5*
%
%ADD10C,0.0000*%
%ADD11R,0.0246X0.0177*%
%ADD12R,0.0177X0.0246*%
%ADD13R,0.0169X0.0110*%
%ADD14R,0.0165X0.0701*%
%ADD15R,0.0236X0.0165*%
%ADD16R,0.0276X0.0157*%
%ADD17R,0.0098X0.0138*%
%ADD18R,0.0177X0.0472*%
%ADD19R,0.0118X0.0079*%
%ADD20R,0.0394X0.0394*%
%ADD21R,0.0110X0.0169*%
D10*
X000180Y000180D02*
X000180Y025380D01*
X009680Y025380D01*
X009680Y000180D01*
X000180Y000180D01*
D11*
X005108Y010496D03*
X005108Y010889D03*
X005108Y011283D03*
X005008Y013196D03*
X005008Y013589D03*
X005008Y013983D03*
X006238Y013983D03*
X006238Y013589D03*
X006238Y013196D03*
X006338Y011283D03*
X006338Y010889D03*
X006338Y010496D03*
D12*
X005743Y010850D03*
X005643Y013550D03*
D13*
X002230Y009430D03*
X002230Y009230D03*
X001730Y009430D03*
X001730Y009630D03*
D14*
X002430Y015530D03*
X002686Y015530D03*
X002942Y015530D03*
X003198Y015530D03*
X003198Y017869D03*
X002942Y017869D03*
X002686Y017869D03*
X002430Y017869D03*
D15*
X002082Y013692D03*
X002082Y013436D03*
X002082Y013180D03*
X002830Y013180D03*
X002830Y013436D03*
X002830Y013692D03*
D16*
X003125Y011428D03*
X003125Y011054D03*
X003125Y010680D03*
X002180Y010680D03*
X002180Y011054D03*
X002180Y011428D03*
D17*
X003532Y011230D03*
X003728Y011230D03*
X002728Y021130D03*
X002532Y021130D03*
X003282Y022480D03*
X003478Y022480D03*
D18*
X003180Y006345D03*
X002680Y006345D03*
X002180Y006345D03*
X001680Y006345D03*
X001680Y004180D03*
X002180Y004180D03*
X002680Y004180D03*
X003180Y004180D03*
X004180Y004180D03*
X004680Y004180D03*
X005180Y004180D03*
X005680Y004180D03*
X005680Y006345D03*
X005180Y006345D03*
X004680Y006345D03*
X004180Y006345D03*
D19*
X002980Y021780D03*
X002980Y021977D03*
X002980Y022174D03*
X002744Y022174D03*
X002744Y021977D03*
X002744Y021780D03*
D20*
X003780Y021524D03*
X003780Y020736D03*
D21*
X008580Y007180D03*
X008780Y007180D03*
M02*
